%TF.GenerationSoftware,KiCad,Pcbnew,9.0.3*%
%TF.CreationDate,2025-07-31T16:32:47-07:00*%
%TF.ProjectId,fortissimo-ii,666f7274-6973-4736-996d-6f2d69692e6b,rev?*%
%TF.SameCoordinates,Original*%
%TF.FileFunction,Soldermask,Bot*%
%TF.FilePolarity,Negative*%
%FSLAX46Y46*%
G04 Gerber Fmt 4.6, Leading zero omitted, Abs format (unit mm)*
G04 Created by KiCad (PCBNEW 9.0.3) date 2025-07-31 16:32:47*
%MOMM*%
%LPD*%
G01*
G04 APERTURE LIST*
G04 Aperture macros list*
%AMRoundRect*
0 Rectangle with rounded corners*
0 $1 Rounding radius*
0 $2 $3 $4 $5 $6 $7 $8 $9 X,Y pos of 4 corners*
0 Add a 4 corners polygon primitive as box body*
4,1,4,$2,$3,$4,$5,$6,$7,$8,$9,$2,$3,0*
0 Add four circle primitives for the rounded corners*
1,1,$1+$1,$2,$3*
1,1,$1+$1,$4,$5*
1,1,$1+$1,$6,$7*
1,1,$1+$1,$8,$9*
0 Add four rect primitives between the rounded corners*
20,1,$1+$1,$2,$3,$4,$5,0*
20,1,$1+$1,$4,$5,$6,$7,0*
20,1,$1+$1,$6,$7,$8,$9,0*
20,1,$1+$1,$8,$9,$2,$3,0*%
%AMHorizOval*
0 Thick line with rounded ends*
0 $1 width*
0 $2 $3 position (X,Y) of the first rounded end (center of the circle)*
0 $4 $5 position (X,Y) of the second rounded end (center of the circle)*
0 Add line between two ends*
20,1,$1,$2,$3,$4,$5,0*
0 Add two circle primitives to create the rounded ends*
1,1,$1,$2,$3*
1,1,$1,$4,$5*%
%AMFreePoly0*
4,1,37,0.603843,0.796157,0.639018,0.796157,0.711114,0.766294,0.766294,0.711114,0.796157,0.639018,0.796157,0.603843,0.800000,0.600000,0.800000,-0.600000,0.796157,-0.603843,0.796157,-0.639018,0.766294,-0.711114,0.711114,-0.766294,0.639018,-0.796157,0.603843,-0.796157,0.600000,-0.800000,0.000000,-0.800000,0.000000,-0.796148,-0.078414,-0.796148,-0.232228,-0.765552,-0.377117,-0.705537,
-0.507515,-0.618408,-0.618408,-0.507515,-0.705537,-0.377117,-0.765552,-0.232228,-0.796148,-0.078414,-0.796148,0.078414,-0.765552,0.232228,-0.705537,0.377117,-0.618408,0.507515,-0.507515,0.618408,-0.377117,0.705537,-0.232228,0.765552,-0.078414,0.796148,0.000000,0.796148,0.000000,0.800000,0.600000,0.800000,0.603843,0.796157,0.603843,0.796157,$1*%
%AMFreePoly1*
4,1,37,0.000000,0.796148,0.078414,0.796148,0.232228,0.765552,0.377117,0.705537,0.507515,0.618408,0.618408,0.507515,0.705537,0.377117,0.765552,0.232228,0.796148,0.078414,0.796148,-0.078414,0.765552,-0.232228,0.705537,-0.377117,0.618408,-0.507515,0.507515,-0.618408,0.377117,-0.705537,0.232228,-0.765552,0.078414,-0.796148,0.000000,-0.796148,0.000000,-0.800000,-0.600000,-0.800000,
-0.603843,-0.796157,-0.639018,-0.796157,-0.711114,-0.766294,-0.766294,-0.711114,-0.796157,-0.639018,-0.796157,-0.603843,-0.800000,-0.600000,-0.800000,0.600000,-0.796157,0.603843,-0.796157,0.639018,-0.766294,0.711114,-0.711114,0.766294,-0.639018,0.796157,-0.603843,0.796157,-0.600000,0.800000,0.000000,0.800000,0.000000,0.796148,0.000000,0.796148,$1*%
G04 Aperture macros list end*
%ADD10C,1.700000*%
%ADD11C,6.250000*%
%ADD12C,2.300000*%
%ADD13C,2.250000*%
%ADD14C,1.905000*%
%ADD15R,1.905000X1.905000*%
%ADD16C,0.800000*%
%ADD17O,2.000000X1.600000*%
%ADD18C,3.200000*%
%ADD19C,3.987800*%
%ADD20C,3.048000*%
%ADD21C,1.200000*%
%ADD22C,1.750000*%
%ADD23HorizOval,2.250000X0.654995X0.730004X-0.654995X-0.730004X0*%
%ADD24HorizOval,2.250000X0.019771X0.290016X-0.019771X-0.290016X0*%
%ADD25O,1.600000X2.000000*%
%ADD26C,2.000000*%
%ADD27C,2.200000*%
%ADD28C,1.850000*%
%ADD29RoundRect,0.200000X-0.600000X-0.600000X0.600000X-0.600000X0.600000X0.600000X-0.600000X0.600000X0*%
%ADD30C,1.600000*%
%ADD31FreePoly0,0.000000*%
%ADD32FreePoly1,0.000000*%
%ADD33RoundRect,0.250000X0.550000X-0.550000X0.550000X0.550000X-0.550000X0.550000X-0.550000X-0.550000X0*%
%ADD34RoundRect,0.200000X-0.275000X0.200000X-0.275000X-0.200000X0.275000X-0.200000X0.275000X0.200000X0*%
G04 APERTURE END LIST*
D10*
%TO.C,SW9*%
X56412500Y-52387500D03*
D11*
X61912500Y-52387500D03*
D12*
X61912500Y-56087500D03*
D10*
X67412500Y-52387500D03*
D13*
X61912500Y-58437500D03*
X56912500Y-56187500D03*
X66042500Y-55687500D03*
D14*
X63182500Y-47587500D03*
D15*
X60642500Y-47587500D03*
%TD*%
D10*
%TO.C,SW43*%
X258818750Y-71437500D03*
D11*
X264318750Y-71437500D03*
D12*
X264318750Y-75137500D03*
D10*
X269818750Y-71437500D03*
D13*
X264318750Y-77487500D03*
X259318750Y-75237500D03*
X268448750Y-74737500D03*
D14*
X265588750Y-66637500D03*
D15*
X263048750Y-66637500D03*
%TD*%
D10*
%TO.C,SW48*%
X277868750Y-71437500D03*
D11*
X283368750Y-71437500D03*
D12*
X283368750Y-75137500D03*
D10*
X288868750Y-71437500D03*
D13*
X283368750Y-77487500D03*
X278368750Y-75237500D03*
X287498750Y-74737500D03*
D14*
X284638750Y-66637500D03*
D15*
X282098750Y-66637500D03*
%TD*%
D10*
%TO.C,SW21*%
X151662500Y-71437500D03*
D11*
X157162500Y-71437500D03*
D12*
X157162500Y-75137500D03*
D10*
X162662500Y-71437500D03*
D13*
X157162500Y-77487500D03*
X152162500Y-75237500D03*
X161292500Y-74737500D03*
D14*
X158432500Y-66637500D03*
D15*
X155892500Y-66637500D03*
%TD*%
D16*
%TO.C,J2*%
X209550000Y-95325000D03*
X216550000Y-95325000D03*
D17*
X214150000Y-93025000D03*
X211150000Y-93025000D03*
X219250000Y-97625000D03*
X218150000Y-93025000D03*
%TD*%
D10*
%TO.C,SW26*%
X113562500Y-90487500D03*
D11*
X119062500Y-90487500D03*
D12*
X119062500Y-94187500D03*
D10*
X124562500Y-90487500D03*
D13*
X119062500Y-96537500D03*
X114062500Y-94287500D03*
X123192500Y-93787500D03*
D14*
X120332500Y-85687500D03*
D15*
X117792500Y-85687500D03*
%TD*%
D10*
%TO.C,SW29*%
X37362500Y-109537500D03*
D11*
X42862500Y-109537500D03*
D12*
X42862500Y-113237500D03*
D10*
X48362500Y-109537500D03*
D13*
X42862500Y-115587500D03*
X37862500Y-113337500D03*
X46992500Y-112837500D03*
D14*
X44132500Y-104737500D03*
D15*
X41592500Y-104737500D03*
%TD*%
D10*
%TO.C,SW52*%
X296850000Y-52387500D03*
D11*
X302350000Y-52387500D03*
D12*
X302350000Y-56087500D03*
D10*
X307850000Y-52387500D03*
D13*
X302350000Y-58437500D03*
X297350000Y-56187500D03*
X306480000Y-55687500D03*
D14*
X303620000Y-47587500D03*
D15*
X301080000Y-47587500D03*
%TD*%
D10*
%TO.C,SW61*%
X335018750Y-33337500D03*
D11*
X340518750Y-33337500D03*
D12*
X340518750Y-37037500D03*
D10*
X346018750Y-33337500D03*
D13*
X340518750Y-39387500D03*
X335518750Y-37137500D03*
X344648750Y-36637500D03*
D14*
X341788750Y-28537500D03*
D15*
X339248750Y-28537500D03*
%TD*%
D10*
%TO.C,SW64*%
X335018750Y-90487500D03*
D11*
X340518750Y-90487500D03*
D12*
X340518750Y-94187500D03*
D10*
X346018750Y-90487500D03*
D13*
X340518750Y-96537500D03*
X335518750Y-94287500D03*
X344648750Y-93787500D03*
D14*
X341788750Y-85687500D03*
D15*
X339248750Y-85687500D03*
%TD*%
D10*
%TO.C,SW56*%
X315968750Y-33337500D03*
D11*
X321468750Y-33337500D03*
D12*
X321468750Y-37037500D03*
D10*
X326968750Y-33337500D03*
D13*
X321468750Y-39387500D03*
X316468750Y-37137500D03*
X325598750Y-36637500D03*
D14*
X322738750Y-28537500D03*
D15*
X320198750Y-28537500D03*
%TD*%
D10*
%TO.C,SW62*%
X335018750Y-52387500D03*
D11*
X340518750Y-52387500D03*
D12*
X340518750Y-56087500D03*
D10*
X346018750Y-52387500D03*
D13*
X340518750Y-58437500D03*
X335518750Y-56187500D03*
X344648750Y-55687500D03*
D14*
X341788750Y-47587500D03*
D15*
X339248750Y-47587500D03*
%TD*%
D10*
%TO.C,SW2*%
X56412500Y-33337500D03*
D11*
X61912500Y-33337500D03*
D12*
X61912500Y-37037500D03*
D10*
X67412500Y-33337500D03*
D13*
X61912500Y-39387500D03*
X56912500Y-37137500D03*
X66042500Y-36637500D03*
D14*
X63182500Y-28537500D03*
D15*
X60642500Y-28537500D03*
%TD*%
D10*
%TO.C,SW54*%
X296918750Y-90487500D03*
D11*
X302418750Y-90487500D03*
D12*
X302418750Y-94187500D03*
D10*
X307918750Y-90487500D03*
D13*
X302418750Y-96537500D03*
X297418750Y-94287500D03*
X306548750Y-93787500D03*
D14*
X303688750Y-85687500D03*
D15*
X301148750Y-85687500D03*
%TD*%
D10*
%TO.C,SW31*%
X75462500Y-109537500D03*
D11*
X80962500Y-109537500D03*
D12*
X80962500Y-113237500D03*
D10*
X86462500Y-109537500D03*
D13*
X80962500Y-115587500D03*
X75962500Y-113337500D03*
X85092500Y-112837500D03*
D14*
X82232500Y-104737500D03*
D15*
X79692500Y-104737500D03*
%TD*%
D10*
%TO.C,SW65*%
X354068750Y-109537500D03*
D11*
X359568750Y-109537500D03*
D12*
X359568750Y-113237500D03*
D10*
X365068750Y-109537500D03*
D13*
X359568750Y-115587500D03*
X354568750Y-113337500D03*
X363698750Y-112837500D03*
D14*
X360838750Y-104737500D03*
D15*
X358298750Y-104737500D03*
%TD*%
D10*
%TO.C,SW25*%
X94512500Y-90487500D03*
D11*
X100012500Y-90487500D03*
D12*
X100012500Y-94187500D03*
D10*
X105512500Y-90487500D03*
D13*
X100012500Y-96537500D03*
X95012500Y-94287500D03*
X104142500Y-93787500D03*
D14*
X101282500Y-85687500D03*
D15*
X98742500Y-85687500D03*
%TD*%
D18*
%TO.C,REF\u002A\u002A*%
X376237500Y-71934375D03*
%TD*%
%TO.C,REF\u002A\u002A*%
X211931250Y-117525000D03*
%TD*%
%TO.C,REF\u002A\u002A*%
X178593750Y-100012500D03*
%TD*%
D10*
%TO.C,SW4*%
X94512500Y-33337500D03*
D11*
X100012500Y-33337500D03*
D12*
X100012500Y-37037500D03*
D10*
X105512500Y-33337500D03*
D13*
X100012500Y-39387500D03*
X95012500Y-37137500D03*
X104142500Y-36637500D03*
D14*
X101282500Y-28537500D03*
D15*
X98742500Y-28537500D03*
%TD*%
D18*
%TO.C,REF\u002A\u002A*%
X376237500Y-26193750D03*
%TD*%
D19*
%TO.C,SW34*%
X135699500Y-101282500D03*
D20*
X135699500Y-116522500D03*
D10*
X142137500Y-109537500D03*
D21*
X142417500Y-113737500D03*
D22*
X142557500Y-109537500D03*
D19*
X147637500Y-109537500D03*
D22*
X152717500Y-109537500D03*
D10*
X153137500Y-109537500D03*
D19*
X159575500Y-101282500D03*
D20*
X159575500Y-116522500D03*
D23*
X144482495Y-106267496D03*
D13*
X145137500Y-105537500D03*
X147637500Y-103637500D03*
D24*
X150157271Y-104747484D03*
D13*
X150177500Y-104457500D03*
X152637500Y-105737500D03*
D14*
X146367500Y-114617500D03*
D15*
X148907500Y-114617500D03*
%TD*%
D18*
%TO.C,REF\u002A\u002A*%
X28575000Y-116681250D03*
%TD*%
D10*
%TO.C,SW14*%
X151662500Y-52387500D03*
D11*
X157162500Y-52387500D03*
D12*
X157162500Y-56087500D03*
D10*
X162662500Y-52387500D03*
D13*
X157162500Y-58437500D03*
X152162500Y-56187500D03*
X161292500Y-55687500D03*
D14*
X158432500Y-47587500D03*
D15*
X155892500Y-47587500D03*
%TD*%
D10*
%TO.C,SW8*%
X37362500Y-52387500D03*
D11*
X42862500Y-52387500D03*
D12*
X42862500Y-56087500D03*
D10*
X48362500Y-52387500D03*
D13*
X42862500Y-58437500D03*
X37862500Y-56187500D03*
X46992500Y-55687500D03*
D14*
X44132500Y-47587500D03*
D15*
X41592500Y-47587500D03*
%TD*%
D10*
%TO.C,SW6*%
X132612500Y-33337500D03*
D11*
X138112500Y-33337500D03*
D12*
X138112500Y-37037500D03*
D10*
X143612500Y-33337500D03*
D13*
X138112500Y-39387500D03*
X133112500Y-37137500D03*
X142242500Y-36637500D03*
D14*
X139382500Y-28537500D03*
D15*
X136842500Y-28537500D03*
%TD*%
D10*
%TO.C,SW5*%
X113562500Y-33337500D03*
D11*
X119062500Y-33337500D03*
D12*
X119062500Y-37037500D03*
D10*
X124562500Y-33337500D03*
D13*
X119062500Y-39387500D03*
X114062500Y-37137500D03*
X123192500Y-36637500D03*
D14*
X120332500Y-28537500D03*
D15*
X117792500Y-28537500D03*
%TD*%
D10*
%TO.C,SW67*%
X354068750Y-52387500D03*
D11*
X359568750Y-52387500D03*
D12*
X359568750Y-56087500D03*
D10*
X365068750Y-52387500D03*
D13*
X359568750Y-58437500D03*
X354568750Y-56187500D03*
X363698750Y-55687500D03*
D14*
X360838750Y-47587500D03*
D15*
X358298750Y-47587500D03*
%TD*%
D25*
%TO.C,Brd2*%
X225120000Y-78225000D03*
X222580000Y-78225000D03*
X220040000Y-78225000D03*
X217500000Y-78225000D03*
%TD*%
D10*
%TO.C,SW46*%
X277868750Y-33337500D03*
D11*
X283368750Y-33337500D03*
D12*
X283368750Y-37037500D03*
D10*
X288868750Y-33337500D03*
D13*
X283368750Y-39387500D03*
X278368750Y-37137500D03*
X287498750Y-36637500D03*
D14*
X284638750Y-28537500D03*
D15*
X282098750Y-28537500D03*
%TD*%
D10*
%TO.C,SW66*%
X354068750Y-33337500D03*
D11*
X359568750Y-33337500D03*
D12*
X359568750Y-37037500D03*
D10*
X365068750Y-33337500D03*
D13*
X359568750Y-39387500D03*
X354568750Y-37137500D03*
X363698750Y-36637500D03*
D14*
X360838750Y-28537500D03*
D15*
X358298750Y-28537500D03*
%TD*%
D10*
%TO.C,SW18*%
X94512500Y-71437500D03*
D11*
X100012500Y-71437500D03*
D12*
X100012500Y-75137500D03*
D10*
X105512500Y-71437500D03*
D13*
X100012500Y-77487500D03*
X95012500Y-75237500D03*
X104142500Y-74737500D03*
D14*
X101282500Y-66637500D03*
D15*
X98742500Y-66637500D03*
%TD*%
D10*
%TO.C,SW20*%
X132612500Y-71437500D03*
D11*
X138112500Y-71437500D03*
D12*
X138112500Y-75137500D03*
D10*
X143612500Y-71437500D03*
D13*
X138112500Y-77487500D03*
X133112500Y-75237500D03*
X142242500Y-74737500D03*
D14*
X139382500Y-66637500D03*
D15*
X136842500Y-66637500D03*
%TD*%
D10*
%TO.C,SW37*%
X239768750Y-52387500D03*
D11*
X245268750Y-52387500D03*
D12*
X245268750Y-56087500D03*
D10*
X250768750Y-52387500D03*
D13*
X245268750Y-58437500D03*
X240268750Y-56187500D03*
X249398750Y-55687500D03*
D14*
X246538750Y-47587500D03*
D15*
X243998750Y-47587500D03*
%TD*%
D10*
%TO.C,SW1*%
X37362500Y-33337500D03*
D11*
X42862500Y-33337500D03*
D12*
X42862500Y-37037500D03*
D10*
X48362500Y-33337500D03*
D13*
X42862500Y-39387500D03*
X37862500Y-37137500D03*
X46992500Y-36637500D03*
D14*
X44132500Y-28537500D03*
D15*
X41592500Y-28537500D03*
%TD*%
D10*
%TO.C,SW24*%
X75462500Y-90487500D03*
D11*
X80962500Y-90487500D03*
D12*
X80962500Y-94187500D03*
D10*
X86462500Y-90487500D03*
D13*
X80962500Y-96537500D03*
X75962500Y-94287500D03*
X85092500Y-93787500D03*
D14*
X82232500Y-85687500D03*
D15*
X79692500Y-85687500D03*
%TD*%
D10*
%TO.C,SW57*%
X315968750Y-52387500D03*
D11*
X321468750Y-52387500D03*
D12*
X321468750Y-56087500D03*
D10*
X326968750Y-52387500D03*
D13*
X321468750Y-58437500D03*
X316468750Y-56187500D03*
X325598750Y-55687500D03*
D14*
X322738750Y-47587500D03*
D15*
X320198750Y-47587500D03*
%TD*%
D10*
%TO.C,SW27*%
X132612500Y-90487500D03*
D11*
X138112500Y-90487500D03*
D12*
X138112500Y-94187500D03*
D10*
X143612500Y-90487500D03*
D13*
X138112500Y-96537500D03*
X133112500Y-94287500D03*
X142242500Y-93787500D03*
D14*
X139382500Y-85687500D03*
D15*
X136842500Y-85687500D03*
%TD*%
D10*
%TO.C,SW68*%
X354068750Y-71437500D03*
D11*
X359568750Y-71437500D03*
D12*
X359568750Y-75137500D03*
D10*
X365068750Y-71437500D03*
D13*
X359568750Y-77487500D03*
X354568750Y-75237500D03*
X363698750Y-74737500D03*
D14*
X360838750Y-66637500D03*
D15*
X358298750Y-66637500D03*
%TD*%
D18*
%TO.C,REF\u002A\u002A*%
X28575000Y-71437500D03*
%TD*%
D10*
%TO.C,SW36*%
X239768750Y-33337500D03*
D11*
X245268750Y-33337500D03*
D12*
X245268750Y-37037500D03*
D10*
X250768750Y-33337500D03*
D13*
X245268750Y-39387500D03*
X240268750Y-37137500D03*
X249398750Y-36637500D03*
D14*
X246538750Y-28537500D03*
D15*
X243998750Y-28537500D03*
%TD*%
D10*
%TO.C,SW32*%
X94512500Y-109537500D03*
D11*
X100012500Y-109537500D03*
D12*
X100012500Y-113237500D03*
D10*
X105512500Y-109537500D03*
D13*
X100012500Y-115587500D03*
X95012500Y-113337500D03*
X104142500Y-112837500D03*
D14*
X101282500Y-104737500D03*
D15*
X98742500Y-104737500D03*
%TD*%
D18*
%TO.C,REF\u002A\u002A*%
X376237500Y-116681250D03*
%TD*%
D10*
%TO.C,SW3*%
X75462500Y-33337500D03*
D11*
X80962500Y-33337500D03*
D12*
X80962500Y-37037500D03*
D10*
X86462500Y-33337500D03*
D13*
X80962500Y-39387500D03*
X75962500Y-37137500D03*
X85092500Y-36637500D03*
D14*
X82232500Y-28537500D03*
D15*
X79692500Y-28537500D03*
%TD*%
D10*
%TO.C,SW58*%
X315968750Y-71437500D03*
D11*
X321468750Y-71437500D03*
D12*
X321468750Y-75137500D03*
D10*
X326968750Y-71437500D03*
D13*
X321468750Y-77487500D03*
X316468750Y-75237500D03*
X325598750Y-74737500D03*
D14*
X322738750Y-66637500D03*
D15*
X320198750Y-66637500D03*
%TD*%
D10*
%TO.C,SW33*%
X113562500Y-109537500D03*
D11*
X119062500Y-109537500D03*
D12*
X119062500Y-113237500D03*
D10*
X124562500Y-109537500D03*
D13*
X119062500Y-115587500D03*
X114062500Y-113337500D03*
X123192500Y-112837500D03*
D14*
X120332500Y-104737500D03*
D15*
X117792500Y-104737500D03*
%TD*%
D10*
%TO.C,SW63*%
X335018750Y-71437500D03*
D11*
X340518750Y-71437500D03*
D12*
X340518750Y-75137500D03*
D10*
X346018750Y-71437500D03*
D13*
X340518750Y-77487500D03*
X335518750Y-75237500D03*
X344648750Y-74737500D03*
D14*
X341788750Y-66637500D03*
D15*
X339248750Y-66637500D03*
%TD*%
D18*
%TO.C,REF\u002A\u002A*%
X226218750Y-100012500D03*
%TD*%
D16*
%TO.C,J1*%
X192881250Y-95331250D03*
X185881250Y-95331250D03*
D17*
X188281250Y-97631250D03*
X191281250Y-97631250D03*
X183181250Y-93031250D03*
X184281250Y-97631250D03*
%TD*%
D10*
%TO.C,SW53*%
X296918750Y-71437500D03*
D11*
X302418750Y-71437500D03*
D12*
X302418750Y-75137500D03*
D10*
X307918750Y-71437500D03*
D13*
X302418750Y-77487500D03*
X297418750Y-75237500D03*
X306548750Y-74737500D03*
D14*
X303688750Y-66637500D03*
D15*
X301148750Y-66637500D03*
%TD*%
D10*
%TO.C,SW22*%
X37362500Y-90487500D03*
D11*
X42862500Y-90487500D03*
D12*
X42862500Y-94187500D03*
D10*
X48362500Y-90487500D03*
D13*
X42862500Y-96537500D03*
X37862500Y-94287500D03*
X46992500Y-93787500D03*
D14*
X44132500Y-85687500D03*
D15*
X41592500Y-85687500D03*
%TD*%
D10*
%TO.C,SW60*%
X335018750Y-109537500D03*
D11*
X340518750Y-109537500D03*
D12*
X340518750Y-113237500D03*
D10*
X346018750Y-109537500D03*
D13*
X340518750Y-115587500D03*
X335518750Y-113337500D03*
X344648750Y-112837500D03*
D14*
X341788750Y-104737500D03*
D15*
X339248750Y-104737500D03*
%TD*%
D10*
%TO.C,SW44*%
X258818750Y-90487500D03*
D11*
X264318750Y-90487500D03*
D12*
X264318750Y-94187500D03*
D10*
X269818750Y-90487500D03*
D13*
X264318750Y-96537500D03*
X259318750Y-94287500D03*
X268448750Y-93787500D03*
D14*
X265588750Y-85687500D03*
D15*
X263048750Y-85687500D03*
%TD*%
D10*
%TO.C,SW11*%
X94512500Y-52387500D03*
D11*
X100012500Y-52387500D03*
D12*
X100012500Y-56087500D03*
D10*
X105512500Y-52387500D03*
D13*
X100012500Y-58437500D03*
X95012500Y-56187500D03*
X104142500Y-55687500D03*
D14*
X101282500Y-47587500D03*
D15*
X98742500Y-47587500D03*
%TD*%
D10*
%TO.C,SW39*%
X239768750Y-90487500D03*
D11*
X245268750Y-90487500D03*
D12*
X245268750Y-94187500D03*
D10*
X250768750Y-90487500D03*
D13*
X245268750Y-96537500D03*
X240268750Y-94287500D03*
X249398750Y-93787500D03*
D14*
X246538750Y-85687500D03*
D15*
X243998750Y-85687500D03*
%TD*%
D10*
%TO.C,SW7*%
X151662500Y-33337500D03*
D11*
X157162500Y-33337500D03*
D12*
X157162500Y-37037500D03*
D10*
X162662500Y-33337500D03*
D13*
X157162500Y-39387500D03*
X152162500Y-37137500D03*
X161292500Y-36637500D03*
D14*
X158432500Y-28537500D03*
D15*
X155892500Y-28537500D03*
%TD*%
D26*
%TO.C,SW35*%
X179237500Y-107418750D03*
X185737500Y-107418750D03*
X179237500Y-111918750D03*
X185737500Y-111918750D03*
%TD*%
D10*
%TO.C,SW23*%
X56412500Y-90487500D03*
D11*
X61912500Y-90487500D03*
D12*
X61912500Y-94187500D03*
D10*
X67412500Y-90487500D03*
D13*
X61912500Y-96537500D03*
X56912500Y-94287500D03*
X66042500Y-93787500D03*
D14*
X63182500Y-85687500D03*
D15*
X60642500Y-85687500D03*
%TD*%
D18*
%TO.C,REF\u002A\u002A*%
X28575000Y-26193750D03*
%TD*%
D10*
%TO.C,SW13*%
X132612500Y-52387500D03*
D11*
X138112500Y-52387500D03*
D12*
X138112500Y-56087500D03*
D10*
X143612500Y-52387500D03*
D13*
X138112500Y-58437500D03*
X133112500Y-56187500D03*
X142242500Y-55687500D03*
D14*
X139382500Y-47587500D03*
D15*
X136842500Y-47587500D03*
%TD*%
D10*
%TO.C,SW55*%
X315968750Y-109537500D03*
D11*
X321468750Y-109537500D03*
D12*
X321468750Y-113237500D03*
D10*
X326968750Y-109537500D03*
D13*
X321468750Y-115587500D03*
X316468750Y-113337500D03*
X325598750Y-112837500D03*
D14*
X322738750Y-104737500D03*
D15*
X320198750Y-104737500D03*
%TD*%
D10*
%TO.C,SW10*%
X75462500Y-52387500D03*
D11*
X80962500Y-52387500D03*
D12*
X80962500Y-56087500D03*
D10*
X86462500Y-52387500D03*
D13*
X80962500Y-58437500D03*
X75962500Y-56187500D03*
X85092500Y-55687500D03*
D14*
X82232500Y-47587500D03*
D15*
X79692500Y-47587500D03*
%TD*%
D10*
%TO.C,SW41*%
X258818750Y-33337500D03*
D11*
X264318750Y-33337500D03*
D12*
X264318750Y-37037500D03*
D10*
X269818750Y-33337500D03*
D13*
X264318750Y-39387500D03*
X259318750Y-37137500D03*
X268448750Y-36637500D03*
D14*
X265588750Y-28537500D03*
D15*
X263048750Y-28537500D03*
%TD*%
D10*
%TO.C,SW51*%
X296918750Y-33337500D03*
D11*
X302418750Y-33337500D03*
D12*
X302418750Y-37037500D03*
D10*
X307918750Y-33337500D03*
D13*
X302418750Y-39387500D03*
X297418750Y-37137500D03*
X306548750Y-36637500D03*
D14*
X303688750Y-28537500D03*
D15*
X301148750Y-28537500D03*
%TD*%
D10*
%TO.C,SW12*%
X113562500Y-52387500D03*
D11*
X119062500Y-52387500D03*
D12*
X119062500Y-56087500D03*
D10*
X124562500Y-52387500D03*
D13*
X119062500Y-58437500D03*
X114062500Y-56187500D03*
X123192500Y-55687500D03*
D14*
X120332500Y-47587500D03*
D15*
X117792500Y-47587500D03*
%TD*%
D10*
%TO.C,SW49*%
X277868750Y-90487500D03*
D11*
X283368750Y-90487500D03*
D12*
X283368750Y-94187500D03*
D10*
X288868750Y-90487500D03*
D13*
X283368750Y-96537500D03*
X278368750Y-94287500D03*
X287498750Y-93787500D03*
D14*
X284638750Y-85687500D03*
D15*
X282098750Y-85687500D03*
%TD*%
D10*
%TO.C,SW47*%
X277868750Y-52387500D03*
D11*
X283368750Y-52387500D03*
D12*
X283368750Y-56087500D03*
D10*
X288868750Y-52387500D03*
D13*
X283368750Y-58437500D03*
X278368750Y-56187500D03*
X287498750Y-55687500D03*
D14*
X284638750Y-47587500D03*
D15*
X282098750Y-47587500D03*
%TD*%
D27*
%TO.C,A1*%
X179996250Y-25190000D03*
D28*
X180296250Y-28220000D03*
X185146250Y-28220000D03*
D27*
X185446250Y-25190000D03*
D29*
X173831250Y-25060000D03*
D30*
X173831250Y-27600000D03*
D31*
X173831250Y-30140000D03*
D30*
X173831250Y-32680000D03*
X173831250Y-35220000D03*
X173831250Y-37760000D03*
X173831250Y-40300000D03*
D31*
X173831250Y-42840000D03*
D30*
X173831250Y-45380000D03*
X173831250Y-47920000D03*
X173831250Y-50460000D03*
X173831250Y-53000000D03*
D31*
X173831250Y-55540000D03*
D30*
X173831250Y-58080000D03*
X173831250Y-60620000D03*
X173831250Y-63160000D03*
X173831250Y-65700000D03*
D31*
X173831250Y-68240000D03*
D30*
X173831250Y-70780000D03*
X173831250Y-73320000D03*
X191611250Y-73320000D03*
X191611250Y-70780000D03*
D32*
X191611250Y-68240000D03*
D30*
X191611250Y-65700000D03*
X191611250Y-63160000D03*
X191611250Y-60620000D03*
X191611250Y-58080000D03*
D32*
X191611250Y-55540000D03*
D30*
X191611250Y-53000000D03*
X191611250Y-50460000D03*
X191611250Y-47920000D03*
X191611250Y-45380000D03*
D32*
X191611250Y-42840000D03*
D30*
X191611250Y-40300000D03*
X191611250Y-37760000D03*
X191611250Y-35220000D03*
X191611250Y-32680000D03*
D32*
X191611250Y-30140000D03*
D30*
X191611250Y-27600000D03*
X191611250Y-25060000D03*
%TD*%
D10*
%TO.C,SW17*%
X75462500Y-71437500D03*
D11*
X80962500Y-71437500D03*
D12*
X80962500Y-75137500D03*
D10*
X86462500Y-71437500D03*
D13*
X80962500Y-77487500D03*
X75962500Y-75237500D03*
X85092500Y-74737500D03*
D14*
X82232500Y-66637500D03*
D15*
X79692500Y-66637500D03*
%TD*%
D10*
%TO.C,SW28*%
X151662500Y-90487500D03*
D11*
X157162500Y-90487500D03*
D12*
X157162500Y-94187500D03*
D10*
X162662500Y-90487500D03*
D13*
X157162500Y-96537500D03*
X152162500Y-94287500D03*
X161292500Y-93787500D03*
D14*
X158432500Y-85687500D03*
D15*
X155892500Y-85687500D03*
%TD*%
D10*
%TO.C,SW59*%
X315968750Y-90487500D03*
D11*
X321468750Y-90487500D03*
D12*
X321468750Y-94187500D03*
D10*
X326968750Y-90487500D03*
D13*
X321468750Y-96537500D03*
X316468750Y-94287500D03*
X325598750Y-93787500D03*
D14*
X322738750Y-85687500D03*
D15*
X320198750Y-85687500D03*
%TD*%
D19*
%TO.C,SW40*%
X242855750Y-101282500D03*
D20*
X242855750Y-116522500D03*
D10*
X249293750Y-109537500D03*
D21*
X249573750Y-113737500D03*
D22*
X249713750Y-109537500D03*
D19*
X254793750Y-109537500D03*
D22*
X259873750Y-109537500D03*
D10*
X260293750Y-109537500D03*
D19*
X266731750Y-101282500D03*
D20*
X266731750Y-116522500D03*
D23*
X251638745Y-106267496D03*
D13*
X252293750Y-105537500D03*
X254793750Y-103637500D03*
D24*
X257313521Y-104747484D03*
D13*
X257333750Y-104457500D03*
X259793750Y-105737500D03*
D14*
X253523750Y-114617500D03*
D15*
X256063750Y-114617500D03*
%TD*%
D10*
%TO.C,SW19*%
X113562500Y-71437500D03*
D11*
X119062500Y-71437500D03*
D12*
X119062500Y-75137500D03*
D10*
X124562500Y-71437500D03*
D13*
X119062500Y-77487500D03*
X114062500Y-75237500D03*
X123192500Y-74737500D03*
D14*
X120332500Y-66637500D03*
D15*
X117792500Y-66637500D03*
%TD*%
D18*
%TO.C,REF\u002A\u002A*%
X190500000Y-117500000D03*
%TD*%
D10*
%TO.C,SW16*%
X56412500Y-71437500D03*
D11*
X61912500Y-71437500D03*
D12*
X61912500Y-75137500D03*
D10*
X67412500Y-71437500D03*
D13*
X61912500Y-77487500D03*
X56912500Y-75237500D03*
X66042500Y-74737500D03*
D14*
X63182500Y-66637500D03*
D15*
X60642500Y-66637500D03*
%TD*%
D27*
%TO.C,A2*%
X218065000Y-25190000D03*
D28*
X218365000Y-28220000D03*
X223215000Y-28220000D03*
D27*
X223515000Y-25190000D03*
D29*
X211900000Y-25060000D03*
D30*
X211900000Y-27600000D03*
D31*
X211900000Y-30140000D03*
D30*
X211900000Y-32680000D03*
X211900000Y-35220000D03*
X211900000Y-37760000D03*
X211900000Y-40300000D03*
D31*
X211900000Y-42840000D03*
D30*
X211900000Y-45380000D03*
X211900000Y-47920000D03*
X211900000Y-50460000D03*
X211900000Y-53000000D03*
D31*
X211900000Y-55540000D03*
D30*
X211900000Y-58080000D03*
X211900000Y-60620000D03*
X211900000Y-63160000D03*
X211900000Y-65700000D03*
D31*
X211900000Y-68240000D03*
D30*
X211900000Y-70780000D03*
X211900000Y-73320000D03*
X229680000Y-73320000D03*
X229680000Y-70780000D03*
D32*
X229680000Y-68240000D03*
D30*
X229680000Y-65700000D03*
X229680000Y-63160000D03*
X229680000Y-60620000D03*
X229680000Y-58080000D03*
D32*
X229680000Y-55540000D03*
D30*
X229680000Y-53000000D03*
X229680000Y-50460000D03*
X229680000Y-47920000D03*
X229680000Y-45380000D03*
D32*
X229680000Y-42840000D03*
D30*
X229680000Y-40300000D03*
X229680000Y-37760000D03*
X229680000Y-35220000D03*
X229680000Y-32680000D03*
D32*
X229680000Y-30140000D03*
D30*
X229680000Y-27600000D03*
X229680000Y-25060000D03*
%TD*%
D10*
%TO.C,SW42*%
X258818750Y-52387500D03*
D11*
X264318750Y-52387500D03*
D12*
X264318750Y-56087500D03*
D10*
X269818750Y-52387500D03*
D13*
X264318750Y-58437500D03*
X259318750Y-56187500D03*
X268448750Y-55687500D03*
D14*
X265588750Y-47587500D03*
D15*
X263048750Y-47587500D03*
%TD*%
D10*
%TO.C,SW50*%
X296918750Y-109537500D03*
D11*
X302418750Y-109537500D03*
D12*
X302418750Y-113237500D03*
D10*
X307918750Y-109537500D03*
D13*
X302418750Y-115587500D03*
X297418750Y-113337500D03*
X306548750Y-112837500D03*
D14*
X303688750Y-104737500D03*
D15*
X301148750Y-104737500D03*
%TD*%
D10*
%TO.C,SW38*%
X239768750Y-71437500D03*
D11*
X245268750Y-71437500D03*
D12*
X245268750Y-75137500D03*
D10*
X250768750Y-71437500D03*
D13*
X245268750Y-77487500D03*
X240268750Y-75237500D03*
X249398750Y-74737500D03*
D14*
X246538750Y-66637500D03*
D15*
X243998750Y-66637500D03*
%TD*%
D10*
%TO.C,SW15*%
X37362500Y-71437500D03*
D11*
X42862500Y-71437500D03*
D12*
X42862500Y-75137500D03*
D10*
X48362500Y-71437500D03*
D13*
X42862500Y-77487500D03*
X37862500Y-75237500D03*
X46992500Y-74737500D03*
D14*
X44132500Y-66637500D03*
D15*
X41592500Y-66637500D03*
%TD*%
D10*
%TO.C,SW30*%
X56412500Y-109537500D03*
D11*
X61912500Y-109537500D03*
D12*
X61912500Y-113237500D03*
D10*
X67412500Y-109537500D03*
D13*
X61912500Y-115587500D03*
X56912500Y-113337500D03*
X66042500Y-112837500D03*
D14*
X63182500Y-104737500D03*
D15*
X60642500Y-104737500D03*
%TD*%
D25*
%TO.C,Brd1*%
X185120000Y-78176400D03*
X182580000Y-78176400D03*
X180040000Y-78176400D03*
X177500000Y-78176400D03*
%TD*%
D10*
%TO.C,SW45*%
X277868750Y-109537500D03*
D11*
X283368750Y-109537500D03*
D12*
X283368750Y-113237500D03*
D10*
X288868750Y-109537500D03*
D13*
X283368750Y-115587500D03*
X278368750Y-113337500D03*
X287498750Y-112837500D03*
D14*
X284638750Y-104737500D03*
D15*
X282098750Y-104737500D03*
%TD*%
D10*
%TO.C,SW69*%
X354068750Y-90487500D03*
D11*
X359568750Y-90487500D03*
D12*
X359568750Y-94187500D03*
D10*
X365068750Y-90487500D03*
D13*
X359568750Y-96537500D03*
X354568750Y-94287500D03*
X363698750Y-93787500D03*
D14*
X360838750Y-85687500D03*
D15*
X358298750Y-85687500D03*
%TD*%
D33*
%TO.C,D10*%
X90487500Y-61912500D03*
D30*
X90487500Y-54292500D03*
%TD*%
D33*
%TO.C,D23*%
X71437500Y-100012500D03*
D30*
X71437500Y-92392500D03*
%TD*%
D33*
%TO.C,D21*%
X166687500Y-80962500D03*
D30*
X166687500Y-73342500D03*
%TD*%
D33*
%TO.C,D27*%
X147637500Y-100012500D03*
D30*
X147637500Y-92392500D03*
%TD*%
D33*
%TO.C,D58*%
X330993750Y-42862500D03*
D30*
X330993750Y-35242500D03*
%TD*%
D33*
%TO.C,D11*%
X109537500Y-61912500D03*
D30*
X109537500Y-54292500D03*
%TD*%
D33*
%TO.C,D12*%
X128587500Y-61912500D03*
D30*
X128587500Y-54292500D03*
%TD*%
D33*
%TO.C,D70*%
X369093750Y-80962500D03*
D30*
X369093750Y-73342500D03*
%TD*%
D33*
%TO.C,D8*%
X52387500Y-61912500D03*
D30*
X52387500Y-54292500D03*
%TD*%
D34*
%TO.C,R4*%
X226525000Y-43625000D03*
X226525000Y-45275000D03*
%TD*%
D33*
%TO.C,D15*%
X52387500Y-80962500D03*
D30*
X52387500Y-73342500D03*
%TD*%
D33*
%TO.C,D43*%
X273843750Y-42862500D03*
D30*
X273843750Y-35242500D03*
%TD*%
D33*
%TO.C,D13*%
X147637500Y-61912500D03*
D30*
X147637500Y-54292500D03*
%TD*%
D33*
%TO.C,D25*%
X109537500Y-100012500D03*
D30*
X109537500Y-92392500D03*
%TD*%
D34*
%TO.C,R1*%
X188118750Y-38831250D03*
X188118750Y-40481250D03*
%TD*%
D33*
%TO.C,D14*%
X166687500Y-61912500D03*
D30*
X166687500Y-54292500D03*
%TD*%
D33*
%TO.C,D51*%
X292893750Y-100012500D03*
D30*
X292893750Y-92392500D03*
%TD*%
D33*
%TO.C,D46*%
X273843750Y-100012500D03*
D30*
X273843750Y-92392500D03*
%TD*%
D33*
%TO.C,D26*%
X128587500Y-100012500D03*
D30*
X128587500Y-92392500D03*
%TD*%
D33*
%TO.C,D19*%
X128587500Y-80962500D03*
D30*
X128587500Y-73342500D03*
%TD*%
D33*
%TO.C,D16*%
X71437500Y-80962500D03*
D30*
X71437500Y-73342500D03*
%TD*%
D33*
%TO.C,D28*%
X166687500Y-100012500D03*
D30*
X166687500Y-92392500D03*
%TD*%
D33*
%TO.C,D54*%
X311943750Y-61912500D03*
D30*
X311943750Y-54292500D03*
%TD*%
D33*
%TO.C,D49*%
X292893750Y-61912500D03*
D30*
X292893750Y-54292500D03*
%TD*%
D33*
%TO.C,D60*%
X330993750Y-80962500D03*
D30*
X330993750Y-73342500D03*
%TD*%
D33*
%TO.C,D57*%
X330993750Y-119062500D03*
D30*
X330993750Y-111442500D03*
%TD*%
D33*
%TO.C,D31*%
X90487500Y-119062500D03*
D30*
X90487500Y-111442500D03*
%TD*%
D33*
%TO.C,D3*%
X90487500Y-42862500D03*
D30*
X90487500Y-35242500D03*
%TD*%
D33*
%TO.C,D18*%
X109537500Y-80962500D03*
D30*
X109537500Y-73342500D03*
%TD*%
D33*
%TO.C,D64*%
X350043750Y-61912500D03*
D30*
X350043750Y-54292500D03*
%TD*%
D33*
%TO.C,D1*%
X52387500Y-42862500D03*
D30*
X52387500Y-35242500D03*
%TD*%
D33*
%TO.C,D29*%
X52387500Y-119062500D03*
D30*
X52387500Y-111442500D03*
%TD*%
D33*
%TO.C,D5*%
X128587500Y-42862500D03*
D30*
X128587500Y-35242500D03*
%TD*%
D33*
%TO.C,D63*%
X350043750Y-42862500D03*
D30*
X350043750Y-35242500D03*
%TD*%
D33*
%TO.C,D34*%
X166687500Y-119062500D03*
D30*
X166687500Y-111442500D03*
%TD*%
D33*
%TO.C,D44*%
X273843750Y-61912500D03*
D30*
X273843750Y-54292500D03*
%TD*%
D34*
%TO.C,R3*%
X226350000Y-38275000D03*
X226350000Y-39925000D03*
%TD*%
D33*
%TO.C,D71*%
X369093750Y-100012500D03*
D30*
X369093750Y-92392500D03*
%TD*%
D33*
%TO.C,D38*%
X254793750Y-42862500D03*
D30*
X254793750Y-35242500D03*
%TD*%
D33*
%TO.C,D42*%
X273843750Y-119062500D03*
D30*
X273843750Y-111442500D03*
%TD*%
D33*
%TO.C,D52*%
X311943750Y-119062500D03*
D30*
X311943750Y-111442500D03*
%TD*%
D33*
%TO.C,D55*%
X311943750Y-80962500D03*
D30*
X311943750Y-73342500D03*
%TD*%
D33*
%TO.C,D17*%
X90487500Y-80962500D03*
D30*
X90487500Y-73342500D03*
%TD*%
D33*
%TO.C,D67*%
X369093750Y-119062500D03*
D30*
X369093750Y-111442500D03*
%TD*%
D33*
%TO.C,D40*%
X254793750Y-80962500D03*
D30*
X254793750Y-73342500D03*
%TD*%
D33*
%TO.C,D62*%
X350043750Y-119062500D03*
D30*
X350043750Y-111442500D03*
%TD*%
D33*
%TO.C,D47*%
X292893750Y-119062500D03*
D30*
X292893750Y-111442500D03*
%TD*%
D33*
%TO.C,D45*%
X273843750Y-80962500D03*
D30*
X273843750Y-73342500D03*
%TD*%
D33*
%TO.C,D32*%
X109537500Y-119062500D03*
D30*
X109537500Y-111442500D03*
%TD*%
D33*
%TO.C,D22*%
X52387500Y-100012500D03*
D30*
X52387500Y-92392500D03*
%TD*%
D33*
%TO.C,D9*%
X71437500Y-61912500D03*
D30*
X71437500Y-54292500D03*
%TD*%
D33*
%TO.C,D59*%
X330993750Y-61912500D03*
D30*
X330993750Y-54292500D03*
%TD*%
D33*
%TO.C,D68*%
X369093750Y-42862500D03*
D30*
X369093750Y-35242500D03*
%TD*%
D33*
%TO.C,D33*%
X128587500Y-119062500D03*
D30*
X128587500Y-111442500D03*
%TD*%
D33*
%TO.C,D30*%
X71437500Y-119062500D03*
D30*
X71437500Y-111442500D03*
%TD*%
D33*
%TO.C,D53*%
X311943750Y-42862500D03*
D30*
X311943750Y-35242500D03*
%TD*%
D33*
%TO.C,D48*%
X292893750Y-42862500D03*
D30*
X292893750Y-35242500D03*
%TD*%
D33*
%TO.C,D61*%
X330993750Y-100012500D03*
D30*
X330993750Y-92392500D03*
%TD*%
D33*
%TO.C,D2*%
X71437500Y-42862500D03*
D30*
X71437500Y-35242500D03*
%TD*%
D33*
%TO.C,D65*%
X350043750Y-80962500D03*
D30*
X350043750Y-73342500D03*
%TD*%
D33*
%TO.C,D56*%
X311943750Y-100012500D03*
D30*
X311943750Y-92392500D03*
%TD*%
D33*
%TO.C,D24*%
X90487500Y-100012500D03*
D30*
X90487500Y-92392500D03*
%TD*%
D34*
%TO.C,R2*%
X188118750Y-43593750D03*
X188118750Y-45243750D03*
%TD*%
D33*
%TO.C,D69*%
X369093750Y-61912500D03*
D30*
X369093750Y-54292500D03*
%TD*%
D33*
%TO.C,D41*%
X254793750Y-100012500D03*
D30*
X254793750Y-92392500D03*
%TD*%
D33*
%TO.C,D4*%
X109537500Y-42862500D03*
D30*
X109537500Y-35242500D03*
%TD*%
D33*
%TO.C,D39*%
X254793750Y-61912500D03*
D30*
X254793750Y-54292500D03*
%TD*%
D33*
%TO.C,D7*%
X166687500Y-42862500D03*
D30*
X166687500Y-35242500D03*
%TD*%
D33*
%TO.C,D50*%
X292893750Y-80962500D03*
D30*
X292893750Y-73342500D03*
%TD*%
D33*
%TO.C,D66*%
X350043750Y-100012500D03*
D30*
X350043750Y-92392500D03*
%TD*%
D33*
%TO.C,D6*%
X147637500Y-42862500D03*
D30*
X147637500Y-35242500D03*
%TD*%
D33*
%TO.C,D20*%
X147637500Y-80962500D03*
D30*
X147637500Y-73342500D03*
%TD*%
M02*
