M48
; DRILL file {KiCad 9.0.3} date 2025-07-31T16:32:49-0700
; FORMAT={-:-/ absolute / metric / decimal}
; #@! TF.CreationDate,2025-07-31T16:32:49-07:00
; #@! TF.GenerationSoftware,Kicad,Pcbnew,9.0.3
; #@! TF.FileFunction,NonPlated,1,2,NPTH
FMAT,2
METRIC
; #@! TA.AperFunction,NonPlated,NPTH,ComponentDrill
T1C0.800
; #@! TA.AperFunction,NonPlated,NPTH,ComponentDrill
T2C1.200
; #@! TA.AperFunction,NonPlated,NPTH,ComponentDrill
T3C1.700
; #@! TA.AperFunction,NonPlated,NPTH,ComponentDrill
T4C1.750
; #@! TA.AperFunction,NonPlated,NPTH,ComponentDrill
T5C1.850
; #@! TA.AperFunction,NonPlated,NPTH,ComponentDrill
T6C2.200
; #@! TA.AperFunction,NonPlated,NPTH,ComponentDrill
T7C2.300
; #@! TA.AperFunction,NonPlated,NPTH,ComponentDrill
T8C3.048
; #@! TA.AperFunction,NonPlated,NPTH,ComponentDrill
T9C3.200
; #@! TA.AperFunction,NonPlated,NPTH,ComponentDrill
T10C3.988
; #@! TA.AperFunction,NonPlated,NPTH,ComponentDrill
T11C6.250
%
G90
G05
T1
X185.881Y-95.331
X192.881Y-95.331
X209.55Y-95.325
X216.55Y-95.325
T2
X142.417Y-113.737
X249.574Y-113.737
T3
X37.362Y-33.337
X37.362Y-52.387
X37.362Y-71.438
X37.362Y-90.487
X37.362Y-109.537
X48.362Y-33.337
X48.362Y-52.387
X48.362Y-71.438
X48.362Y-90.487
X48.362Y-109.537
X56.412Y-33.337
X56.412Y-52.387
X56.412Y-71.438
X56.412Y-90.487
X56.412Y-109.537
X67.412Y-33.337
X67.412Y-52.387
X67.412Y-71.438
X67.412Y-90.487
X67.412Y-109.537
X75.462Y-33.337
X75.462Y-52.387
X75.462Y-71.438
X75.462Y-90.487
X75.462Y-109.537
X86.462Y-33.337
X86.462Y-52.387
X86.462Y-71.438
X86.462Y-90.487
X86.462Y-109.537
X94.512Y-33.337
X94.512Y-52.387
X94.512Y-71.438
X94.512Y-90.487
X94.512Y-109.537
X105.512Y-33.337
X105.512Y-52.387
X105.512Y-71.438
X105.512Y-90.487
X105.512Y-109.537
X113.562Y-33.337
X113.562Y-52.387
X113.562Y-71.438
X113.562Y-90.487
X113.562Y-109.537
X124.562Y-33.337
X124.562Y-52.387
X124.562Y-71.438
X124.562Y-90.487
X124.562Y-109.537
X132.612Y-33.337
X132.612Y-52.387
X132.612Y-71.438
X132.612Y-90.487
X142.137Y-109.537
X143.612Y-33.337
X143.612Y-52.387
X143.612Y-71.438
X143.612Y-90.487
X151.662Y-33.337
X151.662Y-52.387
X151.662Y-71.438
X151.662Y-90.487
X153.137Y-109.537
X162.662Y-33.337
X162.662Y-52.387
X162.662Y-71.438
X162.662Y-90.487
X239.769Y-33.337
X239.769Y-52.387
X239.769Y-71.438
X239.769Y-90.487
X249.294Y-109.537
X250.769Y-33.337
X250.769Y-52.387
X250.769Y-71.438
X250.769Y-90.487
X258.819Y-33.337
X258.819Y-52.387
X258.819Y-71.438
X258.819Y-90.487
X260.294Y-109.537
X269.819Y-33.337
X269.819Y-52.387
X269.819Y-71.438
X269.819Y-90.487
X277.869Y-33.337
X277.869Y-52.387
X277.869Y-71.438
X277.869Y-90.487
X277.869Y-109.537
X288.869Y-33.337
X288.869Y-52.387
X288.869Y-71.438
X288.869Y-90.487
X288.869Y-109.537
X296.85Y-52.387
X296.919Y-33.337
X296.919Y-71.438
X296.919Y-90.487
X296.919Y-109.537
X307.85Y-52.387
X307.919Y-33.337
X307.919Y-71.438
X307.919Y-90.487
X307.919Y-109.537
X315.969Y-33.337
X315.969Y-52.387
X315.969Y-71.438
X315.969Y-90.487
X315.969Y-109.537
X326.969Y-33.337
X326.969Y-52.387
X326.969Y-71.438
X326.969Y-90.487
X326.969Y-109.537
X335.019Y-33.337
X335.019Y-52.387
X335.019Y-71.438
X335.019Y-90.487
X335.019Y-109.537
X346.019Y-33.337
X346.019Y-52.387
X346.019Y-71.438
X346.019Y-90.487
X346.019Y-109.537
X354.069Y-33.337
X354.069Y-52.387
X354.069Y-71.438
X354.069Y-90.487
X354.069Y-109.537
X365.069Y-33.337
X365.069Y-52.387
X365.069Y-71.438
X365.069Y-90.487
X365.069Y-109.537
T4
X142.558Y-109.537
X152.718Y-109.537
X249.714Y-109.537
X259.874Y-109.537
T5
X180.296Y-28.22
X185.146Y-28.22
X218.365Y-28.22
X223.215Y-28.22
T6
X179.996Y-25.19
X185.446Y-25.19
X218.065Y-25.19
X223.515Y-25.19
T7
X42.862Y-37.038
X42.862Y-56.087
X42.862Y-75.138
X42.862Y-94.188
X42.862Y-113.237
X61.912Y-37.038
X61.912Y-56.087
X61.912Y-75.138
X61.912Y-94.188
X61.912Y-113.237
X80.962Y-37.038
X80.962Y-56.087
X80.962Y-75.138
X80.962Y-94.188
X80.962Y-113.237
X100.012Y-37.038
X100.012Y-56.087
X100.012Y-75.138
X100.012Y-94.188
X100.012Y-113.237
X119.062Y-37.038
X119.062Y-56.087
X119.062Y-75.138
X119.062Y-94.188
X119.062Y-113.237
X138.112Y-37.038
X138.112Y-56.087
X138.112Y-75.138
X138.112Y-94.188
X157.162Y-37.038
X157.162Y-56.087
X157.162Y-75.138
X157.162Y-94.188
X245.269Y-37.038
X245.269Y-56.087
X245.269Y-75.138
X245.269Y-94.188
X264.319Y-37.038
X264.319Y-56.087
X264.319Y-75.138
X264.319Y-94.188
X283.369Y-37.038
X283.369Y-56.087
X283.369Y-75.138
X283.369Y-94.188
X283.369Y-113.237
X302.35Y-56.087
X302.419Y-37.038
X302.419Y-75.138
X302.419Y-94.188
X302.419Y-113.237
X321.469Y-37.038
X321.469Y-56.087
X321.469Y-75.138
X321.469Y-94.188
X321.469Y-113.237
X340.519Y-37.038
X340.519Y-56.087
X340.519Y-75.138
X340.519Y-94.188
X340.519Y-113.237
X359.569Y-37.038
X359.569Y-56.087
X359.569Y-75.138
X359.569Y-94.188
X359.569Y-113.237
T8
X135.7Y-116.522
X159.576Y-116.522
X242.856Y-116.522
X266.732Y-116.522
T9
X28.575Y-26.194
X28.575Y-71.438
X28.575Y-116.681
X178.594Y-100.012
X190.5Y-117.5
X211.931Y-117.525
X226.219Y-100.012
X376.238Y-26.194
X376.238Y-71.934
X376.238Y-116.681
T10
X135.7Y-101.282
X147.637Y-109.537
X159.576Y-101.282
X242.856Y-101.282
X254.794Y-109.537
X266.732Y-101.282
T11
X42.862Y-33.337
X42.862Y-52.387
X42.862Y-71.438
X42.862Y-90.487
X42.862Y-109.537
X61.912Y-33.337
X61.912Y-52.387
X61.912Y-71.438
X61.912Y-90.487
X61.912Y-109.537
X80.962Y-33.337
X80.962Y-52.387
X80.962Y-71.438
X80.962Y-90.487
X80.962Y-109.537
X100.012Y-33.337
X100.012Y-52.387
X100.012Y-71.438
X100.012Y-90.487
X100.012Y-109.537
X119.062Y-33.337
X119.062Y-52.387
X119.062Y-71.438
X119.062Y-90.487
X119.062Y-109.537
X138.112Y-33.337
X138.112Y-52.387
X138.112Y-71.438
X138.112Y-90.487
X157.162Y-33.337
X157.162Y-52.387
X157.162Y-71.438
X157.162Y-90.487
X245.269Y-33.337
X245.269Y-52.387
X245.269Y-71.438
X245.269Y-90.487
X264.319Y-33.337
X264.319Y-52.387
X264.319Y-71.438
X264.319Y-90.487
X283.369Y-33.337
X283.369Y-52.387
X283.369Y-71.438
X283.369Y-90.487
X283.369Y-109.537
X302.35Y-52.387
X302.419Y-33.337
X302.419Y-71.438
X302.419Y-90.487
X302.419Y-109.537
X321.469Y-33.337
X321.469Y-52.387
X321.469Y-71.438
X321.469Y-90.487
X321.469Y-109.537
X340.519Y-33.337
X340.519Y-52.387
X340.519Y-71.438
X340.519Y-90.487
X340.519Y-109.537
X359.569Y-33.337
X359.569Y-52.387
X359.569Y-71.438
X359.569Y-90.487
X359.569Y-109.537
M30
