M48
; DRILL file {KiCad 9.0.3} date 2025-07-31T16:32:49-0700
; FORMAT={-:-/ absolute / metric / decimal}
; #@! TF.CreationDate,2025-07-31T16:32:49-07:00
; #@! TF.GenerationSoftware,Kicad,Pcbnew,9.0.3
; #@! TF.FileFunction,Plated,1,2,PTH
FMAT,2
METRIC
; #@! TA.AperFunction,Plated,PTH,ViaDrill
T1C0.300
; #@! TA.AperFunction,Plated,PTH,ComponentDrill
T2C0.800
; #@! TA.AperFunction,Plated,PTH,ComponentDrill
T3C0.900
; #@! TA.AperFunction,Plated,PTH,ComponentDrill
T4C0.991
; #@! TA.AperFunction,Plated,PTH,ComponentDrill
T5C1.000
; #@! TA.AperFunction,Plated,PTH,ComponentDrill
T6C1.100
; #@! TA.AperFunction,Plated,PTH,ComponentDrill
T7C1.470
%
G90
G05
T1
X58.436Y-45.35
X76.775Y-48.875
X97.65Y-60.8
X115.488Y-63.1
X134.538Y-64.5
X153.686Y-67.95
X182.5Y-74.475
X183.362Y-86.638
X188.119Y-38.831
X189.45Y-41.081
X227.575Y-39.225
X227.625Y-40.65
X232.225Y-39.075
X232.275Y-41.65
X232.37Y-34.028
X232.4Y-36.575
X232.45Y-31.325
X237.45Y-64.15
X237.45Y-65.122
X237.45Y-66.075
X237.45Y-67.875
X237.475Y-60.55
X241.095Y-61.225
X242.396Y-61.179
X261.375Y-63.3
X280.5Y-64.15
X299.475Y-64.475
X318.593Y-65.125
X337.725Y-65.275
T2
X52.387Y-35.242
X52.387Y-42.862
X52.387Y-54.292
X52.387Y-61.912
X52.387Y-73.343
X52.387Y-80.962
X52.387Y-92.392
X52.387Y-100.012
X52.387Y-111.442
X52.387Y-119.062
X71.438Y-35.242
X71.438Y-42.862
X71.438Y-54.292
X71.438Y-61.912
X71.438Y-73.343
X71.438Y-80.962
X71.438Y-92.392
X71.438Y-100.012
X71.438Y-111.442
X71.438Y-119.062
X90.487Y-35.242
X90.487Y-42.862
X90.487Y-54.292
X90.487Y-61.912
X90.487Y-73.343
X90.487Y-80.962
X90.487Y-92.392
X90.487Y-100.012
X90.487Y-111.442
X90.487Y-119.062
X109.537Y-35.242
X109.537Y-42.862
X109.537Y-54.292
X109.537Y-61.912
X109.537Y-73.343
X109.537Y-80.962
X109.537Y-92.392
X109.537Y-100.012
X109.537Y-111.442
X109.537Y-119.062
X128.588Y-35.242
X128.588Y-42.862
X128.588Y-54.292
X128.588Y-61.912
X128.588Y-73.343
X128.588Y-80.962
X128.588Y-92.392
X128.588Y-100.012
X128.588Y-111.442
X128.588Y-119.062
X147.637Y-35.242
X147.637Y-42.862
X147.637Y-54.292
X147.637Y-61.912
X147.637Y-73.343
X147.637Y-80.962
X147.637Y-92.392
X147.637Y-100.012
X166.688Y-35.242
X166.688Y-42.862
X166.688Y-54.292
X166.688Y-61.912
X166.688Y-73.343
X166.688Y-80.962
X166.688Y-92.392
X166.688Y-100.012
X166.688Y-111.442
X166.688Y-119.062
X254.794Y-35.242
X254.794Y-42.862
X254.794Y-54.292
X254.794Y-61.912
X254.794Y-73.343
X254.794Y-80.962
X254.794Y-92.392
X254.794Y-100.012
X273.844Y-35.242
X273.844Y-42.862
X273.844Y-54.292
X273.844Y-61.912
X273.844Y-73.343
X273.844Y-80.962
X273.844Y-92.392
X273.844Y-100.012
X273.844Y-111.442
X273.844Y-119.062
X292.894Y-35.242
X292.894Y-42.862
X292.894Y-54.292
X292.894Y-61.912
X292.894Y-73.343
X292.894Y-80.962
X292.894Y-92.392
X292.894Y-100.012
X292.894Y-111.442
X292.894Y-119.062
X311.944Y-35.242
X311.944Y-42.862
X311.944Y-54.292
X311.944Y-61.912
X311.944Y-73.343
X311.944Y-80.962
X311.944Y-92.392
X311.944Y-100.012
X311.944Y-111.442
X311.944Y-119.062
X330.994Y-35.242
X330.994Y-42.862
X330.994Y-54.292
X330.994Y-61.912
X330.994Y-73.343
X330.994Y-80.962
X330.994Y-92.392
X330.994Y-100.012
X330.994Y-111.442
X330.994Y-119.062
X350.044Y-35.242
X350.044Y-42.862
X350.044Y-54.292
X350.044Y-61.912
X350.044Y-73.343
X350.044Y-80.962
X350.044Y-92.392
X350.044Y-100.012
X350.044Y-111.442
X350.044Y-119.062
X369.094Y-35.242
X369.094Y-42.862
X369.094Y-54.292
X369.094Y-61.912
X369.094Y-73.343
X369.094Y-80.962
X369.094Y-92.392
X369.094Y-100.012
X369.094Y-111.442
X369.094Y-119.062
T4
X41.593Y-28.537
X41.593Y-47.587
X41.593Y-66.638
X41.593Y-85.688
X41.593Y-104.737
X44.133Y-28.537
X44.133Y-47.587
X44.133Y-66.638
X44.133Y-85.688
X44.133Y-104.737
X60.642Y-28.537
X60.642Y-47.587
X60.642Y-66.638
X60.642Y-85.688
X60.642Y-104.737
X63.182Y-28.537
X63.182Y-47.587
X63.182Y-66.638
X63.182Y-85.688
X63.182Y-104.737
X79.692Y-28.537
X79.692Y-47.587
X79.692Y-66.638
X79.692Y-85.688
X79.692Y-104.737
X82.233Y-28.537
X82.233Y-47.587
X82.233Y-66.638
X82.233Y-85.688
X82.233Y-104.737
X98.742Y-28.537
X98.742Y-47.587
X98.742Y-66.638
X98.742Y-85.688
X98.742Y-104.737
X101.282Y-28.537
X101.282Y-47.587
X101.282Y-66.638
X101.282Y-85.688
X101.282Y-104.737
X117.792Y-28.537
X117.792Y-47.587
X117.792Y-66.638
X117.792Y-85.688
X117.792Y-104.737
X120.332Y-28.537
X120.332Y-47.587
X120.332Y-66.638
X120.332Y-85.688
X120.332Y-104.737
X136.843Y-28.537
X136.843Y-47.587
X136.843Y-66.638
X136.843Y-85.688
X139.382Y-28.537
X139.382Y-47.587
X139.382Y-66.638
X139.382Y-85.688
X146.368Y-114.617
X148.907Y-114.617
X155.892Y-28.537
X155.892Y-47.587
X155.892Y-66.638
X155.892Y-85.688
X158.433Y-28.537
X158.433Y-47.587
X158.433Y-66.638
X158.433Y-85.688
X243.999Y-28.537
X243.999Y-47.587
X243.999Y-66.638
X243.999Y-85.688
X246.539Y-28.537
X246.539Y-47.587
X246.539Y-66.638
X246.539Y-85.688
X253.524Y-114.617
X256.064Y-114.617
X263.049Y-28.537
X263.049Y-47.587
X263.049Y-66.638
X263.049Y-85.688
X265.589Y-28.537
X265.589Y-47.587
X265.589Y-66.638
X265.589Y-85.688
X282.099Y-28.537
X282.099Y-47.587
X282.099Y-66.638
X282.099Y-85.688
X282.099Y-104.737
X284.639Y-28.537
X284.639Y-47.587
X284.639Y-66.638
X284.639Y-85.688
X284.639Y-104.737
X301.08Y-47.587
X301.149Y-28.537
X301.149Y-66.638
X301.149Y-85.688
X301.149Y-104.737
X303.62Y-47.587
X303.689Y-28.537
X303.689Y-66.638
X303.689Y-85.688
X303.689Y-104.737
X320.199Y-28.537
X320.199Y-47.587
X320.199Y-66.638
X320.199Y-85.688
X320.199Y-104.737
X322.739Y-28.537
X322.739Y-47.587
X322.739Y-66.638
X322.739Y-85.688
X322.739Y-104.737
X339.249Y-28.537
X339.249Y-47.587
X339.249Y-66.638
X339.249Y-85.688
X339.249Y-104.737
X341.789Y-28.537
X341.789Y-47.587
X341.789Y-66.638
X341.789Y-85.688
X341.789Y-104.737
X358.299Y-28.537
X358.299Y-47.587
X358.299Y-66.638
X358.299Y-85.688
X358.299Y-104.737
X360.839Y-28.537
X360.839Y-47.587
X360.839Y-66.638
X360.839Y-85.688
X360.839Y-104.737
T5
X173.831Y-25.06
X173.831Y-27.6
X173.831Y-30.14
X173.831Y-32.68
X173.831Y-35.22
X173.831Y-37.76
X173.831Y-40.3
X173.831Y-42.84
X173.831Y-45.38
X173.831Y-47.92
X173.831Y-50.46
X173.831Y-53.0
X173.831Y-55.54
X173.831Y-58.08
X173.831Y-60.62
X173.831Y-63.16
X173.831Y-65.7
X173.831Y-68.24
X173.831Y-70.78
X173.831Y-73.32
X177.5Y-78.176
X180.04Y-78.176
X182.58Y-78.176
X185.12Y-78.176
X191.611Y-25.06
X191.611Y-27.6
X191.611Y-30.14
X191.611Y-32.68
X191.611Y-35.22
X191.611Y-37.76
X191.611Y-40.3
X191.611Y-42.84
X191.611Y-45.38
X191.611Y-47.92
X191.611Y-50.46
X191.611Y-53.0
X191.611Y-55.54
X191.611Y-58.08
X191.611Y-60.62
X191.611Y-63.16
X191.611Y-65.7
X191.611Y-68.24
X191.611Y-70.78
X191.611Y-73.32
X211.9Y-25.06
X211.9Y-27.6
X211.9Y-30.14
X211.9Y-32.68
X211.9Y-35.22
X211.9Y-37.76
X211.9Y-40.3
X211.9Y-42.84
X211.9Y-45.38
X211.9Y-47.92
X211.9Y-50.46
X211.9Y-53.0
X211.9Y-55.54
X211.9Y-58.08
X211.9Y-60.62
X211.9Y-63.16
X211.9Y-65.7
X211.9Y-68.24
X211.9Y-70.78
X211.9Y-73.32
X217.5Y-78.225
X220.04Y-78.225
X222.58Y-78.225
X225.12Y-78.225
X229.68Y-25.06
X229.68Y-27.6
X229.68Y-30.14
X229.68Y-32.68
X229.68Y-35.22
X229.68Y-37.76
X229.68Y-40.3
X229.68Y-42.84
X229.68Y-45.38
X229.68Y-47.92
X229.68Y-50.46
X229.68Y-53.0
X229.68Y-55.54
X229.68Y-58.08
X229.68Y-60.62
X229.68Y-63.16
X229.68Y-65.7
X229.68Y-68.24
X229.68Y-70.78
X229.68Y-73.32
T6
X179.237Y-107.419
X179.237Y-111.919
X185.737Y-107.419
X185.737Y-111.919
T7
X37.862Y-37.137
X37.862Y-56.188
X37.862Y-75.237
X37.862Y-94.287
X37.862Y-113.337
X42.862Y-39.387
X42.862Y-58.438
X42.862Y-77.487
X42.862Y-96.537
X42.862Y-115.587
X46.992Y-36.637
X46.992Y-55.688
X46.992Y-74.737
X46.992Y-93.787
X46.992Y-112.837
X56.912Y-37.137
X56.912Y-56.188
X56.912Y-75.237
X56.912Y-94.287
X56.912Y-113.337
X61.912Y-39.387
X61.912Y-58.438
X61.912Y-77.487
X61.912Y-96.537
X61.912Y-115.587
X66.043Y-36.637
X66.043Y-55.688
X66.043Y-74.737
X66.043Y-93.787
X66.043Y-112.837
X75.962Y-37.137
X75.962Y-56.188
X75.962Y-75.237
X75.962Y-94.287
X75.962Y-113.337
X80.962Y-39.387
X80.962Y-58.438
X80.962Y-77.487
X80.962Y-96.537
X80.962Y-115.587
X85.093Y-36.637
X85.093Y-55.688
X85.093Y-74.737
X85.093Y-93.787
X85.093Y-112.837
X95.012Y-37.137
X95.012Y-56.188
X95.012Y-75.237
X95.012Y-94.287
X95.012Y-113.337
X100.012Y-39.387
X100.012Y-58.438
X100.012Y-77.487
X100.012Y-96.537
X100.012Y-115.587
X104.142Y-36.637
X104.142Y-55.688
X104.142Y-74.737
X104.142Y-93.787
X104.142Y-112.837
X114.062Y-37.137
X114.062Y-56.188
X114.062Y-75.237
X114.062Y-94.287
X114.062Y-113.337
X119.062Y-39.387
X119.062Y-58.438
X119.062Y-77.487
X119.062Y-96.537
X119.062Y-115.587
X123.192Y-36.637
X123.192Y-55.688
X123.192Y-74.737
X123.192Y-93.787
X123.192Y-112.837
X133.112Y-37.137
X133.112Y-56.188
X133.112Y-75.237
X133.112Y-94.287
X138.112Y-39.387
X138.112Y-58.438
X138.112Y-77.487
X138.112Y-96.537
X142.243Y-36.637
X142.243Y-55.688
X142.243Y-74.737
X142.243Y-93.787
X143.827Y-106.997
X145.137Y-105.537
X147.637Y-103.637
X150.137Y-105.037
X150.177Y-104.457
X152.162Y-37.137
X152.162Y-56.188
X152.162Y-75.237
X152.162Y-94.287
X152.637Y-105.737
X157.162Y-39.387
X157.162Y-58.438
X157.162Y-77.487
X157.162Y-96.537
X161.292Y-36.637
X161.292Y-55.688
X161.292Y-74.737
X161.292Y-93.787
X240.269Y-37.137
X240.269Y-56.188
X240.269Y-75.237
X240.269Y-94.287
X245.269Y-39.387
X245.269Y-58.438
X245.269Y-77.487
X245.269Y-96.537
X249.399Y-36.637
X249.399Y-55.688
X249.399Y-74.737
X249.399Y-93.787
X250.984Y-106.997
X252.294Y-105.537
X254.794Y-103.637
X257.294Y-105.037
X257.334Y-104.457
X259.319Y-37.137
X259.319Y-56.188
X259.319Y-75.237
X259.319Y-94.287
X259.794Y-105.737
X264.319Y-39.387
X264.319Y-58.438
X264.319Y-77.487
X264.319Y-96.537
X268.449Y-36.637
X268.449Y-55.688
X268.449Y-74.737
X268.449Y-93.787
X278.369Y-37.137
X278.369Y-56.188
X278.369Y-75.237
X278.369Y-94.287
X278.369Y-113.337
X283.369Y-39.387
X283.369Y-58.438
X283.369Y-77.487
X283.369Y-96.537
X283.369Y-115.587
X287.499Y-36.637
X287.499Y-55.688
X287.499Y-74.737
X287.499Y-93.787
X287.499Y-112.837
X297.35Y-56.188
X297.419Y-37.137
X297.419Y-75.237
X297.419Y-94.287
X297.419Y-113.337
X302.35Y-58.438
X302.419Y-39.387
X302.419Y-77.487
X302.419Y-96.537
X302.419Y-115.587
X306.48Y-55.688
X306.549Y-36.637
X306.549Y-74.737
X306.549Y-93.787
X306.549Y-112.837
X316.469Y-37.137
X316.469Y-56.188
X316.469Y-75.237
X316.469Y-94.287
X316.469Y-113.337
X321.469Y-39.387
X321.469Y-58.438
X321.469Y-77.487
X321.469Y-96.537
X321.469Y-115.587
X325.599Y-36.637
X325.599Y-55.688
X325.599Y-74.737
X325.599Y-93.787
X325.599Y-112.837
X335.519Y-37.137
X335.519Y-56.188
X335.519Y-75.237
X335.519Y-94.287
X335.519Y-113.337
X340.519Y-39.387
X340.519Y-58.438
X340.519Y-77.487
X340.519Y-96.537
X340.519Y-115.587
X344.649Y-36.637
X344.649Y-55.688
X344.649Y-74.737
X344.649Y-93.787
X344.649Y-112.837
X354.569Y-37.137
X354.569Y-56.188
X354.569Y-75.237
X354.569Y-94.287
X354.569Y-113.337
X359.569Y-39.387
X359.569Y-58.438
X359.569Y-77.487
X359.569Y-96.537
X359.569Y-115.587
X363.699Y-36.637
X363.699Y-55.688
X363.699Y-74.737
X363.699Y-93.787
X363.699Y-112.837
T3
X183.381Y-93.031G85X182.981Y-93.031
G05
X184.481Y-97.631G85X184.081Y-97.631
G05
X188.481Y-97.631G85X188.081Y-97.631
G05
X191.481Y-97.631G85X191.081Y-97.631
G05
X210.95Y-93.025G85X211.35Y-93.025
G05
X213.95Y-93.025G85X214.35Y-93.025
G05
X217.95Y-93.025G85X218.35Y-93.025
G05
X219.05Y-97.625G85X219.45Y-97.625
G05
M30
