%TF.GenerationSoftware,KiCad,Pcbnew,9.0.3*%
%TF.CreationDate,2025-07-31T16:32:47-07:00*%
%TF.ProjectId,fortissimo-ii,666f7274-6973-4736-996d-6f2d69692e6b,rev?*%
%TF.SameCoordinates,Original*%
%TF.FileFunction,Soldermask,Top*%
%TF.FilePolarity,Negative*%
%FSLAX46Y46*%
G04 Gerber Fmt 4.6, Leading zero omitted, Abs format (unit mm)*
G04 Created by KiCad (PCBNEW 9.0.3) date 2025-07-31 16:32:47*
%MOMM*%
%LPD*%
G01*
G04 APERTURE LIST*
G04 Aperture macros list*
%AMRoundRect*
0 Rectangle with rounded corners*
0 $1 Rounding radius*
0 $2 $3 $4 $5 $6 $7 $8 $9 X,Y pos of 4 corners*
0 Add a 4 corners polygon primitive as box body*
4,1,4,$2,$3,$4,$5,$6,$7,$8,$9,$2,$3,0*
0 Add four circle primitives for the rounded corners*
1,1,$1+$1,$2,$3*
1,1,$1+$1,$4,$5*
1,1,$1+$1,$6,$7*
1,1,$1+$1,$8,$9*
0 Add four rect primitives between the rounded corners*
20,1,$1+$1,$2,$3,$4,$5,0*
20,1,$1+$1,$4,$5,$6,$7,0*
20,1,$1+$1,$6,$7,$8,$9,0*
20,1,$1+$1,$8,$9,$2,$3,0*%
%AMHorizOval*
0 Thick line with rounded ends*
0 $1 width*
0 $2 $3 position (X,Y) of the first rounded end (center of the circle)*
0 $4 $5 position (X,Y) of the second rounded end (center of the circle)*
0 Add line between two ends*
20,1,$1,$2,$3,$4,$5,0*
0 Add two circle primitives to create the rounded ends*
1,1,$1,$2,$3*
1,1,$1,$4,$5*%
%AMFreePoly0*
4,1,37,0.800000,0.796148,0.878414,0.796148,1.032228,0.765552,1.177117,0.705537,1.307515,0.618408,1.418408,0.507515,1.505537,0.377117,1.565552,0.232228,1.596148,0.078414,1.596148,-0.078414,1.565552,-0.232228,1.505537,-0.377117,1.418408,-0.507515,1.307515,-0.618408,1.177117,-0.705537,1.032228,-0.765552,0.878414,-0.796148,0.800000,-0.796148,0.800000,-0.800000,-1.400000,-0.800000,
-1.403843,-0.796157,-1.439018,-0.796157,-1.511114,-0.766294,-1.566294,-0.711114,-1.596157,-0.639018,-1.596157,-0.603843,-1.600000,-0.600000,-1.600000,0.600000,-1.596157,0.603843,-1.596157,0.639018,-1.566294,0.711114,-1.511114,0.766294,-1.439018,0.796157,-1.403843,0.796157,-1.400000,0.800000,0.800000,0.800000,0.800000,0.796148,0.800000,0.796148,$1*%
%AMFreePoly1*
4,1,37,1.403843,0.796157,1.439018,0.796157,1.511114,0.766294,1.566294,0.711114,1.596157,0.639018,1.596157,0.603843,1.600000,0.600000,1.600000,-0.600000,1.596157,-0.603843,1.596157,-0.639018,1.566294,-0.711114,1.511114,-0.766294,1.439018,-0.796157,1.403843,-0.796157,1.400000,-0.800000,-0.800000,-0.800000,-0.800000,-0.796148,-0.878414,-0.796148,-1.032228,-0.765552,-1.177117,-0.705537,
-1.307515,-0.618408,-1.418408,-0.507515,-1.505537,-0.377117,-1.565552,-0.232228,-1.596148,-0.078414,-1.596148,0.078414,-1.565552,0.232228,-1.505537,0.377117,-1.418408,0.507515,-1.307515,0.618408,-1.177117,0.705537,-1.032228,0.765552,-0.878414,0.796148,-0.800000,0.796148,-0.800000,0.800000,1.400000,0.800000,1.403843,0.796157,1.403843,0.796157,$1*%
%AMFreePoly2*
4,1,37,0.603843,0.796157,0.639018,0.796157,0.711114,0.766294,0.766294,0.711114,0.796157,0.639018,0.796157,0.603843,0.800000,0.600000,0.800000,-0.600000,0.796157,-0.603843,0.796157,-0.639018,0.766294,-0.711114,0.711114,-0.766294,0.639018,-0.796157,0.603843,-0.796157,0.600000,-0.800000,0.000000,-0.800000,0.000000,-0.796148,-0.078414,-0.796148,-0.232228,-0.765552,-0.377117,-0.705537,
-0.507515,-0.618408,-0.618408,-0.507515,-0.705537,-0.377117,-0.765552,-0.232228,-0.796148,-0.078414,-0.796148,0.078414,-0.765552,0.232228,-0.705537,0.377117,-0.618408,0.507515,-0.507515,0.618408,-0.377117,0.705537,-0.232228,0.765552,-0.078414,0.796148,0.000000,0.796148,0.000000,0.800000,0.600000,0.800000,0.603843,0.796157,0.603843,0.796157,$1*%
%AMFreePoly3*
4,1,37,0.000000,0.796148,0.078414,0.796148,0.232228,0.765552,0.377117,0.705537,0.507515,0.618408,0.618408,0.507515,0.705537,0.377117,0.765552,0.232228,0.796148,0.078414,0.796148,-0.078414,0.765552,-0.232228,0.705537,-0.377117,0.618408,-0.507515,0.507515,-0.618408,0.377117,-0.705537,0.232228,-0.765552,0.078414,-0.796148,0.000000,-0.796148,0.000000,-0.800000,-0.600000,-0.800000,
-0.603843,-0.796157,-0.639018,-0.796157,-0.711114,-0.766294,-0.766294,-0.711114,-0.796157,-0.639018,-0.796157,-0.603843,-0.800000,-0.600000,-0.800000,0.600000,-0.796157,0.603843,-0.796157,0.639018,-0.766294,0.711114,-0.711114,0.766294,-0.639018,0.796157,-0.603843,0.796157,-0.600000,0.800000,0.000000,0.800000,0.000000,0.796148,0.000000,0.796148,$1*%
G04 Aperture macros list end*
%ADD10C,1.000000*%
%ADD11C,0.150000*%
%ADD12C,1.700000*%
%ADD13C,6.250000*%
%ADD14C,2.300000*%
%ADD15C,2.250000*%
%ADD16C,1.905000*%
%ADD17R,1.905000X1.905000*%
%ADD18C,0.800000*%
%ADD19O,2.000000X1.600000*%
%ADD20C,3.200000*%
%ADD21RoundRect,0.050000X0.150000X0.300000X-0.150000X0.300000X-0.150000X-0.300000X0.150000X-0.300000X0*%
%ADD22C,3.987800*%
%ADD23C,3.048000*%
%ADD24C,1.200000*%
%ADD25C,1.750000*%
%ADD26HorizOval,2.250000X0.654995X0.730004X-0.654995X-0.730004X0*%
%ADD27HorizOval,2.250000X0.019771X0.290016X-0.019771X-0.290016X0*%
%ADD28RoundRect,0.050000X0.300000X-0.150000X0.300000X0.150000X-0.300000X0.150000X-0.300000X-0.150000X0*%
%ADD29O,1.600000X2.000000*%
%ADD30RoundRect,0.050000X-0.300000X0.150000X-0.300000X-0.150000X0.300000X-0.150000X0.300000X0.150000X0*%
%ADD31RoundRect,0.050000X-0.150000X-0.300000X0.150000X-0.300000X0.150000X0.300000X-0.150000X0.300000X0*%
%ADD32C,2.000000*%
%ADD33C,2.200000*%
%ADD34C,1.850000*%
%ADD35FreePoly0,0.000000*%
%ADD36RoundRect,0.200000X-0.600000X-0.600000X0.600000X-0.600000X0.600000X0.600000X-0.600000X0.600000X0*%
%ADD37RoundRect,0.800000X-0.800000X-0.000010X0.800000X-0.000010X0.800000X0.000010X-0.800000X0.000010X0*%
%ADD38C,1.600000*%
%ADD39FreePoly1,0.000000*%
%ADD40FreePoly2,0.000000*%
%ADD41FreePoly3,0.000000*%
%ADD42RoundRect,0.250000X0.550000X-0.550000X0.550000X0.550000X-0.550000X0.550000X-0.550000X-0.550000X0*%
G04 APERTURE END LIST*
D10*
X207000000Y-26250000D02*
X207000000Y-38250000D01*
X195500000Y-26250000D02*
X195500000Y-38250000D01*
D11*
G36*
X210152355Y-109740000D02*
G01*
X210152355Y-108090628D01*
X209480809Y-108090628D01*
X209480809Y-107746428D01*
X210152355Y-107746428D01*
X210152355Y-107263743D01*
X210172782Y-107089456D01*
X210230402Y-106948645D01*
X210324363Y-106833632D01*
X210447949Y-106748907D01*
X210603158Y-106695394D01*
X210798804Y-106676095D01*
X211474380Y-106676095D01*
X211474380Y-107020294D01*
X210798804Y-107020294D01*
X210674325Y-107037695D01*
X210595098Y-107083146D01*
X210547631Y-107155202D01*
X210530076Y-107263743D01*
X210530076Y-107746428D01*
X211474380Y-107746428D01*
X211474380Y-108090628D01*
X210530076Y-108090628D01*
X210530076Y-109740000D01*
X210152355Y-109740000D01*
G37*
G36*
X213234839Y-107414619D02*
G01*
X213411164Y-107461595D01*
X213561459Y-107536505D01*
X213689968Y-107639450D01*
X213792888Y-107766876D01*
X213868475Y-107919382D01*
X213916348Y-108102020D01*
X213933417Y-108321437D01*
X213933417Y-108850284D01*
X213916316Y-109067195D01*
X213868205Y-109248854D01*
X213791963Y-109401608D01*
X213687770Y-109530256D01*
X213558145Y-109634306D01*
X213407696Y-109709758D01*
X213232392Y-109756907D01*
X213026849Y-109773522D01*
X212821206Y-109756904D01*
X212645843Y-109709751D01*
X212495368Y-109634298D01*
X212365744Y-109530256D01*
X212261636Y-109401620D01*
X212185450Y-109248870D01*
X212137371Y-109067207D01*
X212120280Y-108850284D01*
X212120280Y-108321437D01*
X212123541Y-108279488D01*
X212498002Y-108279488D01*
X212498002Y-108892233D01*
X212515780Y-109065604D01*
X212564410Y-109198100D01*
X212640701Y-109299263D01*
X212743587Y-109374380D01*
X212870082Y-109421087D01*
X213026849Y-109437749D01*
X213186296Y-109420947D01*
X213313276Y-109374123D01*
X213415012Y-109299263D01*
X213490137Y-109198264D01*
X213538130Y-109065776D01*
X213555696Y-108892233D01*
X213555696Y-108279488D01*
X213538126Y-108105820D01*
X213490130Y-107973277D01*
X213415012Y-107872274D01*
X213313276Y-107797415D01*
X213186296Y-107750591D01*
X213026849Y-107733789D01*
X212870082Y-107750451D01*
X212743587Y-107797158D01*
X212640701Y-107872274D01*
X212564418Y-107973441D01*
X212515784Y-108105992D01*
X212498002Y-108279488D01*
X212123541Y-108279488D01*
X212137339Y-108102007D01*
X212185180Y-107919365D01*
X212260712Y-107766864D01*
X212363546Y-107639450D01*
X212492054Y-107536513D01*
X212642375Y-107461602D01*
X212818759Y-107414622D01*
X213026849Y-107398016D01*
X213234839Y-107414619D01*
G37*
G36*
X214755355Y-109740000D02*
G01*
X214755355Y-107431538D01*
X215133077Y-107431538D01*
X215133077Y-107872274D01*
X215141503Y-107872274D01*
X215176489Y-107731728D01*
X215239193Y-107615794D01*
X215330364Y-107519832D01*
X215443483Y-107449884D01*
X215583806Y-107405549D01*
X215758461Y-107389590D01*
X215937119Y-107404581D01*
X216085870Y-107446735D01*
X216210334Y-107513697D01*
X216314602Y-107605744D01*
X216396066Y-107718374D01*
X216456815Y-107854961D01*
X216495725Y-108020367D01*
X216509691Y-108220687D01*
X216509691Y-108417974D01*
X216131969Y-108417974D01*
X216131969Y-108220687D01*
X216116250Y-108056534D01*
X216073755Y-107933484D01*
X216008196Y-107841810D01*
X215918541Y-107775392D01*
X215799224Y-107732668D01*
X215641041Y-107716936D01*
X215482037Y-107734422D01*
X215358857Y-107782723D01*
X215263136Y-107859635D01*
X215193954Y-107962348D01*
X215149408Y-108096439D01*
X215133077Y-108271062D01*
X215133077Y-109740000D01*
X214755355Y-109740000D01*
G37*
G36*
X218292969Y-109740000D02*
G01*
X218109340Y-109720226D01*
X217959259Y-109664465D01*
X217835380Y-109574220D01*
X217741318Y-109453978D01*
X217683714Y-109308817D01*
X217663372Y-109131468D01*
X217663372Y-107775737D01*
X217000252Y-107775737D01*
X217000252Y-107431538D01*
X217663372Y-107431538D01*
X217663372Y-106781058D01*
X218041093Y-106781058D01*
X218041093Y-107431538D01*
X218985397Y-107431538D01*
X218985397Y-107775737D01*
X218041093Y-107775737D01*
X218041093Y-109131468D01*
X218059086Y-109239755D01*
X218110336Y-109322344D01*
X218189236Y-109376876D01*
X218292969Y-109395800D01*
X218964515Y-109395800D01*
X218964515Y-109740000D01*
X218292969Y-109740000D01*
G37*
G36*
X219677459Y-109740000D02*
G01*
X219677459Y-109395800D01*
X220495734Y-109395800D01*
X220495734Y-107775737D01*
X219761357Y-107775737D01*
X219761357Y-107431538D01*
X220873456Y-107431538D01*
X220873456Y-109395800D01*
X221649965Y-109395800D01*
X221649965Y-109740000D01*
X219677459Y-109740000D01*
G37*
G36*
X220642646Y-107016081D02*
G01*
X220515205Y-106997047D01*
X220424476Y-106944823D01*
X220365387Y-106862450D01*
X220344792Y-106751749D01*
X220365507Y-106636899D01*
X220424476Y-106552264D01*
X220515396Y-106498362D01*
X220642646Y-106478808D01*
X220769896Y-106498362D01*
X220860816Y-106552264D01*
X220919927Y-106636915D01*
X220940683Y-106751749D01*
X220920048Y-106862434D01*
X220860816Y-106944823D01*
X220770087Y-106997047D01*
X220642646Y-107016081D01*
G37*
G36*
X223005146Y-109773522D02*
G01*
X222810245Y-109760963D01*
X222649237Y-109726030D01*
X222516406Y-109671741D01*
X222407056Y-109599499D01*
X222315708Y-109505153D01*
X222250242Y-109393990D01*
X222209504Y-109262644D01*
X222195115Y-109106189D01*
X222572836Y-109106189D01*
X222586044Y-109207107D01*
X222623624Y-109288860D01*
X222686043Y-109356050D01*
X222766479Y-109403817D01*
X222870668Y-109434807D01*
X223005146Y-109446175D01*
X223189794Y-109446175D01*
X223326870Y-109434531D01*
X223433024Y-109402790D01*
X223514942Y-109353852D01*
X223578298Y-109285068D01*
X223616743Y-109200057D01*
X223630347Y-109093733D01*
X223611380Y-108954651D01*
X223560465Y-108858710D01*
X223478831Y-108794066D01*
X223357588Y-108757960D01*
X222719748Y-108665636D01*
X222570828Y-108627495D01*
X222450894Y-108562436D01*
X222354483Y-108470364D01*
X222284399Y-108356077D01*
X222240233Y-108216292D01*
X222224424Y-108044466D01*
X222238324Y-107896809D01*
X222277931Y-107771215D01*
X222342054Y-107663326D01*
X222432152Y-107570207D01*
X222539581Y-107498198D01*
X222668024Y-107444527D01*
X222821547Y-107410260D01*
X223005146Y-107398016D01*
X223189794Y-107398016D01*
X223408098Y-107418014D01*
X223588116Y-107474194D01*
X223737508Y-107563796D01*
X223832184Y-107654190D01*
X223900623Y-107755295D01*
X223945205Y-107868988D01*
X223966120Y-107998304D01*
X223584185Y-107998304D01*
X223567934Y-107922392D01*
X223530347Y-107856029D01*
X223468780Y-107796803D01*
X223393607Y-107753846D01*
X223301963Y-107726669D01*
X223189794Y-107716936D01*
X223005146Y-107716936D01*
X222879213Y-107727953D01*
X222780385Y-107758195D01*
X222702896Y-107805230D01*
X222642510Y-107870571D01*
X222606355Y-107948933D01*
X222593719Y-108044466D01*
X222609152Y-108158093D01*
X222650675Y-108237018D01*
X222717296Y-108290699D01*
X222816102Y-108321437D01*
X223412177Y-108405334D01*
X223599685Y-108450580D01*
X223743353Y-108522236D01*
X223852080Y-108618410D01*
X223931151Y-108741273D01*
X223981555Y-108896742D01*
X223999825Y-109093733D01*
X223985432Y-109252319D01*
X223944663Y-109385771D01*
X223879166Y-109498969D01*
X223787883Y-109595286D01*
X223678258Y-109669425D01*
X223545321Y-109725000D01*
X223384408Y-109760699D01*
X223189794Y-109773522D01*
X223005146Y-109773522D01*
G37*
G36*
X225522801Y-109773522D02*
G01*
X225327900Y-109760963D01*
X225166893Y-109726030D01*
X225034061Y-109671741D01*
X224924712Y-109599499D01*
X224833363Y-109505153D01*
X224767897Y-109393990D01*
X224727159Y-109262644D01*
X224712770Y-109106189D01*
X225090491Y-109106189D01*
X225103699Y-109207107D01*
X225141280Y-109288860D01*
X225203698Y-109356050D01*
X225284134Y-109403817D01*
X225388323Y-109434807D01*
X225522801Y-109446175D01*
X225707449Y-109446175D01*
X225844526Y-109434531D01*
X225950679Y-109402790D01*
X226032597Y-109353852D01*
X226095953Y-109285068D01*
X226134398Y-109200057D01*
X226148002Y-109093733D01*
X226129036Y-108954651D01*
X226078120Y-108858710D01*
X225996487Y-108794066D01*
X225875244Y-108757960D01*
X225237404Y-108665636D01*
X225088483Y-108627495D01*
X224968550Y-108562436D01*
X224872138Y-108470364D01*
X224802054Y-108356077D01*
X224757889Y-108216292D01*
X224742079Y-108044466D01*
X224755979Y-107896809D01*
X224795586Y-107771215D01*
X224859709Y-107663326D01*
X224949808Y-107570207D01*
X225057236Y-107498198D01*
X225185680Y-107444527D01*
X225339203Y-107410260D01*
X225522801Y-107398016D01*
X225707449Y-107398016D01*
X225925753Y-107418014D01*
X226105771Y-107474194D01*
X226255163Y-107563796D01*
X226349839Y-107654190D01*
X226418278Y-107755295D01*
X226462860Y-107868988D01*
X226483775Y-107998304D01*
X226101840Y-107998304D01*
X226085589Y-107922392D01*
X226048003Y-107856029D01*
X225986435Y-107796803D01*
X225911263Y-107753846D01*
X225819619Y-107726669D01*
X225707449Y-107716936D01*
X225522801Y-107716936D01*
X225396868Y-107727953D01*
X225298040Y-107758195D01*
X225220551Y-107805230D01*
X225160165Y-107870571D01*
X225124010Y-107948933D01*
X225111374Y-108044466D01*
X225126807Y-108158093D01*
X225168330Y-108237018D01*
X225234951Y-108290699D01*
X225333757Y-108321437D01*
X225929832Y-108405334D01*
X226117341Y-108450580D01*
X226261009Y-108522236D01*
X226369736Y-108618410D01*
X226448806Y-108741273D01*
X226499210Y-108896742D01*
X226517480Y-109093733D01*
X226503087Y-109252319D01*
X226462318Y-109385771D01*
X226396821Y-109498969D01*
X226305539Y-109595286D01*
X226195913Y-109669425D01*
X226062976Y-109725000D01*
X225902063Y-109760699D01*
X225707449Y-109773522D01*
X225522801Y-109773522D01*
G37*
G36*
X227230425Y-109740000D02*
G01*
X227230425Y-109395800D01*
X228048700Y-109395800D01*
X228048700Y-107775737D01*
X227314323Y-107775737D01*
X227314323Y-107431538D01*
X228426421Y-107431538D01*
X228426421Y-109395800D01*
X229202930Y-109395800D01*
X229202930Y-109740000D01*
X227230425Y-109740000D01*
G37*
G36*
X228195612Y-107016081D02*
G01*
X228068170Y-106997047D01*
X227977442Y-106944823D01*
X227918352Y-106862450D01*
X227897758Y-106751749D01*
X227918473Y-106636899D01*
X227977442Y-106552264D01*
X228068362Y-106498362D01*
X228195612Y-106478808D01*
X228322862Y-106498362D01*
X228413782Y-106552264D01*
X228472893Y-106636915D01*
X228493649Y-106751749D01*
X228473014Y-106862434D01*
X228413782Y-106944823D01*
X228323053Y-106997047D01*
X228195612Y-107016081D01*
G37*
G36*
X229643117Y-109740000D02*
G01*
X229643117Y-107431538D01*
X229970464Y-107431538D01*
X229970464Y-107738002D01*
X229978890Y-107738002D01*
X230002627Y-107638972D01*
X230043809Y-107555970D01*
X230102538Y-107486127D01*
X230176186Y-107433171D01*
X230262498Y-107400887D01*
X230365038Y-107389590D01*
X230462429Y-107399811D01*
X230546794Y-107429291D01*
X230620943Y-107477883D01*
X230709862Y-107579587D01*
X230772069Y-107716936D01*
X230776282Y-107716936D01*
X230804909Y-107621068D01*
X230848916Y-107542346D01*
X230908356Y-107477883D01*
X230981414Y-107429739D01*
X231067746Y-107400046D01*
X231170856Y-107389590D01*
X231311137Y-107408607D01*
X231427315Y-107463328D01*
X231525314Y-107555369D01*
X231596806Y-107672439D01*
X231641614Y-107813819D01*
X231657571Y-107985664D01*
X231657571Y-109740000D01*
X231305129Y-109740000D01*
X231305129Y-107981451D01*
X231287135Y-107853311D01*
X231237901Y-107761083D01*
X231159502Y-107700246D01*
X231053253Y-107679200D01*
X230950580Y-107699596D01*
X230872819Y-107759068D01*
X230823662Y-107849446D01*
X230805591Y-107977238D01*
X230805591Y-109740000D01*
X230495097Y-109740000D01*
X230495097Y-107981451D01*
X230477104Y-107853311D01*
X230427869Y-107761083D01*
X230350059Y-107700046D01*
X230247435Y-107679200D01*
X230141135Y-107699791D01*
X230062787Y-107759068D01*
X230013630Y-107849446D01*
X229995560Y-107977238D01*
X229995560Y-109740000D01*
X229643117Y-109740000D01*
G37*
G36*
X233376081Y-107414619D02*
G01*
X233552406Y-107461595D01*
X233702701Y-107536505D01*
X233831210Y-107639450D01*
X233934130Y-107766876D01*
X234009717Y-107919382D01*
X234057590Y-108102020D01*
X234074659Y-108321437D01*
X234074659Y-108850284D01*
X234057558Y-109067195D01*
X234009448Y-109248854D01*
X233933205Y-109401608D01*
X233829012Y-109530256D01*
X233699387Y-109634306D01*
X233548938Y-109709758D01*
X233373634Y-109756907D01*
X233168091Y-109773522D01*
X232962448Y-109756904D01*
X232787085Y-109709751D01*
X232636610Y-109634298D01*
X232506987Y-109530256D01*
X232402879Y-109401620D01*
X232326692Y-109248870D01*
X232278613Y-109067207D01*
X232261523Y-108850284D01*
X232261523Y-108321437D01*
X232264784Y-108279488D01*
X232639244Y-108279488D01*
X232639244Y-108892233D01*
X232657022Y-109065604D01*
X232705652Y-109198100D01*
X232781943Y-109299263D01*
X232884829Y-109374380D01*
X233011325Y-109421087D01*
X233168091Y-109437749D01*
X233327538Y-109420947D01*
X233454518Y-109374123D01*
X233556254Y-109299263D01*
X233631380Y-109198264D01*
X233679372Y-109065776D01*
X233696938Y-108892233D01*
X233696938Y-108279488D01*
X233679368Y-108105820D01*
X233631372Y-107973277D01*
X233556254Y-107872274D01*
X233454518Y-107797415D01*
X233327538Y-107750591D01*
X233168091Y-107733789D01*
X233011325Y-107750451D01*
X232884829Y-107797158D01*
X232781943Y-107872274D01*
X232705660Y-107973441D01*
X232657026Y-108105992D01*
X232639244Y-108279488D01*
X232264784Y-108279488D01*
X232278581Y-108102007D01*
X232326422Y-107919365D01*
X232401954Y-107766864D01*
X232504788Y-107639450D01*
X232633296Y-107536513D01*
X232783617Y-107461602D01*
X232960001Y-107414622D01*
X233168091Y-107398016D01*
X233376081Y-107414619D01*
G37*
D12*
%TO.C,SW9*%
X56412500Y-52387500D03*
D13*
X61912500Y-52387500D03*
D14*
X61912500Y-56087500D03*
D12*
X67412500Y-52387500D03*
D15*
X61912500Y-58437500D03*
X56912500Y-56187500D03*
X66042500Y-55687500D03*
D16*
X63182500Y-47587500D03*
D17*
X60642500Y-47587500D03*
%TD*%
D12*
%TO.C,SW43*%
X258818750Y-71437500D03*
D13*
X264318750Y-71437500D03*
D14*
X264318750Y-75137500D03*
D12*
X269818750Y-71437500D03*
D15*
X264318750Y-77487500D03*
X259318750Y-75237500D03*
X268448750Y-74737500D03*
D16*
X265588750Y-66637500D03*
D17*
X263048750Y-66637500D03*
%TD*%
D12*
%TO.C,SW48*%
X277868750Y-71437500D03*
D13*
X283368750Y-71437500D03*
D14*
X283368750Y-75137500D03*
D12*
X288868750Y-71437500D03*
D15*
X283368750Y-77487500D03*
X278368750Y-75237500D03*
X287498750Y-74737500D03*
D16*
X284638750Y-66637500D03*
D17*
X282098750Y-66637500D03*
%TD*%
D12*
%TO.C,SW21*%
X151662500Y-71437500D03*
D13*
X157162500Y-71437500D03*
D14*
X157162500Y-75137500D03*
D12*
X162662500Y-71437500D03*
D15*
X157162500Y-77487500D03*
X152162500Y-75237500D03*
X161292500Y-74737500D03*
D16*
X158432500Y-66637500D03*
D17*
X155892500Y-66637500D03*
%TD*%
D18*
%TO.C,J2*%
X209550000Y-95325000D03*
X216550000Y-95325000D03*
D19*
X214150000Y-93025000D03*
X211150000Y-93025000D03*
X219250000Y-97625000D03*
X218150000Y-93025000D03*
%TD*%
D12*
%TO.C,SW26*%
X113562500Y-90487500D03*
D13*
X119062500Y-90487500D03*
D14*
X119062500Y-94187500D03*
D12*
X124562500Y-90487500D03*
D15*
X119062500Y-96537500D03*
X114062500Y-94287500D03*
X123192500Y-93787500D03*
D16*
X120332500Y-85687500D03*
D17*
X117792500Y-85687500D03*
%TD*%
D12*
%TO.C,SW29*%
X37362500Y-109537500D03*
D13*
X42862500Y-109537500D03*
D14*
X42862500Y-113237500D03*
D12*
X48362500Y-109537500D03*
D15*
X42862500Y-115587500D03*
X37862500Y-113337500D03*
X46992500Y-112837500D03*
D16*
X44132500Y-104737500D03*
D17*
X41592500Y-104737500D03*
%TD*%
D12*
%TO.C,SW52*%
X296850000Y-52387500D03*
D13*
X302350000Y-52387500D03*
D14*
X302350000Y-56087500D03*
D12*
X307850000Y-52387500D03*
D15*
X302350000Y-58437500D03*
X297350000Y-56187500D03*
X306480000Y-55687500D03*
D16*
X303620000Y-47587500D03*
D17*
X301080000Y-47587500D03*
%TD*%
D12*
%TO.C,SW61*%
X335018750Y-33337500D03*
D13*
X340518750Y-33337500D03*
D14*
X340518750Y-37037500D03*
D12*
X346018750Y-33337500D03*
D15*
X340518750Y-39387500D03*
X335518750Y-37137500D03*
X344648750Y-36637500D03*
D16*
X341788750Y-28537500D03*
D17*
X339248750Y-28537500D03*
%TD*%
D12*
%TO.C,SW64*%
X335018750Y-90487500D03*
D13*
X340518750Y-90487500D03*
D14*
X340518750Y-94187500D03*
D12*
X346018750Y-90487500D03*
D15*
X340518750Y-96537500D03*
X335518750Y-94287500D03*
X344648750Y-93787500D03*
D16*
X341788750Y-85687500D03*
D17*
X339248750Y-85687500D03*
%TD*%
D12*
%TO.C,SW56*%
X315968750Y-33337500D03*
D13*
X321468750Y-33337500D03*
D14*
X321468750Y-37037500D03*
D12*
X326968750Y-33337500D03*
D15*
X321468750Y-39387500D03*
X316468750Y-37137500D03*
X325598750Y-36637500D03*
D16*
X322738750Y-28537500D03*
D17*
X320198750Y-28537500D03*
%TD*%
D12*
%TO.C,SW62*%
X335018750Y-52387500D03*
D13*
X340518750Y-52387500D03*
D14*
X340518750Y-56087500D03*
D12*
X346018750Y-52387500D03*
D15*
X340518750Y-58437500D03*
X335518750Y-56187500D03*
X344648750Y-55687500D03*
D16*
X341788750Y-47587500D03*
D17*
X339248750Y-47587500D03*
%TD*%
D12*
%TO.C,SW2*%
X56412500Y-33337500D03*
D13*
X61912500Y-33337500D03*
D14*
X61912500Y-37037500D03*
D12*
X67412500Y-33337500D03*
D15*
X61912500Y-39387500D03*
X56912500Y-37137500D03*
X66042500Y-36637500D03*
D16*
X63182500Y-28537500D03*
D17*
X60642500Y-28537500D03*
%TD*%
D12*
%TO.C,SW54*%
X296918750Y-90487500D03*
D13*
X302418750Y-90487500D03*
D14*
X302418750Y-94187500D03*
D12*
X307918750Y-90487500D03*
D15*
X302418750Y-96537500D03*
X297418750Y-94287500D03*
X306548750Y-93787500D03*
D16*
X303688750Y-85687500D03*
D17*
X301148750Y-85687500D03*
%TD*%
D12*
%TO.C,SW31*%
X75462500Y-109537500D03*
D13*
X80962500Y-109537500D03*
D14*
X80962500Y-113237500D03*
D12*
X86462500Y-109537500D03*
D15*
X80962500Y-115587500D03*
X75962500Y-113337500D03*
X85092500Y-112837500D03*
D16*
X82232500Y-104737500D03*
D17*
X79692500Y-104737500D03*
%TD*%
D12*
%TO.C,SW65*%
X354068750Y-109537500D03*
D13*
X359568750Y-109537500D03*
D14*
X359568750Y-113237500D03*
D12*
X365068750Y-109537500D03*
D15*
X359568750Y-115587500D03*
X354568750Y-113337500D03*
X363698750Y-112837500D03*
D16*
X360838750Y-104737500D03*
D17*
X358298750Y-104737500D03*
%TD*%
D12*
%TO.C,SW25*%
X94512500Y-90487500D03*
D13*
X100012500Y-90487500D03*
D14*
X100012500Y-94187500D03*
D12*
X105512500Y-90487500D03*
D15*
X100012500Y-96537500D03*
X95012500Y-94287500D03*
X104142500Y-93787500D03*
D16*
X101282500Y-85687500D03*
D17*
X98742500Y-85687500D03*
%TD*%
D20*
%TO.C,REF\u002A\u002A*%
X376237500Y-71934375D03*
%TD*%
%TO.C,REF\u002A\u002A*%
X211931250Y-117525000D03*
%TD*%
%TO.C,REF\u002A\u002A*%
X178593750Y-100012500D03*
%TD*%
D21*
%TO.C,D72*%
X223837500Y-95250000D03*
X223137500Y-95250000D03*
%TD*%
D12*
%TO.C,SW4*%
X94512500Y-33337500D03*
D13*
X100012500Y-33337500D03*
D14*
X100012500Y-37037500D03*
D12*
X105512500Y-33337500D03*
D15*
X100012500Y-39387500D03*
X95012500Y-37137500D03*
X104142500Y-36637500D03*
D16*
X101282500Y-28537500D03*
D17*
X98742500Y-28537500D03*
%TD*%
D20*
%TO.C,REF\u002A\u002A*%
X376237500Y-26193750D03*
%TD*%
D22*
%TO.C,SW34*%
X135699500Y-101282500D03*
D23*
X135699500Y-116522500D03*
D12*
X142137500Y-109537500D03*
D24*
X142417500Y-113737500D03*
D25*
X142557500Y-109537500D03*
D22*
X147637500Y-109537500D03*
D25*
X152717500Y-109537500D03*
D12*
X153137500Y-109537500D03*
D22*
X159575500Y-101282500D03*
D23*
X159575500Y-116522500D03*
D26*
X144482495Y-106267496D03*
D15*
X145137500Y-105537500D03*
X147637500Y-103637500D03*
D27*
X150157271Y-104747484D03*
D15*
X150177500Y-104457500D03*
X152637500Y-105737500D03*
D16*
X146367500Y-114617500D03*
D17*
X148907500Y-114617500D03*
%TD*%
D20*
%TO.C,REF\u002A\u002A*%
X28575000Y-116681250D03*
%TD*%
D12*
%TO.C,SW14*%
X151662500Y-52387500D03*
D13*
X157162500Y-52387500D03*
D14*
X157162500Y-56087500D03*
D12*
X162662500Y-52387500D03*
D15*
X157162500Y-58437500D03*
X152162500Y-56187500D03*
X161292500Y-55687500D03*
D16*
X158432500Y-47587500D03*
D17*
X155892500Y-47587500D03*
%TD*%
D28*
%TO.C,D37*%
X188118750Y-100500000D03*
X188118750Y-99800000D03*
%TD*%
D12*
%TO.C,SW8*%
X37362500Y-52387500D03*
D13*
X42862500Y-52387500D03*
D14*
X42862500Y-56087500D03*
D12*
X48362500Y-52387500D03*
D15*
X42862500Y-58437500D03*
X37862500Y-56187500D03*
X46992500Y-55687500D03*
D16*
X44132500Y-47587500D03*
D17*
X41592500Y-47587500D03*
%TD*%
D12*
%TO.C,SW6*%
X132612500Y-33337500D03*
D13*
X138112500Y-33337500D03*
D14*
X138112500Y-37037500D03*
D12*
X143612500Y-33337500D03*
D15*
X138112500Y-39387500D03*
X133112500Y-37137500D03*
X142242500Y-36637500D03*
D16*
X139382500Y-28537500D03*
D17*
X136842500Y-28537500D03*
%TD*%
D12*
%TO.C,SW5*%
X113562500Y-33337500D03*
D13*
X119062500Y-33337500D03*
D14*
X119062500Y-37037500D03*
D12*
X124562500Y-33337500D03*
D15*
X119062500Y-39387500D03*
X114062500Y-37137500D03*
X123192500Y-36637500D03*
D16*
X120332500Y-28537500D03*
D17*
X117792500Y-28537500D03*
%TD*%
D12*
%TO.C,SW67*%
X354068750Y-52387500D03*
D13*
X359568750Y-52387500D03*
D14*
X359568750Y-56087500D03*
D12*
X365068750Y-52387500D03*
D15*
X359568750Y-58437500D03*
X354568750Y-56187500D03*
X363698750Y-55687500D03*
D16*
X360838750Y-47587500D03*
D17*
X358298750Y-47587500D03*
%TD*%
D29*
%TO.C,Brd2*%
X225120000Y-78225000D03*
X222580000Y-78225000D03*
X220040000Y-78225000D03*
X217500000Y-78225000D03*
%TD*%
D12*
%TO.C,SW46*%
X277868750Y-33337500D03*
D13*
X283368750Y-33337500D03*
D14*
X283368750Y-37037500D03*
D12*
X288868750Y-33337500D03*
D15*
X283368750Y-39387500D03*
X278368750Y-37137500D03*
X287498750Y-36637500D03*
D16*
X284638750Y-28537500D03*
D17*
X282098750Y-28537500D03*
%TD*%
D12*
%TO.C,SW66*%
X354068750Y-33337500D03*
D13*
X359568750Y-33337500D03*
D14*
X359568750Y-37037500D03*
D12*
X365068750Y-33337500D03*
D15*
X359568750Y-39387500D03*
X354568750Y-37137500D03*
X363698750Y-36637500D03*
D16*
X360838750Y-28537500D03*
D17*
X358298750Y-28537500D03*
%TD*%
D12*
%TO.C,SW18*%
X94512500Y-71437500D03*
D13*
X100012500Y-71437500D03*
D14*
X100012500Y-75137500D03*
D12*
X105512500Y-71437500D03*
D15*
X100012500Y-77487500D03*
X95012500Y-75237500D03*
X104142500Y-74737500D03*
D16*
X101282500Y-66637500D03*
D17*
X98742500Y-66637500D03*
%TD*%
D12*
%TO.C,SW20*%
X132612500Y-71437500D03*
D13*
X138112500Y-71437500D03*
D14*
X138112500Y-75137500D03*
D12*
X143612500Y-71437500D03*
D15*
X138112500Y-77487500D03*
X133112500Y-75237500D03*
X142242500Y-74737500D03*
D16*
X139382500Y-66637500D03*
D17*
X136842500Y-66637500D03*
%TD*%
D30*
%TO.C,D73*%
X211287500Y-89825000D03*
X211287500Y-90525000D03*
%TD*%
D12*
%TO.C,SW37*%
X239768750Y-52387500D03*
D13*
X245268750Y-52387500D03*
D14*
X245268750Y-56087500D03*
D12*
X250768750Y-52387500D03*
D15*
X245268750Y-58437500D03*
X240268750Y-56187500D03*
X249398750Y-55687500D03*
D16*
X246538750Y-47587500D03*
D17*
X243998750Y-47587500D03*
%TD*%
D12*
%TO.C,SW1*%
X37362500Y-33337500D03*
D13*
X42862500Y-33337500D03*
D14*
X42862500Y-37037500D03*
D12*
X48362500Y-33337500D03*
D15*
X42862500Y-39387500D03*
X37862500Y-37137500D03*
X46992500Y-36637500D03*
D16*
X44132500Y-28537500D03*
D17*
X41592500Y-28537500D03*
%TD*%
D12*
%TO.C,SW24*%
X75462500Y-90487500D03*
D13*
X80962500Y-90487500D03*
D14*
X80962500Y-94187500D03*
D12*
X86462500Y-90487500D03*
D15*
X80962500Y-96537500D03*
X75962500Y-94287500D03*
X85092500Y-93787500D03*
D16*
X82232500Y-85687500D03*
D17*
X79692500Y-85687500D03*
%TD*%
D12*
%TO.C,SW57*%
X315968750Y-52387500D03*
D13*
X321468750Y-52387500D03*
D14*
X321468750Y-56087500D03*
D12*
X326968750Y-52387500D03*
D15*
X321468750Y-58437500D03*
X316468750Y-56187500D03*
X325598750Y-55687500D03*
D16*
X322738750Y-47587500D03*
D17*
X320198750Y-47587500D03*
%TD*%
D12*
%TO.C,SW27*%
X132612500Y-90487500D03*
D13*
X138112500Y-90487500D03*
D14*
X138112500Y-94187500D03*
D12*
X143612500Y-90487500D03*
D15*
X138112500Y-96537500D03*
X133112500Y-94287500D03*
X142242500Y-93787500D03*
D16*
X139382500Y-85687500D03*
D17*
X136842500Y-85687500D03*
%TD*%
D28*
%TO.C,D36*%
X191143750Y-100475000D03*
X191143750Y-99775000D03*
%TD*%
D12*
%TO.C,SW68*%
X354068750Y-71437500D03*
D13*
X359568750Y-71437500D03*
D14*
X359568750Y-75137500D03*
D12*
X365068750Y-71437500D03*
D15*
X359568750Y-77487500D03*
X354568750Y-75237500D03*
X363698750Y-74737500D03*
D16*
X360838750Y-66637500D03*
D17*
X358298750Y-66637500D03*
%TD*%
D20*
%TO.C,REF\u002A\u002A*%
X28575000Y-71437500D03*
%TD*%
D12*
%TO.C,SW36*%
X239768750Y-33337500D03*
D13*
X245268750Y-33337500D03*
D14*
X245268750Y-37037500D03*
D12*
X250768750Y-33337500D03*
D15*
X245268750Y-39387500D03*
X240268750Y-37137500D03*
X249398750Y-36637500D03*
D16*
X246538750Y-28537500D03*
D17*
X243998750Y-28537500D03*
%TD*%
D12*
%TO.C,SW32*%
X94512500Y-109537500D03*
D13*
X100012500Y-109537500D03*
D14*
X100012500Y-113237500D03*
D12*
X105512500Y-109537500D03*
D15*
X100012500Y-115587500D03*
X95012500Y-113337500D03*
X104142500Y-112837500D03*
D16*
X101282500Y-104737500D03*
D17*
X98742500Y-104737500D03*
%TD*%
D20*
%TO.C,REF\u002A\u002A*%
X376237500Y-116681250D03*
%TD*%
D31*
%TO.C,D35*%
X180275000Y-93031250D03*
X180975000Y-93031250D03*
%TD*%
D12*
%TO.C,SW3*%
X75462500Y-33337500D03*
D13*
X80962500Y-33337500D03*
D14*
X80962500Y-37037500D03*
D12*
X86462500Y-33337500D03*
D15*
X80962500Y-39387500D03*
X75962500Y-37137500D03*
X85092500Y-36637500D03*
D16*
X82232500Y-28537500D03*
D17*
X79692500Y-28537500D03*
%TD*%
D12*
%TO.C,SW58*%
X315968750Y-71437500D03*
D13*
X321468750Y-71437500D03*
D14*
X321468750Y-75137500D03*
D12*
X326968750Y-71437500D03*
D15*
X321468750Y-77487500D03*
X316468750Y-75237500D03*
X325598750Y-74737500D03*
D16*
X322738750Y-66637500D03*
D17*
X320198750Y-66637500D03*
%TD*%
D12*
%TO.C,SW33*%
X113562500Y-109537500D03*
D13*
X119062500Y-109537500D03*
D14*
X119062500Y-113237500D03*
D12*
X124562500Y-109537500D03*
D15*
X119062500Y-115587500D03*
X114062500Y-113337500D03*
X123192500Y-112837500D03*
D16*
X120332500Y-104737500D03*
D17*
X117792500Y-104737500D03*
%TD*%
D12*
%TO.C,SW63*%
X335018750Y-71437500D03*
D13*
X340518750Y-71437500D03*
D14*
X340518750Y-75137500D03*
D12*
X346018750Y-71437500D03*
D15*
X340518750Y-77487500D03*
X335518750Y-75237500D03*
X344648750Y-74737500D03*
D16*
X341788750Y-66637500D03*
D17*
X339248750Y-66637500D03*
%TD*%
D30*
%TO.C,D74*%
X214312500Y-89925000D03*
X214312500Y-90625000D03*
%TD*%
D20*
%TO.C,REF\u002A\u002A*%
X226218750Y-100012500D03*
%TD*%
D18*
%TO.C,J1*%
X192881250Y-95331250D03*
X185881250Y-95331250D03*
D19*
X188281250Y-97631250D03*
X191281250Y-97631250D03*
X183181250Y-93031250D03*
X184281250Y-97631250D03*
%TD*%
D12*
%TO.C,SW53*%
X296918750Y-71437500D03*
D13*
X302418750Y-71437500D03*
D14*
X302418750Y-75137500D03*
D12*
X307918750Y-71437500D03*
D15*
X302418750Y-77487500D03*
X297418750Y-75237500D03*
X306548750Y-74737500D03*
D16*
X303688750Y-66637500D03*
D17*
X301148750Y-66637500D03*
%TD*%
D12*
%TO.C,SW22*%
X37362500Y-90487500D03*
D13*
X42862500Y-90487500D03*
D14*
X42862500Y-94187500D03*
D12*
X48362500Y-90487500D03*
D15*
X42862500Y-96537500D03*
X37862500Y-94287500D03*
X46992500Y-93787500D03*
D16*
X44132500Y-85687500D03*
D17*
X41592500Y-85687500D03*
%TD*%
D12*
%TO.C,SW60*%
X335018750Y-109537500D03*
D13*
X340518750Y-109537500D03*
D14*
X340518750Y-113237500D03*
D12*
X346018750Y-109537500D03*
D15*
X340518750Y-115587500D03*
X335518750Y-113337500D03*
X344648750Y-112837500D03*
D16*
X341788750Y-104737500D03*
D17*
X339248750Y-104737500D03*
%TD*%
D12*
%TO.C,SW44*%
X258818750Y-90487500D03*
D13*
X264318750Y-90487500D03*
D14*
X264318750Y-94187500D03*
D12*
X269818750Y-90487500D03*
D15*
X264318750Y-96537500D03*
X259318750Y-94287500D03*
X268448750Y-93787500D03*
D16*
X265588750Y-85687500D03*
D17*
X263048750Y-85687500D03*
%TD*%
D12*
%TO.C,SW11*%
X94512500Y-52387500D03*
D13*
X100012500Y-52387500D03*
D14*
X100012500Y-56087500D03*
D12*
X105512500Y-52387500D03*
D15*
X100012500Y-58437500D03*
X95012500Y-56187500D03*
X104142500Y-55687500D03*
D16*
X101282500Y-47587500D03*
D17*
X98742500Y-47587500D03*
%TD*%
D12*
%TO.C,SW39*%
X239768750Y-90487500D03*
D13*
X245268750Y-90487500D03*
D14*
X245268750Y-94187500D03*
D12*
X250768750Y-90487500D03*
D15*
X245268750Y-96537500D03*
X240268750Y-94287500D03*
X249398750Y-93787500D03*
D16*
X246538750Y-85687500D03*
D17*
X243998750Y-85687500D03*
%TD*%
D12*
%TO.C,SW7*%
X151662500Y-33337500D03*
D13*
X157162500Y-33337500D03*
D14*
X157162500Y-37037500D03*
D12*
X162662500Y-33337500D03*
D15*
X157162500Y-39387500D03*
X152162500Y-37137500D03*
X161292500Y-36637500D03*
D16*
X158432500Y-28537500D03*
D17*
X155892500Y-28537500D03*
%TD*%
D32*
%TO.C,SW35*%
X179237500Y-107418750D03*
X185737500Y-107418750D03*
X179237500Y-111918750D03*
X185737500Y-111918750D03*
%TD*%
D12*
%TO.C,SW23*%
X56412500Y-90487500D03*
D13*
X61912500Y-90487500D03*
D14*
X61912500Y-94187500D03*
D12*
X67412500Y-90487500D03*
D15*
X61912500Y-96537500D03*
X56912500Y-94287500D03*
X66042500Y-93787500D03*
D16*
X63182500Y-85687500D03*
D17*
X60642500Y-85687500D03*
%TD*%
D20*
%TO.C,REF\u002A\u002A*%
X28575000Y-26193750D03*
%TD*%
D12*
%TO.C,SW13*%
X132612500Y-52387500D03*
D13*
X138112500Y-52387500D03*
D14*
X138112500Y-56087500D03*
D12*
X143612500Y-52387500D03*
D15*
X138112500Y-58437500D03*
X133112500Y-56187500D03*
X142242500Y-55687500D03*
D16*
X139382500Y-47587500D03*
D17*
X136842500Y-47587500D03*
%TD*%
D12*
%TO.C,SW55*%
X315968750Y-109537500D03*
D13*
X321468750Y-109537500D03*
D14*
X321468750Y-113237500D03*
D12*
X326968750Y-109537500D03*
D15*
X321468750Y-115587500D03*
X316468750Y-113337500D03*
X325598750Y-112837500D03*
D16*
X322738750Y-104737500D03*
D17*
X320198750Y-104737500D03*
%TD*%
D12*
%TO.C,SW10*%
X75462500Y-52387500D03*
D13*
X80962500Y-52387500D03*
D14*
X80962500Y-56087500D03*
D12*
X86462500Y-52387500D03*
D15*
X80962500Y-58437500D03*
X75962500Y-56187500D03*
X85092500Y-55687500D03*
D16*
X82232500Y-47587500D03*
D17*
X79692500Y-47587500D03*
%TD*%
D12*
%TO.C,SW41*%
X258818750Y-33337500D03*
D13*
X264318750Y-33337500D03*
D14*
X264318750Y-37037500D03*
D12*
X269818750Y-33337500D03*
D15*
X264318750Y-39387500D03*
X259318750Y-37137500D03*
X268448750Y-36637500D03*
D16*
X265588750Y-28537500D03*
D17*
X263048750Y-28537500D03*
%TD*%
D12*
%TO.C,SW51*%
X296918750Y-33337500D03*
D13*
X302418750Y-33337500D03*
D14*
X302418750Y-37037500D03*
D12*
X307918750Y-33337500D03*
D15*
X302418750Y-39387500D03*
X297418750Y-37137500D03*
X306548750Y-36637500D03*
D16*
X303688750Y-28537500D03*
D17*
X301148750Y-28537500D03*
%TD*%
D12*
%TO.C,SW12*%
X113562500Y-52387500D03*
D13*
X119062500Y-52387500D03*
D14*
X119062500Y-56087500D03*
D12*
X124562500Y-52387500D03*
D15*
X119062500Y-58437500D03*
X114062500Y-56187500D03*
X123192500Y-55687500D03*
D16*
X120332500Y-47587500D03*
D17*
X117792500Y-47587500D03*
%TD*%
D12*
%TO.C,SW49*%
X277868750Y-90487500D03*
D13*
X283368750Y-90487500D03*
D14*
X283368750Y-94187500D03*
D12*
X288868750Y-90487500D03*
D15*
X283368750Y-96537500D03*
X278368750Y-94287500D03*
X287498750Y-93787500D03*
D16*
X284638750Y-85687500D03*
D17*
X282098750Y-85687500D03*
%TD*%
D12*
%TO.C,SW47*%
X277868750Y-52387500D03*
D13*
X283368750Y-52387500D03*
D14*
X283368750Y-56087500D03*
D12*
X288868750Y-52387500D03*
D15*
X283368750Y-58437500D03*
X278368750Y-56187500D03*
X287498750Y-55687500D03*
D16*
X284638750Y-47587500D03*
D17*
X282098750Y-47587500D03*
%TD*%
D33*
%TO.C,A1*%
X179996250Y-25190000D03*
D34*
X180296250Y-28220000D03*
X185146250Y-28220000D03*
D33*
X185446250Y-25190000D03*
D35*
X173031250Y-25060000D03*
D36*
X173831250Y-25060000D03*
D37*
X173031250Y-27600000D03*
D38*
X173831250Y-27600000D03*
D39*
X173031250Y-30140000D03*
D40*
X173831250Y-30140000D03*
D37*
X173031250Y-32680000D03*
D38*
X173831250Y-32680000D03*
D37*
X173031250Y-35220000D03*
D38*
X173831250Y-35220000D03*
D37*
X173031250Y-37760000D03*
D38*
X173831250Y-37760000D03*
D37*
X173031250Y-40300000D03*
D38*
X173831250Y-40300000D03*
D39*
X173031250Y-42840000D03*
D40*
X173831250Y-42840000D03*
D37*
X173031250Y-45380000D03*
D38*
X173831250Y-45380000D03*
D37*
X173031250Y-47920000D03*
D38*
X173831250Y-47920000D03*
D37*
X173031250Y-50460000D03*
D38*
X173831250Y-50460000D03*
D37*
X173031250Y-53000000D03*
D38*
X173831250Y-53000000D03*
D39*
X173031250Y-55540000D03*
D40*
X173831250Y-55540000D03*
D37*
X173031250Y-58080000D03*
D38*
X173831250Y-58080000D03*
D37*
X173031250Y-60620000D03*
D38*
X173831250Y-60620000D03*
D37*
X173031250Y-63160000D03*
D38*
X173831250Y-63160000D03*
D37*
X173031250Y-65700000D03*
D38*
X173831250Y-65700000D03*
D39*
X173031250Y-68240000D03*
D40*
X173831250Y-68240000D03*
D37*
X173031250Y-70780000D03*
D38*
X173831250Y-70780000D03*
D37*
X173031250Y-73320000D03*
D38*
X173831250Y-73320000D03*
X191611250Y-73320000D03*
D37*
X192411250Y-73320000D03*
D38*
X191611250Y-70780000D03*
D37*
X192411250Y-70780000D03*
D41*
X191611250Y-68240000D03*
D35*
X192411250Y-68240000D03*
D38*
X191611250Y-65700000D03*
D37*
X192411250Y-65700000D03*
D38*
X191611250Y-63160000D03*
D37*
X192411250Y-63160000D03*
D38*
X191611250Y-60620000D03*
D37*
X192411250Y-60620000D03*
D38*
X191611250Y-58080000D03*
D37*
X192411250Y-58080000D03*
D41*
X191611250Y-55540000D03*
D35*
X192411250Y-55540000D03*
D38*
X191611250Y-53000000D03*
D37*
X192411250Y-53000000D03*
D38*
X191611250Y-50460000D03*
D37*
X192411250Y-50460000D03*
D38*
X191611250Y-47920000D03*
D37*
X192411250Y-47920000D03*
D38*
X191611250Y-45380000D03*
D37*
X192411250Y-45380000D03*
D41*
X191611250Y-42840000D03*
D35*
X192411250Y-42840000D03*
D38*
X191611250Y-40300000D03*
D37*
X192411250Y-40300000D03*
D38*
X191611250Y-37760000D03*
D37*
X192411250Y-37760000D03*
D38*
X191611250Y-35220000D03*
D37*
X192411250Y-35220000D03*
D38*
X191611250Y-32680000D03*
D37*
X192411250Y-32680000D03*
D41*
X191611250Y-30140000D03*
D35*
X192411250Y-30140000D03*
D38*
X191611250Y-27600000D03*
D37*
X192411250Y-27600000D03*
D38*
X191611250Y-25060000D03*
D37*
X192411250Y-25060000D03*
%TD*%
D12*
%TO.C,SW17*%
X75462500Y-71437500D03*
D13*
X80962500Y-71437500D03*
D14*
X80962500Y-75137500D03*
D12*
X86462500Y-71437500D03*
D15*
X80962500Y-77487500D03*
X75962500Y-75237500D03*
X85092500Y-74737500D03*
D16*
X82232500Y-66637500D03*
D17*
X79692500Y-66637500D03*
%TD*%
D12*
%TO.C,SW28*%
X151662500Y-90487500D03*
D13*
X157162500Y-90487500D03*
D14*
X157162500Y-94187500D03*
D12*
X162662500Y-90487500D03*
D15*
X157162500Y-96537500D03*
X152162500Y-94287500D03*
X161292500Y-93787500D03*
D16*
X158432500Y-85687500D03*
D17*
X155892500Y-85687500D03*
%TD*%
D12*
%TO.C,SW59*%
X315968750Y-90487500D03*
D13*
X321468750Y-90487500D03*
D14*
X321468750Y-94187500D03*
D12*
X326968750Y-90487500D03*
D15*
X321468750Y-96537500D03*
X316468750Y-94287500D03*
X325598750Y-93787500D03*
D16*
X322738750Y-85687500D03*
D17*
X320198750Y-85687500D03*
%TD*%
D22*
%TO.C,SW40*%
X242855750Y-101282500D03*
D23*
X242855750Y-116522500D03*
D12*
X249293750Y-109537500D03*
D24*
X249573750Y-113737500D03*
D25*
X249713750Y-109537500D03*
D22*
X254793750Y-109537500D03*
D25*
X259873750Y-109537500D03*
D12*
X260293750Y-109537500D03*
D22*
X266731750Y-101282500D03*
D23*
X266731750Y-116522500D03*
D26*
X251638745Y-106267496D03*
D15*
X252293750Y-105537500D03*
X254793750Y-103637500D03*
D27*
X257313521Y-104747484D03*
D15*
X257333750Y-104457500D03*
X259793750Y-105737500D03*
D16*
X253523750Y-114617500D03*
D17*
X256063750Y-114617500D03*
%TD*%
D12*
%TO.C,SW19*%
X113562500Y-71437500D03*
D13*
X119062500Y-71437500D03*
D14*
X119062500Y-75137500D03*
D12*
X124562500Y-71437500D03*
D15*
X119062500Y-77487500D03*
X114062500Y-75237500D03*
X123192500Y-74737500D03*
D16*
X120332500Y-66637500D03*
D17*
X117792500Y-66637500D03*
%TD*%
D20*
%TO.C,REF\u002A\u002A*%
X190500000Y-117500000D03*
%TD*%
D12*
%TO.C,SW16*%
X56412500Y-71437500D03*
D13*
X61912500Y-71437500D03*
D14*
X61912500Y-75137500D03*
D12*
X67412500Y-71437500D03*
D15*
X61912500Y-77487500D03*
X56912500Y-75237500D03*
X66042500Y-74737500D03*
D16*
X63182500Y-66637500D03*
D17*
X60642500Y-66637500D03*
%TD*%
D33*
%TO.C,A2*%
X218065000Y-25190000D03*
D34*
X218365000Y-28220000D03*
X223215000Y-28220000D03*
D33*
X223515000Y-25190000D03*
D35*
X211100000Y-25060000D03*
D36*
X211900000Y-25060000D03*
D37*
X211100000Y-27600000D03*
D38*
X211900000Y-27600000D03*
D39*
X211100000Y-30140000D03*
D40*
X211900000Y-30140000D03*
D37*
X211100000Y-32680000D03*
D38*
X211900000Y-32680000D03*
D37*
X211100000Y-35220000D03*
D38*
X211900000Y-35220000D03*
D37*
X211100000Y-37760000D03*
D38*
X211900000Y-37760000D03*
D37*
X211100000Y-40300000D03*
D38*
X211900000Y-40300000D03*
D39*
X211100000Y-42840000D03*
D40*
X211900000Y-42840000D03*
D37*
X211100000Y-45380000D03*
D38*
X211900000Y-45380000D03*
D37*
X211100000Y-47920000D03*
D38*
X211900000Y-47920000D03*
D37*
X211100000Y-50460000D03*
D38*
X211900000Y-50460000D03*
D37*
X211100000Y-53000000D03*
D38*
X211900000Y-53000000D03*
D39*
X211100000Y-55540000D03*
D40*
X211900000Y-55540000D03*
D37*
X211100000Y-58080000D03*
D38*
X211900000Y-58080000D03*
D37*
X211100000Y-60620000D03*
D38*
X211900000Y-60620000D03*
D37*
X211100000Y-63160000D03*
D38*
X211900000Y-63160000D03*
D37*
X211100000Y-65700000D03*
D38*
X211900000Y-65700000D03*
D39*
X211100000Y-68240000D03*
D40*
X211900000Y-68240000D03*
D37*
X211100000Y-70780000D03*
D38*
X211900000Y-70780000D03*
D37*
X211100000Y-73320000D03*
D38*
X211900000Y-73320000D03*
X229680000Y-73320000D03*
D37*
X230480000Y-73320000D03*
D38*
X229680000Y-70780000D03*
D37*
X230480000Y-70780000D03*
D41*
X229680000Y-68240000D03*
D35*
X230480000Y-68240000D03*
D38*
X229680000Y-65700000D03*
D37*
X230480000Y-65700000D03*
D38*
X229680000Y-63160000D03*
D37*
X230480000Y-63160000D03*
D38*
X229680000Y-60620000D03*
D37*
X230480000Y-60620000D03*
D38*
X229680000Y-58080000D03*
D37*
X230480000Y-58080000D03*
D41*
X229680000Y-55540000D03*
D35*
X230480000Y-55540000D03*
D38*
X229680000Y-53000000D03*
D37*
X230480000Y-53000000D03*
D38*
X229680000Y-50460000D03*
D37*
X230480000Y-50460000D03*
D38*
X229680000Y-47920000D03*
D37*
X230480000Y-47920000D03*
D38*
X229680000Y-45380000D03*
D37*
X230480000Y-45380000D03*
D41*
X229680000Y-42840000D03*
D35*
X230480000Y-42840000D03*
D38*
X229680000Y-40300000D03*
D37*
X230480000Y-40300000D03*
D38*
X229680000Y-37760000D03*
D37*
X230480000Y-37760000D03*
D38*
X229680000Y-35220000D03*
D37*
X230480000Y-35220000D03*
D38*
X229680000Y-32680000D03*
D37*
X230480000Y-32680000D03*
D41*
X229680000Y-30140000D03*
D35*
X230480000Y-30140000D03*
D38*
X229680000Y-27600000D03*
D37*
X230480000Y-27600000D03*
D38*
X229680000Y-25060000D03*
D37*
X230480000Y-25060000D03*
%TD*%
D12*
%TO.C,SW42*%
X258818750Y-52387500D03*
D13*
X264318750Y-52387500D03*
D14*
X264318750Y-56087500D03*
D12*
X269818750Y-52387500D03*
D15*
X264318750Y-58437500D03*
X259318750Y-56187500D03*
X268448750Y-55687500D03*
D16*
X265588750Y-47587500D03*
D17*
X263048750Y-47587500D03*
%TD*%
D12*
%TO.C,SW50*%
X296918750Y-109537500D03*
D13*
X302418750Y-109537500D03*
D14*
X302418750Y-113237500D03*
D12*
X307918750Y-109537500D03*
D15*
X302418750Y-115587500D03*
X297418750Y-113337500D03*
X306548750Y-112837500D03*
D16*
X303688750Y-104737500D03*
D17*
X301148750Y-104737500D03*
%TD*%
D12*
%TO.C,SW38*%
X239768750Y-71437500D03*
D13*
X245268750Y-71437500D03*
D14*
X245268750Y-75137500D03*
D12*
X250768750Y-71437500D03*
D15*
X245268750Y-77487500D03*
X240268750Y-75237500D03*
X249398750Y-74737500D03*
D16*
X246538750Y-66637500D03*
D17*
X243998750Y-66637500D03*
%TD*%
D12*
%TO.C,SW15*%
X37362500Y-71437500D03*
D13*
X42862500Y-71437500D03*
D14*
X42862500Y-75137500D03*
D12*
X48362500Y-71437500D03*
D15*
X42862500Y-77487500D03*
X37862500Y-75237500D03*
X46992500Y-74737500D03*
D16*
X44132500Y-66637500D03*
D17*
X41592500Y-66637500D03*
%TD*%
D12*
%TO.C,SW30*%
X56412500Y-109537500D03*
D13*
X61912500Y-109537500D03*
D14*
X61912500Y-113237500D03*
D12*
X67412500Y-109537500D03*
D15*
X61912500Y-115587500D03*
X56912500Y-113337500D03*
X66042500Y-112837500D03*
D16*
X63182500Y-104737500D03*
D17*
X60642500Y-104737500D03*
%TD*%
D29*
%TO.C,Brd1*%
X185120000Y-78176400D03*
X182580000Y-78176400D03*
X180040000Y-78176400D03*
X177500000Y-78176400D03*
%TD*%
D12*
%TO.C,SW45*%
X277868750Y-109537500D03*
D13*
X283368750Y-109537500D03*
D14*
X283368750Y-113237500D03*
D12*
X288868750Y-109537500D03*
D15*
X283368750Y-115587500D03*
X278368750Y-113337500D03*
X287498750Y-112837500D03*
D16*
X284638750Y-104737500D03*
D17*
X282098750Y-104737500D03*
%TD*%
D12*
%TO.C,SW69*%
X354068750Y-90487500D03*
D13*
X359568750Y-90487500D03*
D14*
X359568750Y-94187500D03*
D12*
X365068750Y-90487500D03*
D15*
X359568750Y-96537500D03*
X354568750Y-94287500D03*
X363698750Y-93787500D03*
D16*
X360838750Y-85687500D03*
D17*
X358298750Y-85687500D03*
%TD*%
D42*
%TO.C,D10*%
X90487500Y-61912500D03*
D38*
X90487500Y-54292500D03*
%TD*%
D42*
%TO.C,D23*%
X71437500Y-100012500D03*
D38*
X71437500Y-92392500D03*
%TD*%
D42*
%TO.C,D21*%
X166687500Y-80962500D03*
D38*
X166687500Y-73342500D03*
%TD*%
D42*
%TO.C,D27*%
X147637500Y-100012500D03*
D38*
X147637500Y-92392500D03*
%TD*%
D42*
%TO.C,D58*%
X330993750Y-42862500D03*
D38*
X330993750Y-35242500D03*
%TD*%
D42*
%TO.C,D11*%
X109537500Y-61912500D03*
D38*
X109537500Y-54292500D03*
%TD*%
D42*
%TO.C,D12*%
X128587500Y-61912500D03*
D38*
X128587500Y-54292500D03*
%TD*%
D42*
%TO.C,D70*%
X369093750Y-80962500D03*
D38*
X369093750Y-73342500D03*
%TD*%
D42*
%TO.C,D8*%
X52387500Y-61912500D03*
D38*
X52387500Y-54292500D03*
%TD*%
D42*
%TO.C,D15*%
X52387500Y-80962500D03*
D38*
X52387500Y-73342500D03*
%TD*%
D42*
%TO.C,D43*%
X273843750Y-42862500D03*
D38*
X273843750Y-35242500D03*
%TD*%
D42*
%TO.C,D13*%
X147637500Y-61912500D03*
D38*
X147637500Y-54292500D03*
%TD*%
D42*
%TO.C,D25*%
X109537500Y-100012500D03*
D38*
X109537500Y-92392500D03*
%TD*%
D42*
%TO.C,D14*%
X166687500Y-61912500D03*
D38*
X166687500Y-54292500D03*
%TD*%
D42*
%TO.C,D51*%
X292893750Y-100012500D03*
D38*
X292893750Y-92392500D03*
%TD*%
D42*
%TO.C,D46*%
X273843750Y-100012500D03*
D38*
X273843750Y-92392500D03*
%TD*%
D42*
%TO.C,D26*%
X128587500Y-100012500D03*
D38*
X128587500Y-92392500D03*
%TD*%
D42*
%TO.C,D19*%
X128587500Y-80962500D03*
D38*
X128587500Y-73342500D03*
%TD*%
D42*
%TO.C,D16*%
X71437500Y-80962500D03*
D38*
X71437500Y-73342500D03*
%TD*%
D42*
%TO.C,D28*%
X166687500Y-100012500D03*
D38*
X166687500Y-92392500D03*
%TD*%
D42*
%TO.C,D54*%
X311943750Y-61912500D03*
D38*
X311943750Y-54292500D03*
%TD*%
D42*
%TO.C,D49*%
X292893750Y-61912500D03*
D38*
X292893750Y-54292500D03*
%TD*%
D42*
%TO.C,D60*%
X330993750Y-80962500D03*
D38*
X330993750Y-73342500D03*
%TD*%
D42*
%TO.C,D57*%
X330993750Y-119062500D03*
D38*
X330993750Y-111442500D03*
%TD*%
D42*
%TO.C,D31*%
X90487500Y-119062500D03*
D38*
X90487500Y-111442500D03*
%TD*%
D42*
%TO.C,D3*%
X90487500Y-42862500D03*
D38*
X90487500Y-35242500D03*
%TD*%
D42*
%TO.C,D18*%
X109537500Y-80962500D03*
D38*
X109537500Y-73342500D03*
%TD*%
D42*
%TO.C,D64*%
X350043750Y-61912500D03*
D38*
X350043750Y-54292500D03*
%TD*%
D42*
%TO.C,D1*%
X52387500Y-42862500D03*
D38*
X52387500Y-35242500D03*
%TD*%
D42*
%TO.C,D29*%
X52387500Y-119062500D03*
D38*
X52387500Y-111442500D03*
%TD*%
D42*
%TO.C,D5*%
X128587500Y-42862500D03*
D38*
X128587500Y-35242500D03*
%TD*%
D42*
%TO.C,D63*%
X350043750Y-42862500D03*
D38*
X350043750Y-35242500D03*
%TD*%
D42*
%TO.C,D34*%
X166687500Y-119062500D03*
D38*
X166687500Y-111442500D03*
%TD*%
D42*
%TO.C,D44*%
X273843750Y-61912500D03*
D38*
X273843750Y-54292500D03*
%TD*%
D42*
%TO.C,D71*%
X369093750Y-100012500D03*
D38*
X369093750Y-92392500D03*
%TD*%
D42*
%TO.C,D38*%
X254793750Y-42862500D03*
D38*
X254793750Y-35242500D03*
%TD*%
D42*
%TO.C,D42*%
X273843750Y-119062500D03*
D38*
X273843750Y-111442500D03*
%TD*%
D42*
%TO.C,D52*%
X311943750Y-119062500D03*
D38*
X311943750Y-111442500D03*
%TD*%
D42*
%TO.C,D55*%
X311943750Y-80962500D03*
D38*
X311943750Y-73342500D03*
%TD*%
D42*
%TO.C,D17*%
X90487500Y-80962500D03*
D38*
X90487500Y-73342500D03*
%TD*%
D42*
%TO.C,D67*%
X369093750Y-119062500D03*
D38*
X369093750Y-111442500D03*
%TD*%
D42*
%TO.C,D40*%
X254793750Y-80962500D03*
D38*
X254793750Y-73342500D03*
%TD*%
D42*
%TO.C,D62*%
X350043750Y-119062500D03*
D38*
X350043750Y-111442500D03*
%TD*%
D42*
%TO.C,D47*%
X292893750Y-119062500D03*
D38*
X292893750Y-111442500D03*
%TD*%
D42*
%TO.C,D45*%
X273843750Y-80962500D03*
D38*
X273843750Y-73342500D03*
%TD*%
D42*
%TO.C,D32*%
X109537500Y-119062500D03*
D38*
X109537500Y-111442500D03*
%TD*%
D42*
%TO.C,D22*%
X52387500Y-100012500D03*
D38*
X52387500Y-92392500D03*
%TD*%
D42*
%TO.C,D9*%
X71437500Y-61912500D03*
D38*
X71437500Y-54292500D03*
%TD*%
D42*
%TO.C,D59*%
X330993750Y-61912500D03*
D38*
X330993750Y-54292500D03*
%TD*%
D42*
%TO.C,D68*%
X369093750Y-42862500D03*
D38*
X369093750Y-35242500D03*
%TD*%
D42*
%TO.C,D33*%
X128587500Y-119062500D03*
D38*
X128587500Y-111442500D03*
%TD*%
D42*
%TO.C,D30*%
X71437500Y-119062500D03*
D38*
X71437500Y-111442500D03*
%TD*%
D42*
%TO.C,D53*%
X311943750Y-42862500D03*
D38*
X311943750Y-35242500D03*
%TD*%
D42*
%TO.C,D48*%
X292893750Y-42862500D03*
D38*
X292893750Y-35242500D03*
%TD*%
D42*
%TO.C,D61*%
X330993750Y-100012500D03*
D38*
X330993750Y-92392500D03*
%TD*%
D42*
%TO.C,D2*%
X71437500Y-42862500D03*
D38*
X71437500Y-35242500D03*
%TD*%
D42*
%TO.C,D65*%
X350043750Y-80962500D03*
D38*
X350043750Y-73342500D03*
%TD*%
D42*
%TO.C,D56*%
X311943750Y-100012500D03*
D38*
X311943750Y-92392500D03*
%TD*%
D42*
%TO.C,D24*%
X90487500Y-100012500D03*
D38*
X90487500Y-92392500D03*
%TD*%
D42*
%TO.C,D69*%
X369093750Y-61912500D03*
D38*
X369093750Y-54292500D03*
%TD*%
D42*
%TO.C,D41*%
X254793750Y-100012500D03*
D38*
X254793750Y-92392500D03*
%TD*%
D42*
%TO.C,D4*%
X109537500Y-42862500D03*
D38*
X109537500Y-35242500D03*
%TD*%
D42*
%TO.C,D39*%
X254793750Y-61912500D03*
D38*
X254793750Y-54292500D03*
%TD*%
D42*
%TO.C,D7*%
X166687500Y-42862500D03*
D38*
X166687500Y-35242500D03*
%TD*%
D42*
%TO.C,D50*%
X292893750Y-80962500D03*
D38*
X292893750Y-73342500D03*
%TD*%
D42*
%TO.C,D66*%
X350043750Y-100012500D03*
D38*
X350043750Y-92392500D03*
%TD*%
D42*
%TO.C,D6*%
X147637500Y-42862500D03*
D38*
X147637500Y-35242500D03*
%TD*%
D42*
%TO.C,D20*%
X147637500Y-80962500D03*
D38*
X147637500Y-73342500D03*
%TD*%
M02*
