%TF.GenerationSoftware,KiCad,Pcbnew,9.0.3*%
%TF.CreationDate,2025-07-31T16:32:47-07:00*%
%TF.ProjectId,fortissimo-ii,666f7274-6973-4736-996d-6f2d69692e6b,rev?*%
%TF.SameCoordinates,Original*%
%TF.FileFunction,Legend,Top*%
%TF.FilePolarity,Positive*%
%FSLAX46Y46*%
G04 Gerber Fmt 4.6, Leading zero omitted, Abs format (unit mm)*
G04 Created by KiCad (PCBNEW 9.0.3) date 2025-07-31 16:32:47*
%MOMM*%
%LPD*%
G01*
G04 APERTURE LIST*
%ADD10C,0.150000*%
%ADD11C,0.120000*%
G04 APERTURE END LIST*
D10*
G36*
X212932930Y-105551229D02*
G01*
X212978073Y-105564503D01*
X213016207Y-105585730D01*
X213047775Y-105615093D01*
X213069498Y-105650545D01*
X213081969Y-105693442D01*
X213084778Y-105693442D01*
X213084778Y-105560512D01*
X213209281Y-105560512D01*
X213209281Y-106330000D01*
X213204394Y-106387214D01*
X213190507Y-106435980D01*
X213168195Y-106477857D01*
X213137229Y-106513975D01*
X213099427Y-106542750D01*
X213054988Y-106563826D01*
X213002626Y-106577107D01*
X212940675Y-106581814D01*
X212725252Y-106581814D01*
X212725252Y-106467081D01*
X212942079Y-106467081D01*
X212984435Y-106462597D01*
X213018307Y-106450076D01*
X213045577Y-106430017D01*
X213066169Y-106403161D01*
X213078866Y-106370391D01*
X213083374Y-106330000D01*
X213083374Y-106260024D01*
X213086182Y-106134117D01*
X213081969Y-106134117D01*
X213069437Y-106176913D01*
X213047702Y-106211628D01*
X213016207Y-106239752D01*
X212978218Y-106259765D01*
X212933069Y-106272348D01*
X212879125Y-106276816D01*
X212820658Y-106271701D01*
X212770944Y-106257168D01*
X212728339Y-106233795D01*
X212691669Y-106201284D01*
X212662719Y-106161827D01*
X212641393Y-106115160D01*
X212627895Y-106059886D01*
X212623098Y-105994227D01*
X212623098Y-105831927D01*
X212623502Y-105826371D01*
X212749005Y-105826371D01*
X212749005Y-106001249D01*
X212754312Y-106051737D01*
X212769188Y-106092531D01*
X212793091Y-106125751D01*
X212825232Y-106150723D01*
X212865692Y-106166312D01*
X212916922Y-106171913D01*
X212967002Y-106166079D01*
X213007285Y-106149658D01*
X213040020Y-106122943D01*
X213064059Y-106087785D01*
X213079278Y-106043418D01*
X213084778Y-105987266D01*
X213084778Y-105840354D01*
X213079277Y-105784159D01*
X213064056Y-105739775D01*
X213040020Y-105704616D01*
X213007285Y-105677901D01*
X212967002Y-105661479D01*
X212916922Y-105655645D01*
X212865697Y-105661253D01*
X212825237Y-105676860D01*
X212793091Y-105701868D01*
X212769188Y-105735089D01*
X212754312Y-105775883D01*
X212749005Y-105826371D01*
X212623502Y-105826371D01*
X212627873Y-105766339D01*
X212641341Y-105710817D01*
X212662668Y-105663661D01*
X212691669Y-105623527D01*
X212728431Y-105590318D01*
X212771071Y-105566505D01*
X212820752Y-105551726D01*
X212879125Y-105546530D01*
X212932930Y-105551229D01*
G37*
G36*
X213593841Y-105532547D02*
G01*
X213591032Y-105707424D01*
X213592437Y-105707424D01*
X213605186Y-105660832D01*
X213627636Y-105622159D01*
X213660275Y-105589944D01*
X213700104Y-105566391D01*
X213747310Y-105551719D01*
X213803707Y-105546530D01*
X213860565Y-105551679D01*
X213909338Y-105566381D01*
X213951574Y-105590182D01*
X213988354Y-105623527D01*
X214017301Y-105663647D01*
X214038632Y-105710999D01*
X214052131Y-105766973D01*
X214056926Y-105833332D01*
X214056926Y-106058585D01*
X214052149Y-106124207D01*
X214038680Y-106179748D01*
X214017353Y-106226913D01*
X213988354Y-106267046D01*
X213951578Y-106300362D01*
X213909343Y-106324144D01*
X213860569Y-106338837D01*
X213803707Y-106343982D01*
X213747269Y-106338857D01*
X213700305Y-106324410D01*
X213660947Y-106301301D01*
X213628999Y-106269475D01*
X213607216Y-106230629D01*
X213595245Y-106183087D01*
X213593841Y-106183087D01*
X213593841Y-106330000D01*
X213467934Y-106330000D01*
X213467934Y-105840354D01*
X213593841Y-105840354D01*
X213593841Y-106050219D01*
X213599412Y-106106319D01*
X213614845Y-106150686D01*
X213639270Y-106185896D01*
X213672419Y-106212708D01*
X213712539Y-106229085D01*
X213761697Y-106234867D01*
X213813275Y-106229719D01*
X213853976Y-106215468D01*
X213886200Y-106192918D01*
X213909707Y-106161852D01*
X213925190Y-106118053D01*
X213931018Y-106057180D01*
X213931018Y-105833332D01*
X213925141Y-105771496D01*
X213909620Y-105727577D01*
X213886200Y-105696922D01*
X213854028Y-105674760D01*
X213813329Y-105660722D01*
X213761697Y-105655645D01*
X213712539Y-105661427D01*
X213672419Y-105677804D01*
X213639270Y-105704616D01*
X213614848Y-105739827D01*
X213599414Y-105784212D01*
X213593841Y-105840354D01*
X213467934Y-105840354D01*
X213467934Y-105308698D01*
X213593841Y-105308698D01*
X213593841Y-105532547D01*
G37*
G36*
X214675104Y-106330000D02*
G01*
X214613894Y-106323408D01*
X214563868Y-106304821D01*
X214522575Y-106274740D01*
X214491221Y-106234659D01*
X214472019Y-106186272D01*
X214465239Y-106127156D01*
X214465239Y-105675245D01*
X214244199Y-105675245D01*
X214244199Y-105560512D01*
X214465239Y-105560512D01*
X214465239Y-105343686D01*
X214591146Y-105343686D01*
X214591146Y-105560512D01*
X214905914Y-105560512D01*
X214905914Y-105675245D01*
X214591146Y-105675245D01*
X214591146Y-106127156D01*
X214597143Y-106163251D01*
X214614227Y-106190781D01*
X214640527Y-106208958D01*
X214675104Y-106215266D01*
X214898953Y-106215266D01*
X214898953Y-106330000D01*
X214675104Y-106330000D01*
G37*
G36*
X215406612Y-106341174D02*
G01*
X215341644Y-106336987D01*
X215287975Y-106325343D01*
X215243698Y-106307247D01*
X215207248Y-106283166D01*
X215176799Y-106251717D01*
X215154977Y-106214663D01*
X215141397Y-106170881D01*
X215136601Y-106118729D01*
X215262508Y-106118729D01*
X215266911Y-106152369D01*
X215279438Y-106179620D01*
X215300244Y-106202016D01*
X215327056Y-106217939D01*
X215361786Y-106228269D01*
X215406612Y-106232058D01*
X215468161Y-106232058D01*
X215513853Y-106228177D01*
X215549238Y-106217596D01*
X215576543Y-106201284D01*
X215597662Y-106178356D01*
X215610477Y-106150019D01*
X215615012Y-106114577D01*
X215608690Y-106068217D01*
X215591718Y-106036236D01*
X215564507Y-106014688D01*
X215524092Y-106002653D01*
X215311479Y-105971878D01*
X215261839Y-105959165D01*
X215221861Y-105937478D01*
X215189724Y-105906788D01*
X215166362Y-105868692D01*
X215151641Y-105822097D01*
X215146371Y-105764822D01*
X215151004Y-105715603D01*
X215164206Y-105673738D01*
X215185581Y-105637775D01*
X215215614Y-105606735D01*
X215251423Y-105582732D01*
X215294238Y-105564842D01*
X215345412Y-105553420D01*
X215406612Y-105549338D01*
X215468161Y-105549338D01*
X215540929Y-105556004D01*
X215600935Y-105574731D01*
X215650732Y-105604598D01*
X215682291Y-105634730D01*
X215705104Y-105668431D01*
X215719964Y-105706329D01*
X215726936Y-105749434D01*
X215599624Y-105749434D01*
X215594207Y-105724130D01*
X215581679Y-105702009D01*
X215561156Y-105682267D01*
X215536099Y-105667948D01*
X215505551Y-105658889D01*
X215468161Y-105655645D01*
X215406612Y-105655645D01*
X215364634Y-105659317D01*
X215331691Y-105669398D01*
X215305861Y-105685076D01*
X215285733Y-105706857D01*
X215273681Y-105732977D01*
X215269469Y-105764822D01*
X215274614Y-105802697D01*
X215288454Y-105829006D01*
X215310661Y-105846899D01*
X215343597Y-105857145D01*
X215542288Y-105885111D01*
X215604791Y-105900193D01*
X215652681Y-105924078D01*
X215688923Y-105956136D01*
X215715280Y-105997091D01*
X215732081Y-106048914D01*
X215738171Y-106114577D01*
X215733374Y-106167439D01*
X215719784Y-106211923D01*
X215697951Y-106249656D01*
X215667524Y-106281762D01*
X215630982Y-106306475D01*
X215586670Y-106325000D01*
X215533032Y-106336899D01*
X215468161Y-106341174D01*
X215406612Y-106341174D01*
G37*
G36*
X216275200Y-106343982D02*
G01*
X216209531Y-106338617D01*
X216153240Y-106323353D01*
X216104653Y-106298853D01*
X216062526Y-106264970D01*
X216028441Y-106223140D01*
X216003711Y-106174382D01*
X215988240Y-106117346D01*
X215982780Y-106050219D01*
X215982780Y-105560512D01*
X216108688Y-105560512D01*
X216108688Y-106050219D01*
X216114109Y-106104478D01*
X216129261Y-106148264D01*
X216153445Y-106183820D01*
X216186236Y-106211005D01*
X216226113Y-106227599D01*
X216275200Y-106233463D01*
X216325247Y-106227577D01*
X216365776Y-106210957D01*
X216398970Y-106183820D01*
X216423578Y-106148209D01*
X216438962Y-106104423D01*
X216444460Y-106050219D01*
X216444460Y-105560512D01*
X216570368Y-105560512D01*
X216570368Y-106050219D01*
X216564827Y-106117256D01*
X216549115Y-106174261D01*
X216523962Y-106223051D01*
X216489218Y-106264970D01*
X216446415Y-106298902D01*
X216397346Y-106323404D01*
X216340811Y-106338639D01*
X216275200Y-106343982D01*
G37*
G36*
X216815038Y-106330000D02*
G01*
X216815038Y-106215266D01*
X217087796Y-106215266D01*
X217087796Y-105675245D01*
X216843004Y-105675245D01*
X216843004Y-105560512D01*
X217213703Y-105560512D01*
X217213703Y-106215266D01*
X217472540Y-106215266D01*
X217472540Y-106330000D01*
X216815038Y-106330000D01*
G37*
G36*
X217136767Y-105422027D02*
G01*
X217094286Y-105415682D01*
X217064043Y-105398274D01*
X217044347Y-105370816D01*
X217037482Y-105333916D01*
X217044387Y-105295633D01*
X217064043Y-105267421D01*
X217094350Y-105249454D01*
X217136767Y-105242936D01*
X217179183Y-105249454D01*
X217209490Y-105267421D01*
X217229194Y-105295638D01*
X217236113Y-105333916D01*
X217229234Y-105370811D01*
X217209490Y-105398274D01*
X217179247Y-105415682D01*
X217136767Y-105422027D01*
G37*
X374904166Y-68239194D02*
X374570833Y-67763003D01*
X374332738Y-68239194D02*
X374332738Y-67239194D01*
X374332738Y-67239194D02*
X374713690Y-67239194D01*
X374713690Y-67239194D02*
X374808928Y-67286813D01*
X374808928Y-67286813D02*
X374856547Y-67334432D01*
X374856547Y-67334432D02*
X374904166Y-67429670D01*
X374904166Y-67429670D02*
X374904166Y-67572527D01*
X374904166Y-67572527D02*
X374856547Y-67667765D01*
X374856547Y-67667765D02*
X374808928Y-67715384D01*
X374808928Y-67715384D02*
X374713690Y-67763003D01*
X374713690Y-67763003D02*
X374332738Y-67763003D01*
X375332738Y-67715384D02*
X375666071Y-67715384D01*
X375808928Y-68239194D02*
X375332738Y-68239194D01*
X375332738Y-68239194D02*
X375332738Y-67239194D01*
X375332738Y-67239194D02*
X375808928Y-67239194D01*
X376570833Y-67715384D02*
X376237500Y-67715384D01*
X376237500Y-68239194D02*
X376237500Y-67239194D01*
X376237500Y-67239194D02*
X376713690Y-67239194D01*
X377237500Y-67239194D02*
X377237500Y-67477289D01*
X376999405Y-67382051D02*
X377237500Y-67477289D01*
X377237500Y-67477289D02*
X377475595Y-67382051D01*
X377094643Y-67667765D02*
X377237500Y-67477289D01*
X377237500Y-67477289D02*
X377380357Y-67667765D01*
X377999405Y-67239194D02*
X377999405Y-67477289D01*
X377761310Y-67382051D02*
X377999405Y-67477289D01*
X377999405Y-67477289D02*
X378237500Y-67382051D01*
X377856548Y-67667765D02*
X377999405Y-67477289D01*
X377999405Y-67477289D02*
X378142262Y-67667765D01*
X210597916Y-113829819D02*
X210264583Y-113353628D01*
X210026488Y-113829819D02*
X210026488Y-112829819D01*
X210026488Y-112829819D02*
X210407440Y-112829819D01*
X210407440Y-112829819D02*
X210502678Y-112877438D01*
X210502678Y-112877438D02*
X210550297Y-112925057D01*
X210550297Y-112925057D02*
X210597916Y-113020295D01*
X210597916Y-113020295D02*
X210597916Y-113163152D01*
X210597916Y-113163152D02*
X210550297Y-113258390D01*
X210550297Y-113258390D02*
X210502678Y-113306009D01*
X210502678Y-113306009D02*
X210407440Y-113353628D01*
X210407440Y-113353628D02*
X210026488Y-113353628D01*
X211026488Y-113306009D02*
X211359821Y-113306009D01*
X211502678Y-113829819D02*
X211026488Y-113829819D01*
X211026488Y-113829819D02*
X211026488Y-112829819D01*
X211026488Y-112829819D02*
X211502678Y-112829819D01*
X212264583Y-113306009D02*
X211931250Y-113306009D01*
X211931250Y-113829819D02*
X211931250Y-112829819D01*
X211931250Y-112829819D02*
X212407440Y-112829819D01*
X212931250Y-112829819D02*
X212931250Y-113067914D01*
X212693155Y-112972676D02*
X212931250Y-113067914D01*
X212931250Y-113067914D02*
X213169345Y-112972676D01*
X212788393Y-113258390D02*
X212931250Y-113067914D01*
X212931250Y-113067914D02*
X213074107Y-113258390D01*
X213693155Y-112829819D02*
X213693155Y-113067914D01*
X213455060Y-112972676D02*
X213693155Y-113067914D01*
X213693155Y-113067914D02*
X213931250Y-112972676D01*
X213550298Y-113258390D02*
X213693155Y-113067914D01*
X213693155Y-113067914D02*
X213836012Y-113258390D01*
X177260416Y-96317319D02*
X176927083Y-95841128D01*
X176688988Y-96317319D02*
X176688988Y-95317319D01*
X176688988Y-95317319D02*
X177069940Y-95317319D01*
X177069940Y-95317319D02*
X177165178Y-95364938D01*
X177165178Y-95364938D02*
X177212797Y-95412557D01*
X177212797Y-95412557D02*
X177260416Y-95507795D01*
X177260416Y-95507795D02*
X177260416Y-95650652D01*
X177260416Y-95650652D02*
X177212797Y-95745890D01*
X177212797Y-95745890D02*
X177165178Y-95793509D01*
X177165178Y-95793509D02*
X177069940Y-95841128D01*
X177069940Y-95841128D02*
X176688988Y-95841128D01*
X177688988Y-95793509D02*
X178022321Y-95793509D01*
X178165178Y-96317319D02*
X177688988Y-96317319D01*
X177688988Y-96317319D02*
X177688988Y-95317319D01*
X177688988Y-95317319D02*
X178165178Y-95317319D01*
X178927083Y-95793509D02*
X178593750Y-95793509D01*
X178593750Y-96317319D02*
X178593750Y-95317319D01*
X178593750Y-95317319D02*
X179069940Y-95317319D01*
X179593750Y-95317319D02*
X179593750Y-95555414D01*
X179355655Y-95460176D02*
X179593750Y-95555414D01*
X179593750Y-95555414D02*
X179831845Y-95460176D01*
X179450893Y-95745890D02*
X179593750Y-95555414D01*
X179593750Y-95555414D02*
X179736607Y-95745890D01*
X180355655Y-95317319D02*
X180355655Y-95555414D01*
X180117560Y-95460176D02*
X180355655Y-95555414D01*
X180355655Y-95555414D02*
X180593750Y-95460176D01*
X180212798Y-95745890D02*
X180355655Y-95555414D01*
X180355655Y-95555414D02*
X180498512Y-95745890D01*
X222273214Y-97054819D02*
X222273214Y-96054819D01*
X222273214Y-96054819D02*
X222511309Y-96054819D01*
X222511309Y-96054819D02*
X222654166Y-96102438D01*
X222654166Y-96102438D02*
X222749404Y-96197676D01*
X222749404Y-96197676D02*
X222797023Y-96292914D01*
X222797023Y-96292914D02*
X222844642Y-96483390D01*
X222844642Y-96483390D02*
X222844642Y-96626247D01*
X222844642Y-96626247D02*
X222797023Y-96816723D01*
X222797023Y-96816723D02*
X222749404Y-96911961D01*
X222749404Y-96911961D02*
X222654166Y-97007200D01*
X222654166Y-97007200D02*
X222511309Y-97054819D01*
X222511309Y-97054819D02*
X222273214Y-97054819D01*
X223177976Y-96054819D02*
X223844642Y-96054819D01*
X223844642Y-96054819D02*
X223416071Y-97054819D01*
X224177976Y-96150057D02*
X224225595Y-96102438D01*
X224225595Y-96102438D02*
X224320833Y-96054819D01*
X224320833Y-96054819D02*
X224558928Y-96054819D01*
X224558928Y-96054819D02*
X224654166Y-96102438D01*
X224654166Y-96102438D02*
X224701785Y-96150057D01*
X224701785Y-96150057D02*
X224749404Y-96245295D01*
X224749404Y-96245295D02*
X224749404Y-96340533D01*
X224749404Y-96340533D02*
X224701785Y-96483390D01*
X224701785Y-96483390D02*
X224130357Y-97054819D01*
X224130357Y-97054819D02*
X224749404Y-97054819D01*
X374904166Y-22498569D02*
X374570833Y-22022378D01*
X374332738Y-22498569D02*
X374332738Y-21498569D01*
X374332738Y-21498569D02*
X374713690Y-21498569D01*
X374713690Y-21498569D02*
X374808928Y-21546188D01*
X374808928Y-21546188D02*
X374856547Y-21593807D01*
X374856547Y-21593807D02*
X374904166Y-21689045D01*
X374904166Y-21689045D02*
X374904166Y-21831902D01*
X374904166Y-21831902D02*
X374856547Y-21927140D01*
X374856547Y-21927140D02*
X374808928Y-21974759D01*
X374808928Y-21974759D02*
X374713690Y-22022378D01*
X374713690Y-22022378D02*
X374332738Y-22022378D01*
X375332738Y-21974759D02*
X375666071Y-21974759D01*
X375808928Y-22498569D02*
X375332738Y-22498569D01*
X375332738Y-22498569D02*
X375332738Y-21498569D01*
X375332738Y-21498569D02*
X375808928Y-21498569D01*
X376570833Y-21974759D02*
X376237500Y-21974759D01*
X376237500Y-22498569D02*
X376237500Y-21498569D01*
X376237500Y-21498569D02*
X376713690Y-21498569D01*
X377237500Y-21498569D02*
X377237500Y-21736664D01*
X376999405Y-21641426D02*
X377237500Y-21736664D01*
X377237500Y-21736664D02*
X377475595Y-21641426D01*
X377094643Y-21927140D02*
X377237500Y-21736664D01*
X377237500Y-21736664D02*
X377380357Y-21927140D01*
X377999405Y-21498569D02*
X377999405Y-21736664D01*
X377761310Y-21641426D02*
X377999405Y-21736664D01*
X377999405Y-21736664D02*
X378237500Y-21641426D01*
X377856548Y-21927140D02*
X377999405Y-21736664D01*
X377999405Y-21736664D02*
X378142262Y-21927140D01*
X145986548Y-113111366D02*
X146748453Y-113111366D01*
X146367500Y-113492319D02*
X146367500Y-112730414D01*
X148526548Y-113111366D02*
X149288453Y-113111366D01*
X27241666Y-112986069D02*
X26908333Y-112509878D01*
X26670238Y-112986069D02*
X26670238Y-111986069D01*
X26670238Y-111986069D02*
X27051190Y-111986069D01*
X27051190Y-111986069D02*
X27146428Y-112033688D01*
X27146428Y-112033688D02*
X27194047Y-112081307D01*
X27194047Y-112081307D02*
X27241666Y-112176545D01*
X27241666Y-112176545D02*
X27241666Y-112319402D01*
X27241666Y-112319402D02*
X27194047Y-112414640D01*
X27194047Y-112414640D02*
X27146428Y-112462259D01*
X27146428Y-112462259D02*
X27051190Y-112509878D01*
X27051190Y-112509878D02*
X26670238Y-112509878D01*
X27670238Y-112462259D02*
X28003571Y-112462259D01*
X28146428Y-112986069D02*
X27670238Y-112986069D01*
X27670238Y-112986069D02*
X27670238Y-111986069D01*
X27670238Y-111986069D02*
X28146428Y-111986069D01*
X28908333Y-112462259D02*
X28575000Y-112462259D01*
X28575000Y-112986069D02*
X28575000Y-111986069D01*
X28575000Y-111986069D02*
X29051190Y-111986069D01*
X29575000Y-111986069D02*
X29575000Y-112224164D01*
X29336905Y-112128926D02*
X29575000Y-112224164D01*
X29575000Y-112224164D02*
X29813095Y-112128926D01*
X29432143Y-112414640D02*
X29575000Y-112224164D01*
X29575000Y-112224164D02*
X29717857Y-112414640D01*
X30336905Y-111986069D02*
X30336905Y-112224164D01*
X30098810Y-112128926D02*
X30336905Y-112224164D01*
X30336905Y-112224164D02*
X30575000Y-112128926D01*
X30194048Y-112414640D02*
X30336905Y-112224164D01*
X30336905Y-112224164D02*
X30479762Y-112414640D01*
X187223569Y-101364285D02*
X186223569Y-101364285D01*
X186223569Y-101364285D02*
X186223569Y-101126190D01*
X186223569Y-101126190D02*
X186271188Y-100983333D01*
X186271188Y-100983333D02*
X186366426Y-100888095D01*
X186366426Y-100888095D02*
X186461664Y-100840476D01*
X186461664Y-100840476D02*
X186652140Y-100792857D01*
X186652140Y-100792857D02*
X186794997Y-100792857D01*
X186794997Y-100792857D02*
X186985473Y-100840476D01*
X186985473Y-100840476D02*
X187080711Y-100888095D01*
X187080711Y-100888095D02*
X187175950Y-100983333D01*
X187175950Y-100983333D02*
X187223569Y-101126190D01*
X187223569Y-101126190D02*
X187223569Y-101364285D01*
X186223569Y-100459523D02*
X186223569Y-99840476D01*
X186223569Y-99840476D02*
X186604521Y-100173809D01*
X186604521Y-100173809D02*
X186604521Y-100030952D01*
X186604521Y-100030952D02*
X186652140Y-99935714D01*
X186652140Y-99935714D02*
X186699759Y-99888095D01*
X186699759Y-99888095D02*
X186794997Y-99840476D01*
X186794997Y-99840476D02*
X187033092Y-99840476D01*
X187033092Y-99840476D02*
X187128330Y-99888095D01*
X187128330Y-99888095D02*
X187175950Y-99935714D01*
X187175950Y-99935714D02*
X187223569Y-100030952D01*
X187223569Y-100030952D02*
X187223569Y-100316666D01*
X187223569Y-100316666D02*
X187175950Y-100411904D01*
X187175950Y-100411904D02*
X187128330Y-100459523D01*
X186223569Y-99507142D02*
X186223569Y-98840476D01*
X186223569Y-98840476D02*
X187223569Y-99269047D01*
X220333333Y-67302009D02*
X220476190Y-67349628D01*
X220476190Y-67349628D02*
X220523809Y-67397247D01*
X220523809Y-67397247D02*
X220571428Y-67492485D01*
X220571428Y-67492485D02*
X220571428Y-67635342D01*
X220571428Y-67635342D02*
X220523809Y-67730580D01*
X220523809Y-67730580D02*
X220476190Y-67778200D01*
X220476190Y-67778200D02*
X220380952Y-67825819D01*
X220380952Y-67825819D02*
X220000000Y-67825819D01*
X220000000Y-67825819D02*
X220000000Y-66825819D01*
X220000000Y-66825819D02*
X220333333Y-66825819D01*
X220333333Y-66825819D02*
X220428571Y-66873438D01*
X220428571Y-66873438D02*
X220476190Y-66921057D01*
X220476190Y-66921057D02*
X220523809Y-67016295D01*
X220523809Y-67016295D02*
X220523809Y-67111533D01*
X220523809Y-67111533D02*
X220476190Y-67206771D01*
X220476190Y-67206771D02*
X220428571Y-67254390D01*
X220428571Y-67254390D02*
X220333333Y-67302009D01*
X220333333Y-67302009D02*
X220000000Y-67302009D01*
X221000000Y-67825819D02*
X221000000Y-67159152D01*
X221000000Y-67349628D02*
X221047619Y-67254390D01*
X221047619Y-67254390D02*
X221095238Y-67206771D01*
X221095238Y-67206771D02*
X221190476Y-67159152D01*
X221190476Y-67159152D02*
X221285714Y-67159152D01*
X222047619Y-67825819D02*
X222047619Y-66825819D01*
X222047619Y-67778200D02*
X221952381Y-67825819D01*
X221952381Y-67825819D02*
X221761905Y-67825819D01*
X221761905Y-67825819D02*
X221666667Y-67778200D01*
X221666667Y-67778200D02*
X221619048Y-67730580D01*
X221619048Y-67730580D02*
X221571429Y-67635342D01*
X221571429Y-67635342D02*
X221571429Y-67349628D01*
X221571429Y-67349628D02*
X221619048Y-67254390D01*
X221619048Y-67254390D02*
X221666667Y-67206771D01*
X221666667Y-67206771D02*
X221761905Y-67159152D01*
X221761905Y-67159152D02*
X221952381Y-67159152D01*
X221952381Y-67159152D02*
X222047619Y-67206771D01*
X222476191Y-66921057D02*
X222523810Y-66873438D01*
X222523810Y-66873438D02*
X222619048Y-66825819D01*
X222619048Y-66825819D02*
X222857143Y-66825819D01*
X222857143Y-66825819D02*
X222952381Y-66873438D01*
X222952381Y-66873438D02*
X223000000Y-66921057D01*
X223000000Y-66921057D02*
X223047619Y-67016295D01*
X223047619Y-67016295D02*
X223047619Y-67111533D01*
X223047619Y-67111533D02*
X223000000Y-67254390D01*
X223000000Y-67254390D02*
X222428572Y-67825819D01*
X222428572Y-67825819D02*
X223047619Y-67825819D01*
X213092319Y-91389285D02*
X212092319Y-91389285D01*
X212092319Y-91389285D02*
X212092319Y-91151190D01*
X212092319Y-91151190D02*
X212139938Y-91008333D01*
X212139938Y-91008333D02*
X212235176Y-90913095D01*
X212235176Y-90913095D02*
X212330414Y-90865476D01*
X212330414Y-90865476D02*
X212520890Y-90817857D01*
X212520890Y-90817857D02*
X212663747Y-90817857D01*
X212663747Y-90817857D02*
X212854223Y-90865476D01*
X212854223Y-90865476D02*
X212949461Y-90913095D01*
X212949461Y-90913095D02*
X213044700Y-91008333D01*
X213044700Y-91008333D02*
X213092319Y-91151190D01*
X213092319Y-91151190D02*
X213092319Y-91389285D01*
X212092319Y-90484523D02*
X212092319Y-89817857D01*
X212092319Y-89817857D02*
X213092319Y-90246428D01*
X212092319Y-89532142D02*
X212092319Y-88913095D01*
X212092319Y-88913095D02*
X212473271Y-89246428D01*
X212473271Y-89246428D02*
X212473271Y-89103571D01*
X212473271Y-89103571D02*
X212520890Y-89008333D01*
X212520890Y-89008333D02*
X212568509Y-88960714D01*
X212568509Y-88960714D02*
X212663747Y-88913095D01*
X212663747Y-88913095D02*
X212901842Y-88913095D01*
X212901842Y-88913095D02*
X212997080Y-88960714D01*
X212997080Y-88960714D02*
X213044700Y-89008333D01*
X213044700Y-89008333D02*
X213092319Y-89103571D01*
X213092319Y-89103571D02*
X213092319Y-89389285D01*
X213092319Y-89389285D02*
X213044700Y-89484523D01*
X213044700Y-89484523D02*
X212997080Y-89532142D01*
X190248569Y-101339285D02*
X189248569Y-101339285D01*
X189248569Y-101339285D02*
X189248569Y-101101190D01*
X189248569Y-101101190D02*
X189296188Y-100958333D01*
X189296188Y-100958333D02*
X189391426Y-100863095D01*
X189391426Y-100863095D02*
X189486664Y-100815476D01*
X189486664Y-100815476D02*
X189677140Y-100767857D01*
X189677140Y-100767857D02*
X189819997Y-100767857D01*
X189819997Y-100767857D02*
X190010473Y-100815476D01*
X190010473Y-100815476D02*
X190105711Y-100863095D01*
X190105711Y-100863095D02*
X190200950Y-100958333D01*
X190200950Y-100958333D02*
X190248569Y-101101190D01*
X190248569Y-101101190D02*
X190248569Y-101339285D01*
X189248569Y-100434523D02*
X189248569Y-99815476D01*
X189248569Y-99815476D02*
X189629521Y-100148809D01*
X189629521Y-100148809D02*
X189629521Y-100005952D01*
X189629521Y-100005952D02*
X189677140Y-99910714D01*
X189677140Y-99910714D02*
X189724759Y-99863095D01*
X189724759Y-99863095D02*
X189819997Y-99815476D01*
X189819997Y-99815476D02*
X190058092Y-99815476D01*
X190058092Y-99815476D02*
X190153330Y-99863095D01*
X190153330Y-99863095D02*
X190200950Y-99910714D01*
X190200950Y-99910714D02*
X190248569Y-100005952D01*
X190248569Y-100005952D02*
X190248569Y-100291666D01*
X190248569Y-100291666D02*
X190200950Y-100386904D01*
X190200950Y-100386904D02*
X190153330Y-100434523D01*
X189248569Y-98958333D02*
X189248569Y-99148809D01*
X189248569Y-99148809D02*
X189296188Y-99244047D01*
X189296188Y-99244047D02*
X189343807Y-99291666D01*
X189343807Y-99291666D02*
X189486664Y-99386904D01*
X189486664Y-99386904D02*
X189677140Y-99434523D01*
X189677140Y-99434523D02*
X190058092Y-99434523D01*
X190058092Y-99434523D02*
X190153330Y-99386904D01*
X190153330Y-99386904D02*
X190200950Y-99339285D01*
X190200950Y-99339285D02*
X190248569Y-99244047D01*
X190248569Y-99244047D02*
X190248569Y-99053571D01*
X190248569Y-99053571D02*
X190200950Y-98958333D01*
X190200950Y-98958333D02*
X190153330Y-98910714D01*
X190153330Y-98910714D02*
X190058092Y-98863095D01*
X190058092Y-98863095D02*
X189819997Y-98863095D01*
X189819997Y-98863095D02*
X189724759Y-98910714D01*
X189724759Y-98910714D02*
X189677140Y-98958333D01*
X189677140Y-98958333D02*
X189629521Y-99053571D01*
X189629521Y-99053571D02*
X189629521Y-99244047D01*
X189629521Y-99244047D02*
X189677140Y-99339285D01*
X189677140Y-99339285D02*
X189724759Y-99386904D01*
X189724759Y-99386904D02*
X189819997Y-99434523D01*
X27241666Y-67742319D02*
X26908333Y-67266128D01*
X26670238Y-67742319D02*
X26670238Y-66742319D01*
X26670238Y-66742319D02*
X27051190Y-66742319D01*
X27051190Y-66742319D02*
X27146428Y-66789938D01*
X27146428Y-66789938D02*
X27194047Y-66837557D01*
X27194047Y-66837557D02*
X27241666Y-66932795D01*
X27241666Y-66932795D02*
X27241666Y-67075652D01*
X27241666Y-67075652D02*
X27194047Y-67170890D01*
X27194047Y-67170890D02*
X27146428Y-67218509D01*
X27146428Y-67218509D02*
X27051190Y-67266128D01*
X27051190Y-67266128D02*
X26670238Y-67266128D01*
X27670238Y-67218509D02*
X28003571Y-67218509D01*
X28146428Y-67742319D02*
X27670238Y-67742319D01*
X27670238Y-67742319D02*
X27670238Y-66742319D01*
X27670238Y-66742319D02*
X28146428Y-66742319D01*
X28908333Y-67218509D02*
X28575000Y-67218509D01*
X28575000Y-67742319D02*
X28575000Y-66742319D01*
X28575000Y-66742319D02*
X29051190Y-66742319D01*
X29575000Y-66742319D02*
X29575000Y-66980414D01*
X29336905Y-66885176D02*
X29575000Y-66980414D01*
X29575000Y-66980414D02*
X29813095Y-66885176D01*
X29432143Y-67170890D02*
X29575000Y-66980414D01*
X29575000Y-66980414D02*
X29717857Y-67170890D01*
X30336905Y-66742319D02*
X30336905Y-66980414D01*
X30098810Y-66885176D02*
X30336905Y-66980414D01*
X30336905Y-66980414D02*
X30575000Y-66885176D01*
X30194048Y-67170890D02*
X30336905Y-66980414D01*
X30336905Y-66980414D02*
X30479762Y-67170890D01*
X374904166Y-112986069D02*
X374570833Y-112509878D01*
X374332738Y-112986069D02*
X374332738Y-111986069D01*
X374332738Y-111986069D02*
X374713690Y-111986069D01*
X374713690Y-111986069D02*
X374808928Y-112033688D01*
X374808928Y-112033688D02*
X374856547Y-112081307D01*
X374856547Y-112081307D02*
X374904166Y-112176545D01*
X374904166Y-112176545D02*
X374904166Y-112319402D01*
X374904166Y-112319402D02*
X374856547Y-112414640D01*
X374856547Y-112414640D02*
X374808928Y-112462259D01*
X374808928Y-112462259D02*
X374713690Y-112509878D01*
X374713690Y-112509878D02*
X374332738Y-112509878D01*
X375332738Y-112462259D02*
X375666071Y-112462259D01*
X375808928Y-112986069D02*
X375332738Y-112986069D01*
X375332738Y-112986069D02*
X375332738Y-111986069D01*
X375332738Y-111986069D02*
X375808928Y-111986069D01*
X376570833Y-112462259D02*
X376237500Y-112462259D01*
X376237500Y-112986069D02*
X376237500Y-111986069D01*
X376237500Y-111986069D02*
X376713690Y-111986069D01*
X377237500Y-111986069D02*
X377237500Y-112224164D01*
X376999405Y-112128926D02*
X377237500Y-112224164D01*
X377237500Y-112224164D02*
X377475595Y-112128926D01*
X377094643Y-112414640D02*
X377237500Y-112224164D01*
X377237500Y-112224164D02*
X377380357Y-112414640D01*
X377999405Y-111986069D02*
X377999405Y-112224164D01*
X377761310Y-112128926D02*
X377999405Y-112224164D01*
X377999405Y-112224164D02*
X378237500Y-112128926D01*
X377856548Y-112414640D02*
X377999405Y-112224164D01*
X377999405Y-112224164D02*
X378142262Y-112414640D01*
X179410714Y-92136069D02*
X179410714Y-91136069D01*
X179410714Y-91136069D02*
X179648809Y-91136069D01*
X179648809Y-91136069D02*
X179791666Y-91183688D01*
X179791666Y-91183688D02*
X179886904Y-91278926D01*
X179886904Y-91278926D02*
X179934523Y-91374164D01*
X179934523Y-91374164D02*
X179982142Y-91564640D01*
X179982142Y-91564640D02*
X179982142Y-91707497D01*
X179982142Y-91707497D02*
X179934523Y-91897973D01*
X179934523Y-91897973D02*
X179886904Y-91993211D01*
X179886904Y-91993211D02*
X179791666Y-92088450D01*
X179791666Y-92088450D02*
X179648809Y-92136069D01*
X179648809Y-92136069D02*
X179410714Y-92136069D01*
X180315476Y-91136069D02*
X180934523Y-91136069D01*
X180934523Y-91136069D02*
X180601190Y-91517021D01*
X180601190Y-91517021D02*
X180744047Y-91517021D01*
X180744047Y-91517021D02*
X180839285Y-91564640D01*
X180839285Y-91564640D02*
X180886904Y-91612259D01*
X180886904Y-91612259D02*
X180934523Y-91707497D01*
X180934523Y-91707497D02*
X180934523Y-91945592D01*
X180934523Y-91945592D02*
X180886904Y-92040830D01*
X180886904Y-92040830D02*
X180839285Y-92088450D01*
X180839285Y-92088450D02*
X180744047Y-92136069D01*
X180744047Y-92136069D02*
X180458333Y-92136069D01*
X180458333Y-92136069D02*
X180363095Y-92088450D01*
X180363095Y-92088450D02*
X180315476Y-92040830D01*
X181839285Y-91136069D02*
X181363095Y-91136069D01*
X181363095Y-91136069D02*
X181315476Y-91612259D01*
X181315476Y-91612259D02*
X181363095Y-91564640D01*
X181363095Y-91564640D02*
X181458333Y-91517021D01*
X181458333Y-91517021D02*
X181696428Y-91517021D01*
X181696428Y-91517021D02*
X181791666Y-91564640D01*
X181791666Y-91564640D02*
X181839285Y-91612259D01*
X181839285Y-91612259D02*
X181886904Y-91707497D01*
X181886904Y-91707497D02*
X181886904Y-91945592D01*
X181886904Y-91945592D02*
X181839285Y-92040830D01*
X181839285Y-92040830D02*
X181791666Y-92088450D01*
X181791666Y-92088450D02*
X181696428Y-92136069D01*
X181696428Y-92136069D02*
X181458333Y-92136069D01*
X181458333Y-92136069D02*
X181363095Y-92088450D01*
X181363095Y-92088450D02*
X181315476Y-92040830D01*
X216117319Y-91489285D02*
X215117319Y-91489285D01*
X215117319Y-91489285D02*
X215117319Y-91251190D01*
X215117319Y-91251190D02*
X215164938Y-91108333D01*
X215164938Y-91108333D02*
X215260176Y-91013095D01*
X215260176Y-91013095D02*
X215355414Y-90965476D01*
X215355414Y-90965476D02*
X215545890Y-90917857D01*
X215545890Y-90917857D02*
X215688747Y-90917857D01*
X215688747Y-90917857D02*
X215879223Y-90965476D01*
X215879223Y-90965476D02*
X215974461Y-91013095D01*
X215974461Y-91013095D02*
X216069700Y-91108333D01*
X216069700Y-91108333D02*
X216117319Y-91251190D01*
X216117319Y-91251190D02*
X216117319Y-91489285D01*
X215117319Y-90584523D02*
X215117319Y-89917857D01*
X215117319Y-89917857D02*
X216117319Y-90346428D01*
X215450652Y-89108333D02*
X216117319Y-89108333D01*
X215069700Y-89346428D02*
X215783985Y-89584523D01*
X215783985Y-89584523D02*
X215783985Y-88965476D01*
X224885416Y-96317319D02*
X224552083Y-95841128D01*
X224313988Y-96317319D02*
X224313988Y-95317319D01*
X224313988Y-95317319D02*
X224694940Y-95317319D01*
X224694940Y-95317319D02*
X224790178Y-95364938D01*
X224790178Y-95364938D02*
X224837797Y-95412557D01*
X224837797Y-95412557D02*
X224885416Y-95507795D01*
X224885416Y-95507795D02*
X224885416Y-95650652D01*
X224885416Y-95650652D02*
X224837797Y-95745890D01*
X224837797Y-95745890D02*
X224790178Y-95793509D01*
X224790178Y-95793509D02*
X224694940Y-95841128D01*
X224694940Y-95841128D02*
X224313988Y-95841128D01*
X225313988Y-95793509D02*
X225647321Y-95793509D01*
X225790178Y-96317319D02*
X225313988Y-96317319D01*
X225313988Y-96317319D02*
X225313988Y-95317319D01*
X225313988Y-95317319D02*
X225790178Y-95317319D01*
X226552083Y-95793509D02*
X226218750Y-95793509D01*
X226218750Y-96317319D02*
X226218750Y-95317319D01*
X226218750Y-95317319D02*
X226694940Y-95317319D01*
X227218750Y-95317319D02*
X227218750Y-95555414D01*
X226980655Y-95460176D02*
X227218750Y-95555414D01*
X227218750Y-95555414D02*
X227456845Y-95460176D01*
X227075893Y-95745890D02*
X227218750Y-95555414D01*
X227218750Y-95555414D02*
X227361607Y-95745890D01*
X227980655Y-95317319D02*
X227980655Y-95555414D01*
X227742560Y-95460176D02*
X227980655Y-95555414D01*
X227980655Y-95555414D02*
X228218750Y-95460176D01*
X227837798Y-95745890D02*
X227980655Y-95555414D01*
X227980655Y-95555414D02*
X228123512Y-95745890D01*
X180677976Y-105825950D02*
X180820833Y-105873569D01*
X180820833Y-105873569D02*
X181058928Y-105873569D01*
X181058928Y-105873569D02*
X181154166Y-105825950D01*
X181154166Y-105825950D02*
X181201785Y-105778330D01*
X181201785Y-105778330D02*
X181249404Y-105683092D01*
X181249404Y-105683092D02*
X181249404Y-105587854D01*
X181249404Y-105587854D02*
X181201785Y-105492616D01*
X181201785Y-105492616D02*
X181154166Y-105444997D01*
X181154166Y-105444997D02*
X181058928Y-105397378D01*
X181058928Y-105397378D02*
X180868452Y-105349759D01*
X180868452Y-105349759D02*
X180773214Y-105302140D01*
X180773214Y-105302140D02*
X180725595Y-105254521D01*
X180725595Y-105254521D02*
X180677976Y-105159283D01*
X180677976Y-105159283D02*
X180677976Y-105064045D01*
X180677976Y-105064045D02*
X180725595Y-104968807D01*
X180725595Y-104968807D02*
X180773214Y-104921188D01*
X180773214Y-104921188D02*
X180868452Y-104873569D01*
X180868452Y-104873569D02*
X181106547Y-104873569D01*
X181106547Y-104873569D02*
X181249404Y-104921188D01*
X181582738Y-104873569D02*
X181820833Y-105873569D01*
X181820833Y-105873569D02*
X182011309Y-105159283D01*
X182011309Y-105159283D02*
X182201785Y-105873569D01*
X182201785Y-105873569D02*
X182439881Y-104873569D01*
X182725595Y-104873569D02*
X183344642Y-104873569D01*
X183344642Y-104873569D02*
X183011309Y-105254521D01*
X183011309Y-105254521D02*
X183154166Y-105254521D01*
X183154166Y-105254521D02*
X183249404Y-105302140D01*
X183249404Y-105302140D02*
X183297023Y-105349759D01*
X183297023Y-105349759D02*
X183344642Y-105444997D01*
X183344642Y-105444997D02*
X183344642Y-105683092D01*
X183344642Y-105683092D02*
X183297023Y-105778330D01*
X183297023Y-105778330D02*
X183249404Y-105825950D01*
X183249404Y-105825950D02*
X183154166Y-105873569D01*
X183154166Y-105873569D02*
X182868452Y-105873569D01*
X182868452Y-105873569D02*
X182773214Y-105825950D01*
X182773214Y-105825950D02*
X182725595Y-105778330D01*
X184249404Y-104873569D02*
X183773214Y-104873569D01*
X183773214Y-104873569D02*
X183725595Y-105349759D01*
X183725595Y-105349759D02*
X183773214Y-105302140D01*
X183773214Y-105302140D02*
X183868452Y-105254521D01*
X183868452Y-105254521D02*
X184106547Y-105254521D01*
X184106547Y-105254521D02*
X184201785Y-105302140D01*
X184201785Y-105302140D02*
X184249404Y-105349759D01*
X184249404Y-105349759D02*
X184297023Y-105444997D01*
X184297023Y-105444997D02*
X184297023Y-105683092D01*
X184297023Y-105683092D02*
X184249404Y-105778330D01*
X184249404Y-105778330D02*
X184201785Y-105825950D01*
X184201785Y-105825950D02*
X184106547Y-105873569D01*
X184106547Y-105873569D02*
X183868452Y-105873569D01*
X183868452Y-105873569D02*
X183773214Y-105825950D01*
X183773214Y-105825950D02*
X183725595Y-105778330D01*
X27241666Y-22498569D02*
X26908333Y-22022378D01*
X26670238Y-22498569D02*
X26670238Y-21498569D01*
X26670238Y-21498569D02*
X27051190Y-21498569D01*
X27051190Y-21498569D02*
X27146428Y-21546188D01*
X27146428Y-21546188D02*
X27194047Y-21593807D01*
X27194047Y-21593807D02*
X27241666Y-21689045D01*
X27241666Y-21689045D02*
X27241666Y-21831902D01*
X27241666Y-21831902D02*
X27194047Y-21927140D01*
X27194047Y-21927140D02*
X27146428Y-21974759D01*
X27146428Y-21974759D02*
X27051190Y-22022378D01*
X27051190Y-22022378D02*
X26670238Y-22022378D01*
X27670238Y-21974759D02*
X28003571Y-21974759D01*
X28146428Y-22498569D02*
X27670238Y-22498569D01*
X27670238Y-22498569D02*
X27670238Y-21498569D01*
X27670238Y-21498569D02*
X28146428Y-21498569D01*
X28908333Y-21974759D02*
X28575000Y-21974759D01*
X28575000Y-22498569D02*
X28575000Y-21498569D01*
X28575000Y-21498569D02*
X29051190Y-21498569D01*
X29575000Y-21498569D02*
X29575000Y-21736664D01*
X29336905Y-21641426D02*
X29575000Y-21736664D01*
X29575000Y-21736664D02*
X29813095Y-21641426D01*
X29432143Y-21927140D02*
X29575000Y-21736664D01*
X29575000Y-21736664D02*
X29717857Y-21927140D01*
X30336905Y-21498569D02*
X30336905Y-21736664D01*
X30098810Y-21641426D02*
X30336905Y-21736664D01*
X30336905Y-21736664D02*
X30575000Y-21641426D01*
X30194048Y-21927140D02*
X30336905Y-21736664D01*
X30336905Y-21736664D02*
X30479762Y-21927140D01*
X194757910Y-74124104D02*
X195234100Y-74124104D01*
X194662672Y-74409819D02*
X194996005Y-73409819D01*
X194996005Y-73409819D02*
X195329338Y-74409819D01*
X196186481Y-74409819D02*
X195615053Y-74409819D01*
X195900767Y-74409819D02*
X195900767Y-73409819D01*
X195900767Y-73409819D02*
X195805529Y-73552676D01*
X195805529Y-73552676D02*
X195710291Y-73647914D01*
X195710291Y-73647914D02*
X195615053Y-73695533D01*
X255682798Y-113111366D02*
X256444703Y-113111366D01*
X253142798Y-113111366D02*
X253904703Y-113111366D01*
X253523750Y-113492319D02*
X253523750Y-112730414D01*
X189166666Y-113804819D02*
X188833333Y-113328628D01*
X188595238Y-113804819D02*
X188595238Y-112804819D01*
X188595238Y-112804819D02*
X188976190Y-112804819D01*
X188976190Y-112804819D02*
X189071428Y-112852438D01*
X189071428Y-112852438D02*
X189119047Y-112900057D01*
X189119047Y-112900057D02*
X189166666Y-112995295D01*
X189166666Y-112995295D02*
X189166666Y-113138152D01*
X189166666Y-113138152D02*
X189119047Y-113233390D01*
X189119047Y-113233390D02*
X189071428Y-113281009D01*
X189071428Y-113281009D02*
X188976190Y-113328628D01*
X188976190Y-113328628D02*
X188595238Y-113328628D01*
X189595238Y-113281009D02*
X189928571Y-113281009D01*
X190071428Y-113804819D02*
X189595238Y-113804819D01*
X189595238Y-113804819D02*
X189595238Y-112804819D01*
X189595238Y-112804819D02*
X190071428Y-112804819D01*
X190833333Y-113281009D02*
X190500000Y-113281009D01*
X190500000Y-113804819D02*
X190500000Y-112804819D01*
X190500000Y-112804819D02*
X190976190Y-112804819D01*
X191500000Y-112804819D02*
X191500000Y-113042914D01*
X191261905Y-112947676D02*
X191500000Y-113042914D01*
X191500000Y-113042914D02*
X191738095Y-112947676D01*
X191357143Y-113233390D02*
X191500000Y-113042914D01*
X191500000Y-113042914D02*
X191642857Y-113233390D01*
X192261905Y-112804819D02*
X192261905Y-113042914D01*
X192023810Y-112947676D02*
X192261905Y-113042914D01*
X192261905Y-113042914D02*
X192500000Y-112947676D01*
X192119048Y-113233390D02*
X192261905Y-113042914D01*
X192261905Y-113042914D02*
X192404762Y-113233390D01*
X232826660Y-74124104D02*
X233302850Y-74124104D01*
X232731422Y-74409819D02*
X233064755Y-73409819D01*
X233064755Y-73409819D02*
X233398088Y-74409819D01*
X233683803Y-73505057D02*
X233731422Y-73457438D01*
X233731422Y-73457438D02*
X233826660Y-73409819D01*
X233826660Y-73409819D02*
X234064755Y-73409819D01*
X234064755Y-73409819D02*
X234159993Y-73457438D01*
X234159993Y-73457438D02*
X234207612Y-73505057D01*
X234207612Y-73505057D02*
X234255231Y-73600295D01*
X234255231Y-73600295D02*
X234255231Y-73695533D01*
X234255231Y-73695533D02*
X234207612Y-73838390D01*
X234207612Y-73838390D02*
X233636184Y-74409819D01*
X233636184Y-74409819D02*
X234255231Y-74409819D01*
X180333333Y-67253409D02*
X180476190Y-67301028D01*
X180476190Y-67301028D02*
X180523809Y-67348647D01*
X180523809Y-67348647D02*
X180571428Y-67443885D01*
X180571428Y-67443885D02*
X180571428Y-67586742D01*
X180571428Y-67586742D02*
X180523809Y-67681980D01*
X180523809Y-67681980D02*
X180476190Y-67729600D01*
X180476190Y-67729600D02*
X180380952Y-67777219D01*
X180380952Y-67777219D02*
X180000000Y-67777219D01*
X180000000Y-67777219D02*
X180000000Y-66777219D01*
X180000000Y-66777219D02*
X180333333Y-66777219D01*
X180333333Y-66777219D02*
X180428571Y-66824838D01*
X180428571Y-66824838D02*
X180476190Y-66872457D01*
X180476190Y-66872457D02*
X180523809Y-66967695D01*
X180523809Y-66967695D02*
X180523809Y-67062933D01*
X180523809Y-67062933D02*
X180476190Y-67158171D01*
X180476190Y-67158171D02*
X180428571Y-67205790D01*
X180428571Y-67205790D02*
X180333333Y-67253409D01*
X180333333Y-67253409D02*
X180000000Y-67253409D01*
X181000000Y-67777219D02*
X181000000Y-67110552D01*
X181000000Y-67301028D02*
X181047619Y-67205790D01*
X181047619Y-67205790D02*
X181095238Y-67158171D01*
X181095238Y-67158171D02*
X181190476Y-67110552D01*
X181190476Y-67110552D02*
X181285714Y-67110552D01*
X182047619Y-67777219D02*
X182047619Y-66777219D01*
X182047619Y-67729600D02*
X181952381Y-67777219D01*
X181952381Y-67777219D02*
X181761905Y-67777219D01*
X181761905Y-67777219D02*
X181666667Y-67729600D01*
X181666667Y-67729600D02*
X181619048Y-67681980D01*
X181619048Y-67681980D02*
X181571429Y-67586742D01*
X181571429Y-67586742D02*
X181571429Y-67301028D01*
X181571429Y-67301028D02*
X181619048Y-67205790D01*
X181619048Y-67205790D02*
X181666667Y-67158171D01*
X181666667Y-67158171D02*
X181761905Y-67110552D01*
X181761905Y-67110552D02*
X181952381Y-67110552D01*
X181952381Y-67110552D02*
X182047619Y-67158171D01*
X183047619Y-67777219D02*
X182476191Y-67777219D01*
X182761905Y-67777219D02*
X182761905Y-66777219D01*
X182761905Y-66777219D02*
X182666667Y-66920076D01*
X182666667Y-66920076D02*
X182571429Y-67015314D01*
X182571429Y-67015314D02*
X182476191Y-67062933D01*
%TO.C,J2*%
X205950000Y-92525000D02*
X205950000Y-98125000D01*
X207950000Y-92275000D02*
X207950000Y-98375000D01*
X207950000Y-92275000D02*
X220050000Y-92275000D01*
X207950000Y-92525000D02*
X205950000Y-92525000D01*
X207950000Y-98125000D02*
X205950000Y-98125000D01*
X207950000Y-98375000D02*
X220050000Y-98375000D01*
X220050000Y-92275000D02*
X220050000Y-98375000D01*
D11*
%TO.C,D72*%
X224297500Y-94640000D02*
X222987500Y-94640000D01*
X224297500Y-95860000D02*
X222987500Y-95860000D01*
X224297500Y-95860000D02*
X224297500Y-94640000D01*
%TO.C,D37*%
X187508750Y-100960000D02*
X187508750Y-99650000D01*
X187508750Y-100960000D02*
X188728750Y-100960000D01*
X188728750Y-100960000D02*
X188728750Y-99650000D01*
%TO.C,Brd2*%
X207500000Y-52625000D02*
X234900000Y-52625000D01*
X207500000Y-79925000D02*
X207500000Y-52625000D01*
X208038000Y-60005000D02*
X208038000Y-76642000D01*
X208038000Y-76642000D02*
X208292000Y-76630000D01*
X211378000Y-60030000D02*
X208038000Y-60005000D01*
X211378000Y-60030000D02*
X234478000Y-60030000D01*
X211378000Y-76630000D02*
X208292000Y-76630000D01*
X216420000Y-77023000D02*
X226199000Y-77023000D01*
X216420000Y-79436000D02*
X216420000Y-77023000D01*
X226199000Y-79436000D02*
X216420000Y-79436000D01*
X226199000Y-79436000D02*
X226199000Y-77023000D01*
X234478000Y-60030000D02*
X234478000Y-76630000D01*
X234478000Y-76630000D02*
X211378000Y-76630000D01*
X234900000Y-52625000D02*
X234900000Y-79925000D01*
X234900000Y-79925000D02*
X207500000Y-79925000D01*
%TO.C,D73*%
X210677500Y-89365000D02*
X210677500Y-90675000D01*
X211897500Y-89365000D02*
X210677500Y-89365000D01*
X211897500Y-89365000D02*
X211897500Y-90675000D01*
%TO.C,D36*%
X190533750Y-100935000D02*
X190533750Y-99625000D01*
X190533750Y-100935000D02*
X191753750Y-100935000D01*
X191753750Y-100935000D02*
X191753750Y-99625000D01*
%TO.C,D35*%
X179815000Y-92421250D02*
X179815000Y-93641250D01*
X179815000Y-92421250D02*
X181125000Y-92421250D01*
X179815000Y-93641250D02*
X181125000Y-93641250D01*
%TO.C,D74*%
X213702500Y-89465000D02*
X213702500Y-90775000D01*
X214922500Y-89465000D02*
X213702500Y-89465000D01*
X214922500Y-89465000D02*
X214922500Y-90775000D01*
D10*
%TO.C,J1*%
X182381250Y-98381250D02*
X182381250Y-92281250D01*
X194481250Y-92281250D02*
X182381250Y-92281250D01*
X194481250Y-92531250D02*
X196481250Y-92531250D01*
X194481250Y-98131250D02*
X196481250Y-98131250D01*
X194481250Y-98381250D02*
X182381250Y-98381250D01*
X194481250Y-98381250D02*
X194481250Y-92281250D01*
X196481250Y-98131250D02*
X196481250Y-92531250D01*
D11*
%TO.C,SW35*%
X178987500Y-108918750D02*
X178987500Y-110418750D01*
X180237500Y-112918750D02*
X184737500Y-112918750D01*
X184737500Y-106418750D02*
X180237500Y-106418750D01*
X185987500Y-110418750D02*
X185987500Y-108918750D01*
%TO.C,A1*%
X172111250Y-26120000D02*
X171631250Y-26120000D01*
X172111250Y-26120000D02*
X172111250Y-26540000D01*
X172111250Y-28660000D02*
X172111250Y-29080000D01*
X172111250Y-31200000D02*
X172111250Y-31620000D01*
X172111250Y-33740000D02*
X172111250Y-34160000D01*
X172111250Y-36280000D02*
X172111250Y-36700000D01*
X172111250Y-38820000D02*
X172111250Y-39240000D01*
X172111250Y-41360000D02*
X172111250Y-41780000D01*
X172111250Y-43900000D02*
X172111250Y-44320000D01*
X172111250Y-46440000D02*
X172111250Y-46860000D01*
X172111250Y-48980000D02*
X172111250Y-49400000D01*
X172111250Y-51520000D02*
X172111250Y-51940000D01*
X172111250Y-54060000D02*
X172111250Y-54480000D01*
X172111250Y-56600000D02*
X172111250Y-57020000D01*
X172111250Y-59140000D02*
X172111250Y-59560000D01*
X172111250Y-61680000D02*
X172111250Y-62100000D01*
X172111250Y-64220000D02*
X172111250Y-64640000D01*
X172111250Y-66760000D02*
X172111250Y-67180000D01*
X172111250Y-69300000D02*
X172111250Y-69720000D01*
X172111250Y-71840000D02*
X172111250Y-72260000D01*
X172141574Y-24000000D02*
X171631250Y-24000000D01*
X172451250Y-24000063D02*
X172451250Y-23643000D01*
X172451250Y-26120000D02*
X172451250Y-26540000D01*
X172451250Y-28660000D02*
X172451250Y-29080000D01*
X172451250Y-31200000D02*
X172451250Y-31620000D01*
X172451250Y-33740000D02*
X172451250Y-34160000D01*
X172451250Y-36280000D02*
X172451250Y-36700000D01*
X172451250Y-38820000D02*
X172451250Y-39240000D01*
X172451250Y-41360000D02*
X172451250Y-41780000D01*
X172451250Y-43900000D02*
X172451250Y-44320000D01*
X172451250Y-46440000D02*
X172451250Y-46860000D01*
X172451250Y-48980000D02*
X172451250Y-49400000D01*
X172451250Y-51520000D02*
X172451250Y-51940000D01*
X172451250Y-54060000D02*
X172451250Y-54480000D01*
X172451250Y-56600000D02*
X172451250Y-57020000D01*
X172451250Y-59140000D02*
X172451250Y-59560000D01*
X172451250Y-61680000D02*
X172451250Y-62100000D01*
X172451250Y-64220000D02*
X172451250Y-64640000D01*
X172451250Y-66760000D02*
X172451250Y-67180000D01*
X172451250Y-69300000D02*
X172451250Y-69720000D01*
X172451250Y-71840000D02*
X172451250Y-72260000D01*
X172451250Y-74379937D02*
X172451250Y-74737000D01*
X172721250Y-23580000D02*
X175211250Y-23580000D01*
X172721250Y-74800000D02*
X176559189Y-74800000D01*
X175211250Y-23580000D02*
X175211250Y-24493520D01*
X175211250Y-23580000D02*
X176559190Y-23580000D01*
X175211250Y-26886480D02*
X175211250Y-71493520D01*
X175211250Y-73886480D02*
X175211250Y-74800000D01*
X177483311Y-23580000D02*
X178486250Y-23580000D01*
X178486250Y-23580000D02*
X186956250Y-23580000D01*
X178821250Y-23580000D02*
X178821250Y-24496000D01*
X178821250Y-26884000D02*
X178821250Y-28100000D01*
X178821250Y-28100000D02*
X179117340Y-28100000D01*
X179121250Y-74800000D02*
X177483311Y-74800000D01*
X181475160Y-28100000D02*
X183967340Y-28100000D01*
X186325160Y-28100000D02*
X186621250Y-28100000D01*
X186621250Y-23580000D02*
X186621250Y-24496000D01*
X186621250Y-26884000D02*
X186621250Y-28100000D01*
X186956250Y-23580000D02*
X187959189Y-23580000D01*
X187959189Y-74800000D02*
X186321250Y-74800000D01*
X188883311Y-23580000D02*
X190231250Y-23580000D01*
X188883311Y-74800000D02*
X192721250Y-74800000D01*
X190231250Y-23580000D02*
X190231250Y-24493520D01*
X190231250Y-26886480D02*
X190231250Y-71493520D01*
X190231250Y-73886480D02*
X190231250Y-74800000D01*
X192721250Y-23580000D02*
X190231250Y-23580000D01*
X192991250Y-24000063D02*
X192991250Y-23643000D01*
X192991250Y-26120000D02*
X192991250Y-26540000D01*
X192991250Y-28660000D02*
X192991250Y-29080000D01*
X192991250Y-31200000D02*
X192991250Y-31620000D01*
X192991250Y-33740000D02*
X192991250Y-34160000D01*
X192991250Y-36280000D02*
X192991250Y-36700000D01*
X192991250Y-38820000D02*
X192991250Y-39240000D01*
X192991250Y-41360000D02*
X192991250Y-41780000D01*
X192991250Y-43900000D02*
X192991250Y-44320000D01*
X192991250Y-46440000D02*
X192991250Y-46860000D01*
X192991250Y-48980000D02*
X192991250Y-49400000D01*
X192991250Y-51520000D02*
X192991250Y-51940000D01*
X192991250Y-54060000D02*
X192991250Y-54480000D01*
X192991250Y-56600000D02*
X192991250Y-57020000D01*
X192991250Y-59140000D02*
X192991250Y-59560000D01*
X192991250Y-61680000D02*
X192991250Y-62100000D01*
X192991250Y-64220000D02*
X192991250Y-64640000D01*
X192991250Y-66760000D02*
X192991250Y-67180000D01*
X192991250Y-69300000D02*
X192991250Y-69720000D01*
X192991250Y-71840000D02*
X192991250Y-72260000D01*
X192991250Y-74379937D02*
X192991250Y-74737000D01*
X193331250Y-26120000D02*
X193331250Y-26540000D01*
X193331250Y-28660000D02*
X193331250Y-29080000D01*
X193331250Y-31200000D02*
X193331250Y-31620000D01*
X193331250Y-33740000D02*
X193331250Y-34160000D01*
X193331250Y-36280000D02*
X193331250Y-36700000D01*
X193331250Y-38820000D02*
X193331250Y-39240000D01*
X193331250Y-41360000D02*
X193331250Y-41780000D01*
X193331250Y-43900000D02*
X193331250Y-44320000D01*
X193331250Y-46440000D02*
X193331250Y-46860000D01*
X193331250Y-48980000D02*
X193331250Y-49400000D01*
X193331250Y-51520000D02*
X193331250Y-51940000D01*
X193331250Y-54060000D02*
X193331250Y-54480000D01*
X193331250Y-56600000D02*
X193331250Y-57020000D01*
X193331250Y-59140000D02*
X193331250Y-59560000D01*
X193331250Y-61680000D02*
X193331250Y-62100000D01*
X193331250Y-64220000D02*
X193331250Y-64640000D01*
X193331250Y-66760000D02*
X193331250Y-67180000D01*
X193331250Y-69300000D02*
X193331250Y-69720000D01*
X193331250Y-71840000D02*
X193331250Y-72260000D01*
X172141574Y-24000000D02*
G75*
G02*
X172721250Y-23580000I579692J-190051D01*
G01*
X192721250Y-23580000D02*
G75*
G02*
X193300926Y-24000063I0J-610000D01*
G01*
%TO.C,A2*%
X210180000Y-26120000D02*
X209700000Y-26120000D01*
X210180000Y-26120000D02*
X210180000Y-26540000D01*
X210180000Y-28660000D02*
X210180000Y-29080000D01*
X210180000Y-31200000D02*
X210180000Y-31620000D01*
X210180000Y-33740000D02*
X210180000Y-34160000D01*
X210180000Y-36280000D02*
X210180000Y-36700000D01*
X210180000Y-38820000D02*
X210180000Y-39240000D01*
X210180000Y-41360000D02*
X210180000Y-41780000D01*
X210180000Y-43900000D02*
X210180000Y-44320000D01*
X210180000Y-46440000D02*
X210180000Y-46860000D01*
X210180000Y-48980000D02*
X210180000Y-49400000D01*
X210180000Y-51520000D02*
X210180000Y-51940000D01*
X210180000Y-54060000D02*
X210180000Y-54480000D01*
X210180000Y-56600000D02*
X210180000Y-57020000D01*
X210180000Y-59140000D02*
X210180000Y-59560000D01*
X210180000Y-61680000D02*
X210180000Y-62100000D01*
X210180000Y-64220000D02*
X210180000Y-64640000D01*
X210180000Y-66760000D02*
X210180000Y-67180000D01*
X210180000Y-69300000D02*
X210180000Y-69720000D01*
X210180000Y-71840000D02*
X210180000Y-72260000D01*
X210210324Y-24000000D02*
X209700000Y-24000000D01*
X210520000Y-24000063D02*
X210520000Y-23643000D01*
X210520000Y-26120000D02*
X210520000Y-26540000D01*
X210520000Y-28660000D02*
X210520000Y-29080000D01*
X210520000Y-31200000D02*
X210520000Y-31620000D01*
X210520000Y-33740000D02*
X210520000Y-34160000D01*
X210520000Y-36280000D02*
X210520000Y-36700000D01*
X210520000Y-38820000D02*
X210520000Y-39240000D01*
X210520000Y-41360000D02*
X210520000Y-41780000D01*
X210520000Y-43900000D02*
X210520000Y-44320000D01*
X210520000Y-46440000D02*
X210520000Y-46860000D01*
X210520000Y-48980000D02*
X210520000Y-49400000D01*
X210520000Y-51520000D02*
X210520000Y-51940000D01*
X210520000Y-54060000D02*
X210520000Y-54480000D01*
X210520000Y-56600000D02*
X210520000Y-57020000D01*
X210520000Y-59140000D02*
X210520000Y-59560000D01*
X210520000Y-61680000D02*
X210520000Y-62100000D01*
X210520000Y-64220000D02*
X210520000Y-64640000D01*
X210520000Y-66760000D02*
X210520000Y-67180000D01*
X210520000Y-69300000D02*
X210520000Y-69720000D01*
X210520000Y-71840000D02*
X210520000Y-72260000D01*
X210520000Y-74379937D02*
X210520000Y-74737000D01*
X210790000Y-23580000D02*
X213280000Y-23580000D01*
X210790000Y-74800000D02*
X214627939Y-74800000D01*
X213280000Y-23580000D02*
X213280000Y-24493520D01*
X213280000Y-23580000D02*
X214627940Y-23580000D01*
X213280000Y-26886480D02*
X213280000Y-71493520D01*
X213280000Y-73886480D02*
X213280000Y-74800000D01*
X215552061Y-23580000D02*
X216555000Y-23580000D01*
X216555000Y-23580000D02*
X225025000Y-23580000D01*
X216890000Y-23580000D02*
X216890000Y-24496000D01*
X216890000Y-26884000D02*
X216890000Y-28100000D01*
X216890000Y-28100000D02*
X217186090Y-28100000D01*
X217190000Y-74800000D02*
X215552061Y-74800000D01*
X219543910Y-28100000D02*
X222036090Y-28100000D01*
X224393910Y-28100000D02*
X224690000Y-28100000D01*
X224690000Y-23580000D02*
X224690000Y-24496000D01*
X224690000Y-26884000D02*
X224690000Y-28100000D01*
X225025000Y-23580000D02*
X226027939Y-23580000D01*
X226027939Y-74800000D02*
X224390000Y-74800000D01*
X226952061Y-23580000D02*
X228300000Y-23580000D01*
X226952061Y-74800000D02*
X230790000Y-74800000D01*
X228300000Y-23580000D02*
X228300000Y-24493520D01*
X228300000Y-26886480D02*
X228300000Y-71493520D01*
X228300000Y-73886480D02*
X228300000Y-74800000D01*
X230790000Y-23580000D02*
X228300000Y-23580000D01*
X231060000Y-24000063D02*
X231060000Y-23643000D01*
X231060000Y-26120000D02*
X231060000Y-26540000D01*
X231060000Y-28660000D02*
X231060000Y-29080000D01*
X231060000Y-31200000D02*
X231060000Y-31620000D01*
X231060000Y-33740000D02*
X231060000Y-34160000D01*
X231060000Y-36280000D02*
X231060000Y-36700000D01*
X231060000Y-38820000D02*
X231060000Y-39240000D01*
X231060000Y-41360000D02*
X231060000Y-41780000D01*
X231060000Y-43900000D02*
X231060000Y-44320000D01*
X231060000Y-46440000D02*
X231060000Y-46860000D01*
X231060000Y-48980000D02*
X231060000Y-49400000D01*
X231060000Y-51520000D02*
X231060000Y-51940000D01*
X231060000Y-54060000D02*
X231060000Y-54480000D01*
X231060000Y-56600000D02*
X231060000Y-57020000D01*
X231060000Y-59140000D02*
X231060000Y-59560000D01*
X231060000Y-61680000D02*
X231060000Y-62100000D01*
X231060000Y-64220000D02*
X231060000Y-64640000D01*
X231060000Y-66760000D02*
X231060000Y-67180000D01*
X231060000Y-69300000D02*
X231060000Y-69720000D01*
X231060000Y-71840000D02*
X231060000Y-72260000D01*
X231060000Y-74379937D02*
X231060000Y-74737000D01*
X231400000Y-26120000D02*
X231400000Y-26540000D01*
X231400000Y-28660000D02*
X231400000Y-29080000D01*
X231400000Y-31200000D02*
X231400000Y-31620000D01*
X231400000Y-33740000D02*
X231400000Y-34160000D01*
X231400000Y-36280000D02*
X231400000Y-36700000D01*
X231400000Y-38820000D02*
X231400000Y-39240000D01*
X231400000Y-41360000D02*
X231400000Y-41780000D01*
X231400000Y-43900000D02*
X231400000Y-44320000D01*
X231400000Y-46440000D02*
X231400000Y-46860000D01*
X231400000Y-48980000D02*
X231400000Y-49400000D01*
X231400000Y-51520000D02*
X231400000Y-51940000D01*
X231400000Y-54060000D02*
X231400000Y-54480000D01*
X231400000Y-56600000D02*
X231400000Y-57020000D01*
X231400000Y-59140000D02*
X231400000Y-59560000D01*
X231400000Y-61680000D02*
X231400000Y-62100000D01*
X231400000Y-64220000D02*
X231400000Y-64640000D01*
X231400000Y-66760000D02*
X231400000Y-67180000D01*
X231400000Y-69300000D02*
X231400000Y-69720000D01*
X231400000Y-71840000D02*
X231400000Y-72260000D01*
X210210324Y-24000000D02*
G75*
G02*
X210790000Y-23580000I579692J-190051D01*
G01*
X230790000Y-23580000D02*
G75*
G02*
X231369676Y-24000063I0J-610000D01*
G01*
%TO.C,Brd1*%
X167500000Y-52576400D02*
X194900000Y-52576400D01*
X167500000Y-79876400D02*
X167500000Y-52576400D01*
X168038000Y-59956400D02*
X168038000Y-76593400D01*
X168038000Y-76593400D02*
X168292000Y-76581400D01*
X171378000Y-59981400D02*
X168038000Y-59956400D01*
X171378000Y-59981400D02*
X194478000Y-59981400D01*
X171378000Y-76581400D02*
X168292000Y-76581400D01*
X176420000Y-76974400D02*
X186199000Y-76974400D01*
X176420000Y-79387400D02*
X176420000Y-76974400D01*
X186199000Y-79387400D02*
X176420000Y-79387400D01*
X186199000Y-79387400D02*
X186199000Y-76974400D01*
X194478000Y-59981400D02*
X194478000Y-76581400D01*
X194478000Y-76581400D02*
X171378000Y-76581400D01*
X194900000Y-52576400D02*
X194900000Y-79876400D01*
X194900000Y-79876400D02*
X167500000Y-79876400D01*
%TD*%
M02*
